<?xml version="1.0" standalone="no"?>
<!DOCTYPE svg PUBLIC "-//W3C//DTD SVG 20010904//EN"
 "http://www.w3.org/TR/2001/REC-SVG-20010904/DTD/svg10.dtd">
<svg version="1.0" xmlns="http://www.w3.org/2000/svg"
 width="580.000000pt" height="470.000000pt" viewBox="0 0 580.000000 470.000000"
 preserveAspectRatio="xMidYMid meet">

<g transform="translate(0.000000,470.000000) scale(0.100000,-0.100000)"
fill="#000000" stroke="none">
<path d="M4385 2555 l-30 -13 45 -1 c43 -1 47 -3 69 -44 22 -40 23 -51 17
-118 -4 -40 -12 -81 -17 -91 -24 -45 40 2 73 54 16 24 20 25 56 17 42 -9 109
-64 104 -85 -1 -7 5 -14 14 -16 9 -2 22 -21 30 -43 17 -49 17 -51 2 -53 -39
-3 -87 -10 -107 -17 -20 -6 -22 -12 -17 -39 3 -17 13 -36 22 -43 11 -8 12 -13
4 -18 -6 -4 -9 -17 -6 -30 5 -21 -8 -40 -43 -60 -10 -6 -12 -4 -7 4 5 8 -1 10
-24 6 -17 -3 -29 -2 -26 3 3 5 -10 8 -29 7 -27 0 -32 2 -23 12 8 10 7 12 -6 7
-9 -4 -18 0 -22 9 -4 12 -19 14 -70 12 -84 -5 -105 -12 -97 -33 4 -10 -2 -7
-15 8 -12 14 -21 19 -22 12 0 -7 -4 -10 -10 -7 -5 3 -10 0 -10 -7 0 -8 -5 -6
-11 5 -5 9 -15 17 -20 17 -6 0 -7 -6 -3 -12 6 -9 3 -9 -9 0 -19 16 -61 7 -50
-11 4 -7 9 -21 10 -32 l3 -20 -16 20 c-15 19 -16 18 -10 -17 4 -21 3 -38 -2
-38 -5 0 -17 17 -26 38 l-16 37 5 -39 c4 -35 3 -37 -10 -20 -14 18 -14 17 -15
-10 0 -24 -2 -27 -15 -16 -8 7 -15 10 -15 6 0 -4 -11 1 -24 9 -29 20 -40 7
-26 -30 11 -28 5 -65 -10 -65 -4 0 -10 7 -14 15 -7 19 -42 20 -53 1 -4 -8 -30
-24 -56 -35 -26 -11 -47 -26 -46 -33 4 -35 -1 -39 -31 -23 -22 12 -33 26 -41
60 -12 47 -27 55 -52 30 -12 -11 -17 -12 -20 -2 -4 9 -8 8 -16 -3 -8 -11 -11
-11 -11 -2 0 7 19 21 43 31 23 10 65 34 94 54 58 39 199 93 286 110 31 6 57
14 57 17 0 4 48 10 108 14 59 4 123 10 142 14 l35 8 7 119 c4 66 12 138 18
160 16 53 17 87 5 92 -6 2 -10 -16 -10 -42 0 -32 -5 -48 -19 -58 -12 -9 -17
-21 -14 -34 3 -12 2 -27 -2 -34 -11 -17 -38 4 -42 34 -4 29 -30 28 -43 0 -5
-13 -16 -25 -24 -28 -11 -5 -13 5 -8 56 l7 61 -29 -24 c-27 -23 -61 -36 -230
-89 l-74 -22 -18 21 c-23 29 -35 28 -43 -3 -3 -13 -19 -36 -34 -50 -37 -35
-159 -105 -183 -105 -10 0 -27 -8 -37 -17 -21 -20 -107 -99 -172 -158 -34 -31
-40 -41 -27 -43 10 -2 17 -13 17 -25 0 -12 -4 -17 -8 -12 -4 6 -24 10 -45 10
-29 0 -37 -4 -37 -19 0 -15 7 -17 45 -14 43 3 45 2 44 -22 -1 -17 -3 -19 -6
-8 -4 16 -6 16 -19 3 -19 -19 -29 -19 -48 1 -15 14 -16 13 -16 -9 0 -22 3 -24
45 -20 36 4 45 2 45 -10 0 -12 -10 -15 -45 -12 -30 2 -45 0 -45 -8 0 -8 15
-11 45 -9 37 3 45 1 45 -13 0 -12 -8 -16 -32 -15 -51 3 -58 1 -58 -14 0 -12 7
-12 36 -4 25 7 40 6 47 -1 8 -8 6 -11 -6 -11 -9 0 -17 -7 -17 -15 0 -8 7 -15
16 -15 8 0 12 -4 9 -10 -3 -5 -24 -10 -46 -10 -22 0 -39 -5 -39 -11 0 -7 15
-10 40 -7 33 3 40 0 40 -14 0 -14 -8 -18 -40 -18 -39 0 -53 -12 -27 -24 10 -5
10 -7 0 -12 -7 -3 -13 -12 -13 -20 0 -9 4 -13 9 -10 5 4 12 0 14 -6 4 -10 6
-10 6 0 1 6 10 12 21 12 11 0 20 6 20 14 0 9 -7 12 -20 9 -11 -3 -20 -1 -20 5
0 5 11 12 25 15 24 4 26 2 24 -32 -3 -35 -4 -36 -41 -35 -37 1 -53 -18 -25
-29 10 -4 10 -6 0 -6 -18 -1 -16 -31 2 -31 9 0 12 -6 8 -16 -5 -13 -7 -13 -14
-2 -7 10 -9 9 -9 -4 0 -15 9 -18 56 -18 l56 0 -2 43 c-4 94 -1 106 27 121 26
13 29 12 50 -10 30 -32 85 -33 101 -1 9 18 11 19 11 4 1 -14 7 -16 29 -11 15
4 35 11 45 16 15 8 17 2 17 -67 0 -46 4 -75 11 -75 6 0 9 28 8 77 -2 77 -2 77
27 86 16 6 31 13 34 17 3 3 70 15 150 25 80 10 194 26 254 35 103 16 110 16
143 -1 20 -10 62 -21 95 -25 51 -6 59 -10 64 -31 4 -14 24 -34 53 -50 43 -26
142 -103 204 -159 36 -33 154 -88 248 -114 41 -11 130 -25 199 -30 124 -9 330
-58 338 -81 2 -5 9 -9 16 -9 7 0 54 -20 104 -45 l92 -44 0 359 0 358 -37 13
c-21 6 -40 15 -43 18 -6 9 -205 88 -265 106 -50 15 -169 78 -200 105 -11 11
-56 46 -100 79 -45 33 -105 83 -135 111 -30 29 -72 61 -95 72 -53 28 -257 158
-270 173 -14 17 -104 71 -147 90 -45 18 -73 18 -113 0z m-165 -413 c-6 -2 -22
3 -36 12 -13 9 -29 14 -33 11 -5 -3 -4 6 2 20 l12 24 33 -32 c18 -17 28 -33
22 -35z m-103 32 c-3 -3 -12 -4 -19 -1 -8 3 -5 6 6 6 11 1 17 -2 13 -5z m-227
-57 c0 -2 -25 -21 -55 -42 -30 -20 -55 -41 -55 -46 0 -5 -36 -27 -80 -48 -44
-22 -80 -38 -80 -37 0 4 -60 -48 -111 -95 -28 -27 -40 -32 -44 -22 -11 30 -4
43 38 61 39 18 96 58 178 125 43 35 209 118 209 104z m475 -347 c-28 -12 -57
-12 -50 0 3 6 21 10 38 9 27 0 29 -2 12 -9z m392 -164 c4 -8 44 -33 88 -56 44
-23 79 -45 78 -50 -1 -4 4 -14 12 -20 17 -14 21 -35 5 -25 -16 10 -12 -1 15
-41 14 -20 25 -41 25 -45 0 -16 -19 -10 -41 12 -14 14 -24 17 -28 11 -4 -6
-19 12 -35 39 -19 34 -31 47 -39 41 -7 -5 -25 -8 -42 -8 -28 1 -31 5 -47 61
-9 33 -17 68 -17 78 -1 20 15 23 26 3z m-1317 -172 c0 -2 -9 -4 -20 -4 -11 0
-20 4 -20 9 0 5 9 7 20 4 11 -3 20 -7 20 -9z"/>
<path d="M4130 2460 c0 -5 5 -10 10 -10 6 0 10 5 10 10 0 6 -4 10 -10 10 -5 0
-10 -4 -10 -10z"/>
<path d="M4098 2443 c7 -3 16 -2 19 1 4 3 -2 6 -13 5 -11 0 -14 -3 -6 -6z"/>
<path d="M4005 2424 c-27 -7 -60 -14 -72 -14 -13 0 -23 -4 -23 -10 0 -5 -6 -7
-14 -4 -7 3 -16 -1 -19 -9 -4 -12 3 -13 41 -6 26 5 56 13 67 19 11 5 38 16 60
24 51 19 25 19 -40 0z"/>
<path d="M4710 2240 c0 -5 5 -10 10 -10 6 0 10 5 10 10 0 6 -4 10 -10 10 -5 0
-10 -4 -10 -10z"/>
<path d="M4477 2153 c-11 -20 -16 -63 -8 -63 5 0 11 16 13 35 4 35 3 42 -5 28z"/>
<path d="M2646 1958 c-10 -39 -7 -308 4 -308 6 0 10 62 10 165 0 91 -2 165 -4
165 -2 0 -6 -10 -10 -22z"/>
<path d="M1965 1918 c-11 -13 -20 -27 -20 -33 0 -6 -32 -10 -75 -11 l-75 -1
-3 -364 -2 -364 74 0 c49 0 80 -5 88 -13 11 -11 8 -12 -14 -8 l-28 5 0 -105 0
-105 63 3 63 2 3 38 c1 33 -1 38 -19 38 -18 0 -20 4 -14 23 4 12 7 29 8 37 1
8 6 18 11 22 6 5 5 8 -2 8 -10 0 -13 55 -13 240 l0 240 49 0 c28 0 53 5 56 10
3 6 19 10 36 10 l29 0 2 125 c1 69 2 133 2 143 1 14 -9 18 -51 20 -48 3 -52 5
-55 30 -3 24 -7 27 -48 30 -37 2 -49 -1 -65 -20z m42 -970 c-3 -7 -5 -2 -5 12
0 14 2 19 5 13 2 -7 2 -19 0 -25z"/>
<path d="M2888 1730 c-3 -17 -1 -33 4 -36 4 -3 8 5 8 17 0 17 3 20 11 12 7 -7
10 -165 7 -522 -2 -281 1 -511 6 -511 4 0 6 6 3 14 -3 8 2 16 14 19 22 6 26
37 4 37 -22 0 -18 17 5 23 16 4 20 0 20 -18 0 -27 20 -37 78 -40 35 -3 42 0
42 16 0 10 -4 19 -9 19 -5 0 -11 18 -13 40 -3 31 0 40 12 40 9 0 21 14 27 30
6 17 18 30 27 30 12 0 16 11 16 45 0 34 4 45 16 45 13 0 15 -10 11 -59 -3 -43
-1 -61 9 -65 7 -3 14 0 16 6 3 7 26 8 70 4 59 -7 66 -10 71 -32 2 -13 0 -24
-6 -24 -5 0 -5 -6 2 -13 6 -8 8 -17 5 -20 -12 -11 -12 -107 -1 -107 7 0 7 -4
-1 -12 -19 -19 -14 -28 14 -28 22 0 26 4 22 23 -4 20 -1 22 46 22 35 0 51 4
50 13 -1 6 -2 44 -2 82 -2 68 -3 70 -28 70 -14 0 -23 4 -19 10 3 6 15 10 26
10 30 0 23 28 -8 33 l-28 4 28 2 c26 1 27 3 28 54 1 79 5 101 18 105 6 2 9 8
5 13 -3 5 1 11 8 14 13 5 14 116 2 233 l-6 53 -74 -2 c-70 -2 -96 -12 -56 -22
16 -4 16 -5 0 -6 -10 0 -18 -9 -19 -18 0 -13 -3 -11 -11 7 -6 15 -8 89 -6 187
l4 161 -22 -16 c-22 -17 -22 -17 -2 -28 18 -10 16 -12 -22 -17 -23 -3 -43 -7
-45 -9 -2 -2 -6 -49 -10 -106 l-6 -102 24 0 c20 0 23 -4 19 -30 -4 -29 -5 -30
-66 -31 -46 -1 -55 -3 -36 -9 14 -4 44 -8 68 -9 28 -1 41 -5 37 -12 -4 -6 -13
-8 -21 -5 -8 3 -14 1 -14 -5 0 -6 -8 -5 -21 2 -17 9 -23 8 -30 -2 -7 -12 -9
-12 -9 0 0 10 -3 11 -13 2 -8 -6 -17 -8 -20 -4 -4 3 -7 1 -7 -4 0 -6 6 -14 13
-17 10 -5 10 -7 0 -12 -7 -3 -13 -15 -13 -25 0 -11 4 -18 9 -14 5 3 12 1 15
-4 3 -5 -1 -11 -9 -15 -23 -8 -18 -26 8 -27 20 -1 20 -2 2 -6 -11 -3 -23 -10
-27 -17 -12 -17 -28 13 -28 55 0 33 -2 36 -25 31 l-25 -4 0 241 c0 233 -1 241
-20 241 -13 0 -18 5 -14 15 5 12 -6 15 -64 15 l-70 0 -4 -30z m179 -552 c-2
-13 -4 -3 -4 22 0 25 2 35 4 23 2 -13 2 -33 0 -45z m330 -324 c-3 -3 -12 -4
-19 -1 -8 3 -5 6 6 6 11 1 17 -2 13 -5z m-20 -76 c-3 -7 -5 -2 -5 12 0 14 2
19 5 13 2 -7 2 -19 0 -25z m0 -40 c-3 -8 -6 -5 -6 6 -1 11 2 17 5 13 3 -3 4
-12 1 -19z"/>
<path d="M3360 1666 c0 -9 8 -12 25 -8 14 2 25 8 25 13 0 5 -11 9 -25 9 -14 0
-25 -6 -25 -14z"/>
<path d="M1554 1615 c7 -41 5 -45 -13 -45 -16 0 -21 -6 -21 -25 0 -24 3 -25
53 -24 28 1 44 3 35 6 -20 5 -25 23 -6 23 6 0 4 7 -5 18 -10 10 -17 35 -17 55
0 27 -4 37 -16 37 -14 0 -15 -7 -10 -45z m16 -75 c0 -5 -2 -10 -4 -10 -3 0 -8
5 -11 10 -3 6 -1 10 4 10 6 0 11 -4 11 -10z"/>
<path d="M2683 1642 c-8 -5 -9 -13 -3 -22 11 -17 12 -185 2 -245 -4 -22 -11
-41 -17 -42 -6 -1 -9 46 -7 128 2 86 0 129 -7 129 -7 0 -11 -45 -11 -130 0
-80 -4 -130 -10 -130 -6 0 -10 -39 -10 -97 0 -122 -10 -204 -22 -196 -6 3 -14
0 -18 -7 -6 -9 -12 -9 -29 1 -22 15 -23 17 -23 147 l0 82 -34 0 -34 0 2 -222
3 -223 55 2 55 2 -3 -139 c-2 -95 0 -140 7 -140 6 0 11 -9 11 -20 0 -11 5 -20
10 -20 10 0 12 34 10 183 l-1 87 50 0 51 0 0 191 c0 156 3 193 15 205 18 18
22 184 5 184 -6 0 -10 57 -10 150 0 152 -3 164 -37 142z m-83 -651 c-8 -6 -17
-8 -21 -5 -4 2 -10 -10 -12 -28 -4 -33 -4 -33 -5 5 -2 34 0 37 26 37 20 0 23
-3 12 -9z m-55 -51 c3 -5 1 -10 -4 -10 -6 0 -11 5 -11 10 0 6 2 10 4 10 3 0 8
-4 11 -10z m55 0 c0 -5 -4 -10 -10 -10 -5 0 -10 5 -10 10 0 6 5 10 10 10 6 0
10 -4 10 -10z m-33 -62 c-3 -7 -5 -2 -5 12 0 14 2 19 5 13 2 -7 2 -19 0 -25z"/>
<path d="M1520 1613 c0 -12 5 -25 10 -28 13 -8 13 15 0 35 -8 12 -10 11 -10
-7z"/>
<path d="M2470 1505 c0 -50 4 -85 10 -85 6 0 10 35 10 85 0 50 -4 85 -10 85
-6 0 -10 -35 -10 -85z"/>
<path d="M2530 1526 c0 -34 3 -91 6 -125 7 -59 8 -61 35 -61 l29 0 -1 128 c-1
128 -16 140 -18 15 -1 -57 -3 -63 -22 -63 -19 0 -20 5 -17 85 2 47 0 85 -4 85
-5 0 -8 -29 -8 -64z"/>
<path d="M2226 1538 c-11 -94 -16 -378 -6 -378 6 0 10 11 10 24 0 13 3 38 6
55 6 27 10 31 40 31 21 0 34 5 34 13 0 16 52 18 62 3 5 -7 8 -7 8 2 0 6 7 12
15 12 10 0 15 10 15 30 0 28 -3 30 -35 30 l-35 0 0 100 c0 100 0 100 -25 100
-18 0 -23 -4 -19 -15 9 -22 -4 -18 -32 10 -14 14 -27 25 -29 25 -2 0 -6 -19
-9 -42z"/>
<path d="M1557 1503 c-3 -5 -5 -78 -6 -162 -1 -113 2 -157 12 -163 9 -6 9 -10
0 -16 -18 -12 -15 -172 4 -172 28 0 43 65 43 182 0 102 2 114 20 126 12 7 20
8 20 2 0 -5 7 -10 16 -10 23 0 11 24 -14 28 -30 5 -29 39 1 45 l22 4 -22 2
c-24 1 -32 26 -10 34 10 4 10 6 0 6 -9 1 -13 18 -13 51 l0 50 -34 0 c-19 0
-37 -3 -39 -7z m40 -269 c-3 -3 -12 -4 -19 -1 -8 3 -5 6 6 6 11 1 17 -2 13 -5z"/>
<path d="M1391 1484 c0 -11 3 -14 6 -6 3 7 2 16 -1 19 -3 4 -6 -2 -5 -13z"/>
<path d="M1410 1484 c0 -8 5 -12 10 -9 6 3 10 10 10 16 0 5 -4 9 -10 9 -5 0
-10 -7 -10 -16z"/>
<path d="M1500 1490 c0 -5 5 -10 10 -10 6 0 10 5 10 10 0 6 -4 10 -10 10 -5 0
-10 -4 -10 -10z"/>
<path d="M2801 1484 c0 -11 3 -14 6 -6 3 7 2 16 -1 19 -3 4 -6 -2 -5 -13z"/>
<path d="M1385 1451 c-3 -5 -1 -12 5 -16 5 -3 10 1 10 9 0 18 -6 21 -15 7z"/>
<path d="M1424 1452 c-14 -10 -12 -44 4 -49 6 -3 12 0 12 6 0 6 -5 11 -11 11
-8 0 -7 5 1 15 14 17 10 28 -6 17z"/>
<path d="M1451 1444 c0 -11 3 -14 6 -6 3 7 2 16 -1 19 -3 4 -6 -2 -5 -13z"/>
<path d="M3780 1244 c0 -143 3 -203 11 -199 6 4 8 13 5 20 -6 16 31 52 42 40
4 -4 2 -10 -5 -12 -7 -2 -10 -10 -7 -18 3 -8 12 -11 19 -9 7 3 16 1 19 -5 4
-6 -9 -13 -29 -17 -34 -6 -42 -14 -29 -27 3 -3 6 -118 6 -254 -1 -136 2 -239
7 -228 8 19 8 19 20 -3 7 -12 19 -21 28 -20 9 2 18 -3 20 -9 3 -8 -5 -13 -21
-13 -14 0 -26 4 -26 10 0 5 -7 7 -15 4 -8 -4 -15 -10 -15 -15 0 -4 7 -6 15 -3
8 4 15 1 15 -5 0 -6 -7 -11 -16 -11 -10 0 -14 -6 -10 -15 3 -10 -1 -15 -13
-15 -10 0 -22 -7 -25 -16 -4 -11 -12 -13 -28 -8 -19 6 -21 4 -12 -7 7 -8 8
-23 4 -34 -7 -19 -7 -19 -19 4 -7 12 -10 25 -7 28 3 4 -4 11 -16 17 -12 6 -23
17 -26 25 -3 8 0 11 7 7 6 -4 11 -3 11 2 0 5 15 9 33 8 l32 -1 -4 50 c-3 55
-8 66 -20 46 -10 -16 -21 -2 -32 43 -5 24 -7 26 -8 9 -1 -29 -21 -30 -21 -2 0
12 -7 27 -15 33 -10 8 -15 34 -17 83 -2 62 -4 71 -20 70 -10 -1 -18 -5 -18
-10 0 -5 6 -7 13 -4 18 7 16 -41 -1 -52 -8 -5 -13 -11 -13 -15 7 -51 7 -51
-99 -48 -84 3 -100 1 -100 -12 0 -11 12 -14 52 -13 l52 2 1 -72 c0 -40 4 -75
7 -79 13 -12 -17 -31 -50 -31 -34 0 -56 -13 -34 -20 17 -6 15 -30 -3 -37 -18
-7 -20 10 -2 18 6 3 1 4 -13 1 -24 -4 -26 -2 -26 38 0 23 -1 70 -2 105 l-2 64
-80 -4 c-61 -2 -80 0 -80 10 0 9 7 11 20 7 15 -5 20 -2 20 10 0 13 -6 16 -25
11 -33 -9 -50 1 -34 20 9 11 9 14 0 14 -7 0 -9 5 -6 10 4 6 -6 10 -24 10 -16
0 -32 6 -34 13 -4 10 -6 9 -6 0 -1 -7 -8 -13 -16 -13 -11 0 -14 -10 -13 -40 1
-22 4 -40 8 -40 3 0 4 -40 2 -89 -4 -80 -2 -90 14 -94 18 -5 18 -5 0 -6 -12
-1 -16 -6 -12 -16 3 -9 0 -15 -9 -15 -9 0 -15 -10 -15 -25 0 -14 -4 -25 -10
-25 -5 0 -10 7 -10 15 0 24 -19 18 -32 -10 -9 -19 -14 -22 -25 -14 -15 14 -16
11 -13 -64 2 -49 0 -56 -15 -51 -9 4 -14 12 -12 18 19 45 19 46 -2 46 -17 0
-21 6 -21 34 0 28 5 36 28 45 22 9 23 10 3 7 -14 -3 -31 3 -44 15 l-21 19 32
-6 c25 -5 32 -3 32 10 0 9 -7 17 -15 17 -8 1 -21 2 -27 3 -8 1 -12 12 -10 28
2 22 -2 27 -27 33 -18 4 -33 15 -36 26 -4 12 -13 18 -21 15 -8 -3 -14 -2 -14
3 0 4 -18 7 -40 7 -23 0 -39 -5 -37 -11 2 -5 11 -9 20 -9 13 1 14 -2 6 -17
-12 -23 -28 -24 -36 -2 -6 15 -7 14 -14 -3 -3 -10 -2 -25 3 -31 7 -9 7 -13 0
-13 -6 0 -9 -7 -6 -15 5 -11 2 -13 -12 -8 -12 4 -15 3 -9 -6 6 -10 3 -11 -14
-2 -12 7 -25 9 -30 6 -5 -3 -12 1 -14 7 -4 8 -6 7 -6 -4 -1 -9 5 -18 12 -21 6
-2 8 -8 4 -13 -4 -4 -17 -3 -28 4 -20 13 -20 12 -2 -14 17 -26 17 -27 -2 -17
-11 6 -26 8 -32 6 -20 -7 -15 8 11 32 13 12 26 31 28 41 2 11 11 18 21 16 12
-2 17 4 17 23 0 26 -15 34 -23 13 -4 -10 -6 -10 -6 0 -2 23 -21 12 -21 -12 0
-13 -3 -32 -6 -40 -6 -15 -8 -15 -21 1 -13 16 -14 16 -9 1 3 -12 1 -15 -10
-11 -20 7 -18 -7 4 -23 15 -12 15 -12 -6 -7 -18 4 -21 2 -16 -11 4 -11 2 -16
-7 -14 -8 2 -13 -1 -12 -7 0 -5 -5 -16 -13 -23 -17 -15 -18 -4 -4 34 7 18 7
30 0 40 -9 9 -6 15 9 24 19 9 21 20 21 89 l0 79 -41 7 c-22 4 -43 4 -46 1 -4
-3 3 -6 15 -6 21 0 22 -4 22 -120 0 -66 0 -122 0 -125 0 -3 -3 -4 -7 -2 -5 1
-6 8 -5 16 3 9 -3 12 -17 8 -12 -3 -21 -1 -21 4 0 18 -39 9 -45 -11 -3 -11
-10 -20 -14 -20 -4 0 -8 -27 -9 -60 -2 -50 0 -59 13 -54 8 4 15 2 15 -3 0 -14
197 -16 205 -3 3 5 1 10 -4 10 -12 0 -15 52 -4 63 3 4 12 2 20 -4 9 -9 13 -8
13 0 0 6 6 11 14 11 8 0 14 -6 13 -12 -2 -58 3 -68 33 -68 17 0 30 -5 30 -11
0 -7 -12 -10 -30 -7 -16 3 -30 2 -30 -2 0 -3 -46 -5 -102 -4 -57 1 -111 -3
-120 -8 -12 -5 -18 -5 -18 2 0 6 -25 10 -60 10 -57 0 -60 1 -57 22 2 13 2 17
0 10 -3 -7 -9 -10 -14 -6 -5 3 -7 9 -4 14 10 15 17 111 11 136 -5 19 -12 23
-36 21 -29 -4 -55 -17 -32 -17 7 0 12 -12 12 -26 0 -22 -2 -24 -15 -14 -17 14
-39 4 -31 -15 3 -8 -3 -19 -11 -27 -15 -11 -16 -11 -10 6 6 16 5 17 -8 6 -12
-10 -15 -10 -15 4 0 9 4 16 9 16 4 0 6 11 3 25 -2 14 0 25 4 25 12 0 15 132 3
146 -14 17 -79 15 -79 -2 0 -8 -6 -11 -15 -8 -12 5 -15 34 -15 169 0 99 -4
166 -10 170 -6 4 -10 -14 -10 -46 0 -29 -3 -49 -7 -45 -4 4 -8 15 -8 24 0 13
-13 18 -60 23 -33 3 -50 6 -37 7 39 3 24 22 -18 22 -38 0 -40 -2 -40 -30 0
-16 5 -30 11 -30 5 0 7 -5 3 -11 -8 -13 -43 27 -44 49 0 14 -20 17 -20 2 0
-11 -50 -14 -51 -2 -5 52 -11 107 -12 108 -1 0 -21 -1 -43 -4 l-41 -4 -2 -154
c-2 -136 0 -153 13 -148 9 3 16 10 16 16 0 5 5 6 10 3 7 -4 1 -16 -14 -30 -17
-16 -21 -25 -13 -28 9 -4 8 -8 -3 -16 -8 -6 -10 -11 -5 -11 6 1 19 7 29 15 26
20 42 19 22 0 -8 -8 -19 -15 -25 -15 -6 0 -11 -5 -11 -11 0 -5 -4 -7 -10 -4
-5 3 -10 2 -10 -3 0 -6 -10 -8 -22 -4 -17 4 -20 2 -15 -11 3 -9 0 -22 -6 -29
-7 -7 -16 -21 -20 -30 -7 -20 -27 -25 -27 -7 0 5 -5 7 -12 3 -7 -4 -22 -9 -35
-10 -18 -2 -23 2 -22 19 0 12 3 16 6 10 5 -14 43 -18 43 -5 0 12 -50 33 -61
27 -5 -4 -9 -2 -9 4 0 6 -7 8 -15 5 -11 -5 -13 -2 -8 12 5 13 3 15 -8 9 -8 -5
-26 -8 -41 -6 -33 3 -36 -4 -7 -20 15 -8 19 -8 15 0 -4 6 -2 11 3 11 6 0 11
-4 11 -10 0 -5 7 -10 15 -10 9 0 12 -6 9 -15 -7 -17 -34 -21 -34 -5 0 6 -9 10
-20 10 -11 0 -20 -4 -20 -10 0 -5 9 -10 20 -10 11 0 20 -5 20 -11 0 -5 5 -7
12 -3 6 4 8 3 4 -4 -3 -6 -19 -13 -36 -17 -20 -4 -27 -11 -23 -21 4 -11 0 -12
-18 -5 -27 10 -28 38 -1 59 15 11 15 14 2 22 -8 5 -10 10 -5 10 6 0 3 5 -5 11
-9 6 -11 12 -4 15 6 2 8 18 6 34 -4 30 -16 38 -27 20 -3 -6 -1 -10 6 -10 8 0
9 -3 0 -13 -6 -8 -8 -16 -5 -20 10 -9 -6 -47 -19 -44 -7 1 -11 -6 -11 -15 2
-25 -5 -22 -16 4 -6 17 -9 18 -9 6 -1 -9 -10 -20 -22 -23 -25 -8 -21 -25 10
-37 19 -7 22 -5 17 8 -5 14 -4 15 8 5 10 -8 16 -9 21 -1 3 5 12 10 18 10 7 0
0 -8 -15 -18 -16 -9 -28 -21 -28 -27 0 -5 -5 -3 -10 5 -8 13 -10 12 -10 -2 0
-10 -7 -18 -16 -18 -8 0 -12 -4 -9 -10 3 -5 -1 -10 -9 -10 -9 0 -16 -7 -16
-16 0 -11 6 -14 23 -8 12 3 19 3 15 -1 -9 -9 9 -35 24 -35 6 0 8 7 5 14 -4 10
-1 13 9 9 7 -3 14 -10 14 -16 0 -6 3 -7 7 -4 3 4 -2 17 -13 28 -19 22 -19 22
4 10 16 -8 28 -9 42 -1 22 12 27 30 8 30 -9 0 -9 3 -1 11 16 16 33 2 33 -27 0
-14 6 -24 15 -24 17 0 35 -30 35 -59 0 -17 -6 -21 -30 -21 -16 0 -33 -6 -37
-13 -14 -22 -63 -42 -71 -29 -9 13 -52 12 -52 -1 0 -5 -6 -5 -13 2 -8 6 -18 7
-23 2 -8 -8 -138 0 -229 14 -69 10 -25 -14 51 -29 l69 -13 -57 -7 c-56 -7 -78
-19 -59 -30 21 -14 229 -36 421 -46 552 -27 847 -32 1730 -27 987 6 1284 16
1710 55 l75 7 -65 5 c-46 4 -5 8 135 13 110 4 254 9 320 12 66 2 198 4 293 5
l173 0 -3 38 -3 37 -105 0 c-215 -1 -730 -10 -866 -15 l-142 -5 19 24 c14 17
16 28 9 35 -5 5 -10 40 -10 77 0 72 11 92 47 83 27 -7 35 28 16 69 -11 23 -11
27 1 27 16 0 29 27 20 43 -19 33 -49 57 -66 51 -24 -7 -34 20 -19 53 6 14 10
27 8 29 -2 2 -28 6 -58 8 -65 5 -89 13 -89 32 0 8 -10 14 -25 14 -23 0 -25 4
-25 45 0 39 -3 45 -21 45 -18 0 -21 5 -17 30 4 29 3 30 -33 30 -27 0 -39 -5
-42 -17 -4 -17 -5 -17 -6 0 -1 10 -9 17 -21 17 -15 0 -20 -7 -20 -29 0 -16 6
-32 13 -34 6 -3 2 -6 -10 -6 -18 -1 -23 -7 -23 -28 0 -33 -16 -61 -27 -49 -4
4 -10 92 -13 194 l-5 187 -35 -3 -35 -3 0 58 c0 56 -1 58 -27 61 -27 3 -34 -8
-29 -40 0 -5 -38 -9 -86 -9 -99 -1 -93 -7 12 -11 65 -3 70 -4 69 -25 0 -18 5
-23 23 -23 13 0 23 -6 23 -13 0 -10 -23 -12 -95 -10 -53 1 -97 -2 -100 -8 -4
-6 16 -9 52 -8 103 2 143 -1 143 -10 0 -5 -12 -12 -27 -14 l-28 -4 27 -2 c20
-1 26 -6 25 -21 -1 -11 -8 -20 -17 -21 -13 0 -13 -1 0 -7 21 -10 19 -36 -5
-44 -18 -5 -17 -6 5 -8 l25 -2 -25 -8 -25 -8 25 -2 c23 -1 23 -2 5 -10 -16 -7
-17 -9 -3 -9 23 -1 19 -41 -4 -41 -10 0 -18 -4 -18 -10 0 -5 9 -10 20 -10 18
0 19 -3 10 -20 -8 -15 -8 -20 2 -21 7 -1 2 -5 -12 -9 -17 -5 -19 -8 -7 -9 20
-1 25 -51 5 -51 -9 0 -9 -3 0 -12 18 -18 14 -34 -8 -35 -18 -2 -20 4 -20 73 0
54 -3 74 -12 73 -24 -3 -53 3 -40 8 21 8 13 22 -15 25 -16 2 -27 8 -26 14 2 9
-4 9 -22 0 -22 -10 -23 -15 -18 -72 5 -52 3 -61 -11 -61 -10 0 -16 9 -16 24 0
16 -6 23 -20 23 -11 0 -20 7 -20 15 0 8 9 15 21 15 11 0 18 4 14 10 -3 5 -12
7 -20 3 -12 -4 -15 3 -15 30 0 29 4 36 23 40 19 4 20 4 2 6 -11 0 -25 11 -30
24 -6 13 -17 21 -28 19 -11 -2 -17 4 -17 17 0 11 -8 22 -17 24 -13 3 -10 5 7
6 22 1 23 3 8 12 -12 6 -18 22 -18 44 0 29 -4 35 -21 35 -11 0 -17 -4 -14 -10
3 -5 2 -10 -3 -10 -9 0 -22 124 -22 218 0 39 -4 52 -15 52 -13 0 -15 -30 -15
-206z m143 -221 c-7 -2 -21 -2 -30 0 -10 3 -4 5 12 5 17 0 24 -2 18 -5z m467
-98 c0 -8 -4 -15 -10 -15 -5 0 -7 7 -4 15 4 8 8 15 10 15 2 0 4 -7 4 -15z
m-2480 -55 c0 -5 -4 -10 -10 -10 -5 0 -10 5 -10 10 0 6 5 10 10 10 6 0 10 -4
10 -10z m42 -42 c-9 -9 -15 -9 -24 0 -9 9 -7 12 12 12 19 0 21 -3 12 -12z m51
5 c-7 -2 -19 -2 -25 0 -7 3 -2 5 12 5 14 0 19 -2 13 -5z m-33 -47 c0 -35 -13
-46 -52 -46 -28 0 -38 4 -34 13 3 6 9 20 12 30 8 22 74 25 74 3z m2068 -26 c0
-16 -4 -30 -9 -30 -5 0 -9 -7 -9 -16 0 -16 11 -16 50 0 24 9 46 -9 32 -27 -14
-17 -4 -31 13 -17 9 8 12 4 11 -12 -1 -16 -8 -23 -23 -24 -18 -1 -23 4 -23 25
0 20 -2 23 -10 11 -6 -10 -10 -11 -10 -2 0 6 -10 11 -22 11 -17 -1 -19 -2 -5
-6 9 -2 17 -8 17 -12 0 -12 -33 -47 -50 -54 -12 -4 -12 -6 2 -6 11 -1 15 -7
11 -21 -6 -23 -33 -27 -33 -5 0 8 -5 15 -10 15 -6 0 -13 -7 -16 -15 -4 -8 -13
-15 -21 -15 -10 0 -12 -6 -8 -20 4 -11 2 -20 -4 -20 -10 0 -15 13 -12 32 0 4
-13 6 -29 6 -16 -1 -27 -5 -24 -10 3 -4 1 -8 -5 -8 -14 0 -26 23 -14 27 6 2
19 10 29 17 16 12 16 16 4 31 -11 13 -11 18 -1 24 7 5 11 12 9 16 -5 12 37 24
53 14 11 -7 11 -9 0 -9 -7 0 -11 -6 -7 -15 5 -13 -5 -20 -26 -16 -5 0 -8 -11
-8 -25 0 -14 4 -23 10 -19 6 3 10 10 10 16 0 17 36 46 54 43 10 -1 15 0 13 3
-3 3 -2 16 3 29 7 16 6 24 -1 24 -8 0 -8 4 -1 13 6 7 13 26 16 42 2 17 5 31 5
33 1 1 9 2 19 2 14 0 19 -8 20 -30z m-2074 -42 c-3 -4 -15 -8 -28 -8 -12 0
-28 -6 -35 -12 -11 -10 -13 -10 -7 0 5 8 0 12 -14 12 -45 0 -9 15 39 16 28 1
48 -3 45 -8z m-179 -28 c3 -5 2 -10 -4 -10 -5 0 -13 5 -16 10 -3 6 -2 10 4 10
5 0 13 -4 16 -10z m65 1 c-8 -5 -18 -7 -22 -5 -4 3 -8 -3 -8 -12 0 -19 -13
-11 -16 9 -1 8 11 14 30 15 22 2 27 0 16 -7z m80 -15 c0 -3 -4 -8 -10 -11 -5
-3 -10 -1 -10 4 0 6 5 11 10 11 6 0 10 -2 10 -4z m-150 -16 c0 -5 -4 -10 -10
-10 -5 0 -10 5 -10 10 0 6 5 10 10 10 6 0 10 -4 10 -10z m1832 -35 c-3 -17 0
-25 9 -25 11 0 11 -2 -1 -10 -13 -9 -13 -11 0 -20 8 -5 10 -10 5 -10 -6 0 -12
-23 -13 -52 -1 -28 -4 -53 -6 -55 -2 -2 -19 3 -37 11 -20 8 -27 15 -16 15 21
1 24 41 2 41 -18 0 -20 17 -3 22 20 7 20 48 0 48 -14 0 -14 2 -3 9 8 5 11 16
7 26 -5 14 -2 16 13 12 10 -2 25 -1 32 4 8 5 15 9 15 9 1 0 -1 -11 -4 -25z
m-1835 -20 c-4 -8 -12 -15 -19 -14 -10 0 -10 2 0 6 6 2 12 12 12 21 0 8 3 13
6 9 4 -3 4 -13 1 -22z m179 -12 c-11 -11 -17 4 -9 23 7 18 8 18 11 1 2 -10 1
-21 -2 -24z m-106 -20 c0 -5 -5 -15 -10 -23 -7 -12 -9 -10 -7 8 1 19 17 33 17
15z m2720 -5 c0 -4 -6 -9 -12 -9 -12 -1 -39 -4 -90 -8 -14 -1 -16 -6 -9 -23 4
-12 13 -23 20 -24 6 -1 7 0 2 2 -6 3 -7 12 -4 20 5 13 7 13 14 2 7 -10 9 -10
9 0 0 10 3 10 14 0 12 -11 11 -14 -3 -20 -13 -6 -12 -8 7 -14 33 -10 27 -22
-10 -19 -18 1 -43 -1 -55 -6 -18 -7 -25 -4 -34 14 -7 12 -8 19 -4 15 12 -11
34 16 25 32 -5 9 -2 20 6 28 8 7 14 11 14 8 0 -3 9 -2 20 2 27 10 90 10 90 0z
m-2870 -35 c0 -7 -4 -13 -9 -13 -5 0 -11 6 -14 13 -3 8 1 14 9 14 8 0 14 -6
14 -14z m-17 -38 c23 -32 17 -32 -13 0 -13 14 -19 25 -14 25 5 0 17 -12 27
-25z m187 15 c0 -5 -4 -10 -9 -10 -6 0 -13 5 -16 10 -3 6 1 10 9 10 9 0 16 -4
16 -10z m220 -5 c0 -9 -9 -15 -24 -15 -14 0 -28 -4 -31 -10 -3 -5 1 -10 9 -10
20 0 21 -16 2 -23 -13 -5 -31 18 -28 35 1 4 -6 5 -16 2 -16 -5 -16 -5 1 6 9 6
22 8 27 5 6 -3 10 -1 10 5 0 7 7 10 15 6 8 -3 15 -1 15 4 0 6 5 10 10 10 6 0
10 -7 10 -15z m1914 -14 c-2 -3 -12 -6 -22 -7 -9 -2 -24 -4 -32 -6 -8 -2 -16
2 -17 7 -1 6 6 10 16 9 11 0 17 5 14 12 -4 10 0 10 20 1 14 -6 24 -14 21 -16z
m561 19 c3 -6 -1 -7 -9 -4 -18 7 -21 14 -7 14 6 0 13 -4 16 -10z m-2927 -26
c-4 -11 -28 -14 -28 -4 0 8 22 20 28 14 2 -1 2 -6 0 -10z m-188 -41 c-1 -28
-3 -34 -10 -22 -8 14 -3 59 6 59 2 0 4 -17 4 -37z m57 31 c-3 -3 -12 -4 -19
-1 -8 3 -5 6 6 6 11 1 17 -2 13 -5z m2363 -3 c0 -5 -7 -11 -14 -14 -10 -4 -13
-1 -9 9 6 15 23 19 23 5z m550 -11 c0 -5 -7 -7 -15 -4 -8 4 -12 10 -9 15 6 11
24 2 24 -11z m-2604 -17 c-10 -10 -19 5 -10 18 6 11 8 11 12 0 2 -7 1 -15 -2
-18z m194 -5 c0 -23 -3 -29 -11 -21 -8 8 -18 7 -37 -3 -31 -16 -72 -18 -72 -4
0 5 6 7 14 4 17 -6 31 12 16 21 -5 3 -10 11 -10 17 0 7 9 2 20 -10 22 -23 40
-29 40 -12 0 6 8 10 18 11 10 0 12 3 5 6 -18 7 -16 23 2 23 10 0 15 -10 15
-32z m100 18 c0 -3 -4 -8 -10 -11 -5 -3 -10 -1 -10 4 0 6 5 11 10 11 6 0 10
-2 10 -4z m-350 -22 c0 -8 -5 -12 -10 -9 -6 4 -8 11 -5 16 9 14 15 11 15 -7z
m2908 -22 c3 -29 1 -32 -22 -32 -22 0 -26 5 -26 28 0 33 8 44 30 40 9 -2 16
-16 18 -36z m-2938 18 c0 -5 -5 -10 -11 -10 -5 0 -7 5 -4 10 3 6 8 10 11 10 2
0 4 -4 4 -10z m1865 0 c3 -5 1 -10 -4 -10 -6 0 -11 5 -11 10 0 6 2 10 4 10 3
0 8 -4 11 -10z m-1920 -21 c-10 -10 -14 -19 -8 -19 5 0 9 -22 9 -48 0 -48 0
-48 -31 -43 -18 3 -23 6 -12 9 14 3 17 14 17 61 0 51 2 57 21 58 20 2 20 1 4
-18z m392 15 c-3 -3 -12 -4 -19 -1 -8 3 -5 6 6 6 11 1 17 -2 13 -5z m1613 -16
c0 -16 -3 -19 -11 -11 -6 6 -8 16 -5 22 11 17 16 13 16 -11z m923 1 c-4 -15
-8 -17 -14 -8 -8 14 -3 29 11 29 4 0 6 -9 3 -21z m-3089 -53 c1 -39 -3 -56
-11 -56 -14 0 -17 39 -7 89 9 45 16 31 18 -33z m78 12 c1 -24 2 -53 2 -65 0
-13 4 -23 8 -23 4 0 5 -7 2 -15 -4 -8 -1 -15 5 -15 6 0 11 7 11 15 0 10 10 15
30 15 20 0 30 -5 30 -15 0 -9 9 -15 21 -15 18 0 19 3 9 14 -10 13 -4 15 37 18
48 3 48 3 46 37 -1 18 -7 38 -15 42 -9 6 -7 9 10 9 17 0 22 -6 22 -27 0 -16 3
-45 6 -65 l7 -38 -121 0 c-87 0 -122 3 -125 13 -4 9 -8 8 -16 -3 -10 -13 -15
-8 -12 13 2 11 -17 9 -24 -4 -9 -13 -155 -10 -155 4 0 6 17 7 40 4 31 -4 38
-2 31 6 -7 9 9 11 62 9 l72 -3 -3 65 c-3 43 0 66 7 66 6 0 12 -19 13 -42z
m432 17 c-9 -14 -18 -25 -20 -25 -7 0 10 35 20 42 17 12 17 9 0 -17z m736 -30
c0 -30 -3 -55 -7 -55 -5 0 -8 19 -8 43 0 23 -4 48 -9 55 -6 8 -3 12 8 12 13 0
16 -11 16 -55z m690 35 c0 -5 -5 -10 -11 -10 -5 0 -7 5 -4 10 3 6 8 10 11 10
2 0 4 -4 4 -10z m-843 -6 c-3 -3 -12 -4 -19 -1 -8 3 -5 6 6 6 11 1 17 -2 13
-5z m188 -13 c-8 -14 -25 -14 -25 0 0 5 5 7 10 4 6 -3 10 -1 10 6 0 7 3 10 6
6 3 -3 3 -10 -1 -16z m-752 -6 c-3 -9 -8 -14 -10 -11 -3 3 -2 9 2 15 9 16 15
13 8 -4z m1637 5 c0 -5 -2 -10 -4 -10 -3 0 -8 5 -11 10 -3 6 -1 10 4 10 6 0
11 -4 11 -10z m-1100 -4 c0 -3 -4 -8 -10 -11 -5 -3 -10 -1 -10 4 0 6 5 11 10
11 6 0 10 -2 10 -4z m891 -20 c-7 -8 -11 -30 -10 -48 2 -18 -1 -35 -6 -37 -6
-1 -9 12 -7 30 3 36 22 82 30 74 3 -2 -1 -11 -7 -19z m-325 -76 c54 0 64 -3
64 -17 0 -12 -3 -14 -8 -7 -8 13 -122 14 -122 1 0 -4 -6 -5 -12 0 -14 8 -19
10 -44 12 -8 0 -13 5 -10 10 3 4 17 6 31 3 24 -4 25 -2 27 44 l2 49 3 -47 4
-48 65 0z m-706 70 c0 -5 -4 -10 -10 -10 -5 0 -10 5 -10 10 0 6 5 10 10 10 6
0 10 -4 10 -10z m705 -10 c-4 -11 -2 -20 4 -20 6 0 11 -6 11 -13 0 -8 -7 -14
-15 -14 -15 0 -20 23 -9 51 9 23 16 20 9 -4z m162 -12 c-3 -7 -5 -2 -5 12 0
14 2 19 5 13 2 -7 2 -19 0 -25z m303 -13 c0 -35 -4 -45 -16 -45 -13 0 -14 3
-5 13 6 8 8 17 5 20 -7 7 3 57 11 57 3 0 5 -20 5 -45z m130 3 c0 -49 -5 -47
-13 5 -3 20 -2 37 4 37 5 0 9 -19 9 -42z m-1857 12 c-3 -12 -8 -19 -11 -16 -5
6 5 36 12 36 2 0 2 -9 -1 -20z m95 -10 c6 0 13 6 16 13 3 6 3 2 0 -11 -3 -12
-2 -22 3 -21 4 1 11 0 16 -1 4 -1 12 -3 19 -4 6 0 13 -7 16 -13 3 -10 -15 -13
-66 -13 -47 0 -72 -4 -75 -12 -2 -7 -8 -10 -12 -6 -4 4 4 20 18 34 15 15 24
30 21 35 -3 5 -2 14 2 21 5 8 11 6 19 -5 7 -10 17 -17 23 -17z m129 8 c-3 -8
-6 -5 -6 6 -1 11 2 17 5 13 3 -3 4 -12 1 -19z m107 -5 c-5 -65 -6 -67 -15 -33
-9 36 -5 60 9 60 4 0 7 -12 6 -27z m576 6 c0 -11 -4 -17 -10 -14 -5 3 -10 13
-10 21 0 8 5 14 10 14 6 0 10 -9 10 -21z m117 -1 c-3 -8 -6 -5 -6 6 -1 11 2
17 5 13 3 -3 4 -12 1 -19z m110 0 c-3 -8 -6 -5 -6 6 -1 11 2 17 5 13 3 -3 4
-12 1 -19z m380 0 c-3 -8 -6 -5 -6 6 -1 11 2 17 5 13 3 -3 4 -12 1 -19z
m-1677 -21 c0 -5 -4 -5 -10 -2 -5 3 -10 14 -10 23 0 15 2 15 10 2 5 -8 10 -19
10 -23z m317 11 c-3 -8 -6 -5 -6 6 -1 11 2 17 5 13 3 -3 4 -12 1 -19z m132 0
c12 -15 11 -18 -3 -18 -10 0 -16 8 -16 22 0 12 1 19 3 17 1 -2 9 -12 16 -21z
m1038 -15 c-3 -10 -5 -4 -5 12 0 17 2 24 5 18 2 -7 2 -21 0 -30z m223 27 c0
-5 -4 -10 -10 -10 -5 0 -10 5 -10 10 0 6 5 10 10 10 6 0 10 -4 10 -10z m-1873
-16 c-3 -3 -12 -4 -19 -1 -8 3 -5 6 6 6 11 1 17 -2 13 -5z m723 -4 c0 -5 -2
-10 -4 -10 -3 0 -8 5 -11 10 -3 6 -1 10 4 10 6 0 11 -4 11 -10z m1204 -5 c-4
-8 -8 -15 -10 -15 -2 0 -4 7 -4 15 0 8 4 15 10 15 5 0 7 -7 4 -15z m-183 -18
c-10 -9 -11 -8 -5 6 3 10 9 15 12 12 3 -3 0 -11 -7 -18z m336 -9 c-3 -7 -5 -2
-5 12 0 14 2 19 5 13 2 -7 2 -19 0 -25z m-857 2 c9 -6 10 -10 3 -10 -6 0 -18
-3 -27 -6 -11 -4 -16 -1 -16 10 0 18 17 21 40 6z m180 -10 c0 -5 -8 -10 -17
-10 -15 0 -16 2 -3 10 19 12 20 12 20 0z m587 4 c-3 -3 -12 -4 -19 -1 -8 3 -5
6 6 6 11 1 17 -2 13 -5z m-1682 -14 c3 -6 -4 -10 -17 -10 -18 0 -20 2 -8 10
19 12 18 12 25 0z m1038 3 c-7 -2 -19 -2 -25 0 -7 3 -2 5 12 5 14 0 19 -2 13
-5z m-993 -62 l245 -7 -226 -8 c-125 -5 -246 -6 -270 -2 -24 3 -72 6 -106 5
-36 0 -63 4 -63 10 0 5 -17 12 -37 14 -21 2 18 2 87 0 69 -3 235 -8 370 -12z"/>
<path d="M3580 611 c0 -5 7 -12 16 -15 14 -5 15 -4 4 9 -14 17 -20 19 -20 6z"/>
<path d="M3581 564 c0 -11 3 -14 6 -6 3 7 2 16 -1 19 -3 4 -6 -2 -5 -13z"/>
<path d="M3580 499 c0 -11 5 -17 10 -14 6 3 10 13 10 21 0 8 -4 14 -10 14 -5
0 -10 -9 -10 -21z"/>
<path d="M1740 260 c0 -5 5 -10 11 -10 5 0 7 5 4 10 -3 6 -8 10 -11 10 -2 0
-4 -4 -4 -10z"/>
<path d="M1778 253 c6 -2 18 -2 25 0 6 3 1 5 -13 5 -14 0 -19 -2 -12 -5z"/>
<path d="M1385 1410 c-3 -5 -1 -10 4 -10 6 0 11 5 11 10 0 6 -2 10 -4 10 -3 0
-8 -4 -11 -10z"/>
<path d="M1505 1410 c-3 -5 1 -10 10 -10 9 0 13 5 10 10 -3 6 -8 10 -10 10 -2
0 -7 -4 -10 -10z"/>
<path d="M2801 1394 c0 -11 3 -14 6 -6 3 7 2 16 -1 19 -3 4 -6 -2 -5 -13z"/>
<path d="M2831 1394 c0 -11 3 -14 6 -6 3 7 2 16 -1 19 -3 4 -6 -2 -5 -13z"/>
<path d="M2881 1394 c0 -11 3 -14 6 -6 3 7 2 16 -1 19 -3 4 -6 -2 -5 -13z"/>
<path d="M3747 1390 c3 -11 8 -20 12 -20 4 0 7 9 7 20 0 11 -6 20 -12 20 -7 0
-10 -8 -7 -20z"/>
<path d="M3680 1390 c0 -5 5 -10 10 -10 6 0 10 5 10 10 0 6 -4 10 -10 10 -5 0
-10 -4 -10 -10z"/>
<path d="M4020 1390 c0 -5 5 -10 10 -10 6 0 10 5 10 10 0 6 -4 10 -10 10 -5 0
-10 -4 -10 -10z"/>
<path d="M3195 1370 c28 -4 54 -3 60 1 5 5 -16 8 -50 8 l-60 -2 50 -7z"/>
<path d="M4062 1360 c7 -11 16 -20 20 -20 5 0 8 9 8 20 0 13 -7 20 -20 20 -18
0 -19 -2 -8 -20z"/>
<path d="M1418 1363 c7 -3 16 -2 19 1 4 3 -2 6 -13 5 -11 0 -14 -3 -6 -6z"/>
<path d="M1410 1336 c0 -9 7 -16 16 -16 17 0 14 22 -4 28 -7 2 -12 -3 -12 -12z"/>
<path d="M1380 1330 c0 -5 5 -10 10 -10 6 0 10 5 10 10 0 6 -4 10 -10 10 -5 0
-10 -4 -10 -10z"/>
<path d="M1470 1330 c0 -5 5 -10 10 -10 6 0 10 5 10 10 0 6 -4 10 -10 10 -5 0
-10 -4 -10 -10z"/>
<path d="M3750 1330 c0 -5 5 -10 11 -10 5 0 7 5 4 10 -3 6 -8 10 -11 10 -2 0
-4 -4 -4 -10z"/>
<path d="M3993 1333 c9 -2 23 -2 30 0 6 3 -1 5 -18 5 -16 0 -22 -2 -12 -5z"/>
<path d="M1410 1296 c0 -9 7 -16 16 -16 9 0 14 5 12 12 -6 18 -28 21 -28 4z"/>
<path d="M1451 1294 c0 -11 3 -14 6 -6 3 7 2 16 -1 19 -3 4 -6 -2 -5 -13z"/>
<path d="M1505 1301 c-3 -6 -12 -8 -20 -4 -8 3 -15 0 -15 -6 0 -5 13 -9 30 -8
30 2 38 11 21 22 -5 3 -12 1 -16 -4z"/>
<path d="M3750 1277 c0 -20 4 -37 8 -37 10 0 9 57 -1 66 -4 4 -7 -9 -7 -29z"/>
<path d="M1380 1289 c0 -5 5 -7 10 -4 6 3 10 8 10 11 0 2 -4 4 -10 4 -5 0 -10
-5 -10 -11z"/>
<path d="M3671 1274 c0 -11 3 -14 6 -6 3 7 2 16 -1 19 -3 4 -6 -2 -5 -13z"/>
<path d="M1713 1265 c-7 -8 -9 -16 -4 -20 5 -3 7 -22 5 -42 -3 -23 0 -39 8
-45 10 -6 10 -8 1 -8 -7 0 -13 -7 -13 -15 0 -8 5 -15 12 -15 9 0 9 -3 0 -12
-7 -7 -12 -22 -12 -35 0 -18 6 -23 25 -23 30 0 31 3 8 26 -16 15 -16 17 0 29
12 9 14 14 5 23 -9 9 -9 12 3 12 12 0 12 2 -1 10 -9 6 -10 10 -3 10 17 0 11
54 -7 62 -12 5 -10 7 5 8 19 1 18 2 -2 10 -15 6 -21 15 -17 25 7 19 3 19 -13
0z"/>
<path d="M1380 1260 c0 -5 5 -10 10 -10 6 0 10 5 10 10 0 6 -4 10 -10 10 -5 0
-10 -4 -10 -10z"/>
<path d="M1415 1260 c3 -5 10 -10 16 -10 5 0 9 5 9 10 0 6 -7 10 -16 10 -8 0
-12 -4 -9 -10z"/>
<path d="M1470 1266 c0 -2 7 -7 16 -10 8 -3 12 -2 9 4 -6 10 -25 14 -25 6z"/>
<path d="M2801 1244 c0 -11 3 -14 6 -6 3 7 2 16 -1 19 -3 4 -6 -2 -5 -13z"/>
<path d="M4005 1241 c35 -8 113 -7 122 3 3 3 -29 6 -73 5 -54 -1 -70 -3 -49
-8z"/>
<path d="M1410 1225 c0 -6 7 -12 15 -12 8 0 15 6 15 12 0 6 -7 12 -15 12 -8 0
-15 -6 -15 -12z"/>
<path d="M1451 1224 c0 -11 3 -14 6 -6 3 7 2 16 -1 19 -3 4 -6 -2 -5 -13z"/>
<path d="M1476 1225 c4 -8 10 -12 15 -9 11 6 2 24 -11 24 -5 0 -7 -7 -4 -15z"/>
<path d="M3660 1220 c-9 -6 -10 -10 -3 -10 6 0 15 5 18 10 8 12 4 12 -15 0z"/>
<path d="M3705 1220 c4 -6 11 -8 16 -5 14 9 11 15 -7 15 -8 0 -12 -5 -9 -10z"/>
<path d="M3756 1150 c5 -46 3 -60 -7 -60 -10 0 -11 -3 -3 -8 7 -4 14 -16 17
-27 2 -11 5 19 6 68 0 49 -3 87 -9 87 -5 0 -7 -25 -4 -60z"/>
<path d="M1380 1190 c0 -5 5 -10 10 -10 6 0 10 5 10 10 0 6 -4 10 -10 10 -5 0
-10 -4 -10 -10z"/>
<path d="M1410 1190 c0 -5 7 -10 15 -10 8 0 15 5 15 10 0 6 -7 10 -15 10 -8 0
-15 -4 -15 -10z"/>
<path d="M3618 1175 c-3 -14 -1 -25 3 -25 5 0 9 11 9 25 0 14 -2 25 -4 25 -2
0 -6 -11 -8 -25z"/>
<path d="M3678 1193 c7 -3 16 -2 19 1 4 3 -2 6 -13 5 -11 0 -14 -3 -6 -6z"/>
<path d="M1300 1169 c0 -47 -13 -324 -15 -327 -1 -1 -16 -4 -34 -6 -59 -7 -57
-22 4 -28 l40 -4 -3 -83 c-3 -66 -1 -82 10 -79 16 6 24 48 8 48 -6 0 -8 5 -5
10 3 6 19 10 36 10 19 0 29 5 29 15 0 10 -11 15 -35 15 -33 0 -43 8 -29 23 7
7 6 418 -1 425 -3 3 -5 -6 -5 -19z"/>
<path d="M3660 1170 c0 -5 5 -10 10 -10 6 0 10 5 10 10 0 6 -4 10 -10 10 -5 0
-10 -4 -10 -10z"/>
<path d="M3700 1170 c0 -5 5 -10 10 -10 6 0 10 5 10 10 0 6 -4 10 -10 10 -5 0
-10 -4 -10 -10z"/>
<path d="M1451 1144 c0 -11 3 -14 6 -6 3 7 2 16 -1 19 -3 4 -6 -2 -5 -13z"/>
<path d="M1513 1145 c0 -8 4 -15 9 -15 4 0 8 4 8 9 0 6 -4 12 -8 15 -5 3 -9
-1 -9 -9z"/>
<path d="M4028 1153 c6 -2 18 -2 25 0 6 3 1 5 -13 5 -14 0 -19 -2 -12 -5z"/>
<path d="M4078 1153 c7 -3 16 -2 19 1 4 3 -2 6 -13 5 -11 0 -14 -3 -6 -6z"/>
<path d="M1380 1140 c0 -5 5 -10 10 -10 6 0 10 5 10 10 0 6 -4 10 -10 10 -5 0
-10 -4 -10 -10z"/>
<path d="M1410 1140 c0 -5 7 -10 15 -10 8 0 15 5 15 10 0 6 -7 10 -15 10 -8 0
-15 -4 -15 -10z"/>
<path d="M1480 1140 c0 -5 5 -10 10 -10 6 0 10 5 10 10 0 6 -4 10 -10 10 -5 0
-10 -4 -10 -10z"/>
<path d="M2781 1134 c0 -11 3 -14 6 -6 3 7 2 16 -1 19 -3 4 -6 -2 -5 -13z"/>
<path d="M2800 1135 c0 -8 5 -15 10 -15 6 0 10 7 10 15 0 8 -4 15 -10 15 -5 0
-10 -7 -10 -15z"/>
<path d="M2831 1134 c0 -11 3 -14 6 -6 3 7 2 16 -1 19 -3 4 -6 -2 -5 -13z"/>
<path d="M2861 1134 c0 -11 3 -14 6 -6 3 7 2 16 -1 19 -3 4 -6 -2 -5 -13z"/>
<path d="M3670 1125 c-7 -9 -8 -15 -2 -15 5 0 12 7 16 15 3 8 4 15 2 15 -2 0
-9 -7 -16 -15z"/>
<path d="M3703 1108 c2 -12 8 -23 14 -25 6 -2 8 7 6 22 -6 31 -24 34 -20 3z"/>
<path d="M1380 1110 c0 -5 5 -10 10 -10 6 0 10 5 10 10 0 6 -4 10 -10 10 -5 0
-10 -4 -10 -10z"/>
<path d="M1410 1110 c0 -5 7 -10 15 -10 8 0 15 5 15 10 0 6 -7 10 -15 10 -8 0
-15 -4 -15 -10z"/>
<path d="M1480 1110 c0 -5 5 -10 11 -10 5 0 7 5 4 10 -3 6 -8 10 -11 10 -2 0
-4 -4 -4 -10z"/>
<path d="M4118 1103 c7 -3 16 -2 19 1 4 3 -2 6 -13 5 -11 0 -14 -3 -6 -6z"/>
<path d="M2800 1090 c0 -5 5 -10 10 -10 6 0 10 5 10 10 0 6 -4 10 -10 10 -5 0
-10 -4 -10 -10z"/>
<path d="M3665 1090 c4 -6 11 -8 16 -5 14 9 11 15 -7 15 -8 0 -12 -5 -9 -10z"/>
<path d="M2210 1035 c0 -30 5 -55 10 -55 6 0 10 25 10 55 0 30 -4 55 -10 55
-5 0 -10 -25 -10 -55z"/>
<path d="M3958 1083 c7 -3 16 -2 19 1 4 3 -2 6 -13 5 -11 0 -14 -3 -6 -6z"/>
<path d="M4058 1083 c7 -3 16 -2 19 1 4 3 -2 6 -13 5 -11 0 -14 -3 -6 -6z"/>
<path d="M4118 1083 c7 -3 16 -2 19 1 4 3 -2 6 -13 5 -11 0 -14 -3 -6 -6z"/>
<path d="M1385 1070 c3 -5 8 -10 11 -10 2 0 4 5 4 10 0 6 -5 10 -11 10 -5 0
-7 -4 -4 -10z"/>
<path d="M1410 1070 c0 -5 7 -10 15 -10 8 0 15 5 15 10 0 6 -7 10 -15 10 -8 0
-15 -4 -15 -10z"/>
<path d="M1515 1070 c-3 -5 -1 -10 4 -10 6 0 11 5 11 10 0 6 -2 10 -4 10 -3 0
-8 -4 -11 -10z"/>
<path d="M2540 1070 c0 -5 5 -10 11 -10 5 0 7 5 4 10 -3 6 -8 10 -11 10 -2 0
-4 -4 -4 -10z"/>
<path d="M2580 1070 c0 -5 5 -10 10 -10 6 0 10 5 10 10 0 6 -4 10 -10 10 -5 0
-10 -4 -10 -10z"/>
<path d="M3652 1053 c7 -9 7 -13 -1 -13 -18 0 -13 -17 11 -40 15 -14 18 -20 7
-20 -12 0 -12 -2 0 -9 7 -5 10 -14 7 -20 -4 -6 -1 -11 7 -11 16 0 11 61 -7 72
-14 9 -15 41 -1 50 5 4 0 6 -12 5 -17 -1 -19 -4 -11 -14z"/>
<path d="M3703 1058 c1 -7 -3 -12 -10 -11 -6 1 -14 -4 -17 -12 -4 -12 -1 -12
19 -3 24 11 35 38 15 38 -5 0 -9 -6 -7 -12z"/>
<path d="M3988 1063 c7 -3 16 -2 19 1 4 3 -2 6 -13 5 -11 0 -14 -3 -6 -6z"/>
<path d="M2800 1050 c0 -5 5 -10 10 -10 6 0 10 5 10 10 0 6 -4 10 -10 10 -5 0
-10 -4 -10 -10z"/>
<path d="M2861 1044 c0 -11 3 -14 6 -6 3 7 2 16 -1 19 -3 4 -6 -2 -5 -13z"/>
<path d="M4108 1053 c7 -3 16 -2 19 1 4 3 -2 6 -13 5 -11 0 -14 -3 -6 -6z"/>
<path d="M1385 1040 c-3 -5 -1 -10 4 -10 6 0 11 5 11 10 0 6 -2 10 -4 10 -3 0
-8 -4 -11 -10z"/>
<path d="M1413 1035 c0 -8 7 -15 15 -15 7 0 12 5 10 12 -6 18 -25 21 -25 3z"/>
<path d="M1451 1034 c0 -11 3 -14 6 -6 3 7 2 16 -1 19 -3 4 -6 -2 -5 -13z"/>
<path d="M1475 1040 c3 -5 8 -10 11 -10 2 0 4 5 4 10 0 6 -5 10 -11 10 -5 0
-7 -4 -4 -10z"/>
<path d="M1515 1040 c3 -5 8 -10 11 -10 2 0 4 5 4 10 0 6 -5 10 -11 10 -5 0
-7 -4 -4 -10z"/>
<path d="M2020 1039 c0 -5 5 -7 10 -4 6 3 10 8 10 11 0 2 -4 4 -10 4 -5 0 -10
-5 -10 -11z"/>
<path d="M1700 1014 c0 -20 4 -25 16 -20 9 3 20 6 25 6 5 0 9 9 9 20 0 15 -7
20 -25 20 -20 0 -25 -5 -25 -26z"/>
<path d="M4103 1033 c9 -2 23 -2 30 0 6 3 -1 5 -18 5 -16 0 -22 -2 -12 -5z"/>
<path d="M1259 1028 c0 -2 -3 -23 -6 -47 -3 -24 -14 -52 -25 -63 -11 -11 -17
-23 -13 -26 4 -4 11 1 16 10 5 10 17 14 29 11 18 -5 20 0 20 56 0 34 -4 61
-10 61 -5 0 -10 -1 -11 -2z"/>
<path d="M4047 1013 c18 -2 50 -2 70 0 21 2 7 4 -32 4 -38 0 -55 -2 -38 -4z"/>
<path d="M1380 1000 c0 -5 5 -10 10 -10 6 0 10 5 10 10 0 6 -4 10 -10 10 -5 0
-10 -4 -10 -10z"/>
<path d="M1415 1000 c3 -5 10 -10 16 -10 5 0 9 5 9 10 0 6 -7 10 -16 10 -8 0
-12 -4 -9 -10z"/>
<path d="M1515 1000 c-3 -5 -1 -10 4 -10 6 0 11 5 11 10 0 6 -2 10 -4 10 -3 0
-8 -4 -11 -10z"/>
<path d="M3620 1000 c0 -5 5 -10 11 -10 5 0 7 5 4 10 -3 6 -8 10 -11 10 -2 0
-4 -4 -4 -10z"/>
<path d="M3704 995 c-3 -8 -1 -22 5 -32 8 -14 11 -15 12 -3 1 8 1 18 0 22 0 4
6 5 14 2 9 -4 15 0 15 8 0 18 -40 21 -46 3z"/>
<path d="M1452 960 c0 -14 2 -19 5 -12 2 6 2 18 0 25 -3 6 -5 1 -5 -13z"/>
<path d="M1480 960 c0 -11 5 -20 10 -20 6 0 10 9 10 20 0 11 -4 20 -10 20 -5
0 -10 -9 -10 -20z"/>
<path d="M1514 969 c-3 -6 -1 -16 5 -22 8 -8 11 -5 11 11 0 24 -5 28 -16 11z"/>
<path d="M2080 954 c-12 -32 -4 -50 16 -33 16 13 19 59 4 59 -6 0 -15 -12 -20
-26z"/>
<path d="M1131 954 c0 -11 3 -14 6 -6 3 7 2 16 -1 19 -3 4 -6 -2 -5 -13z"/>
<path d="M1231 954 c0 -11 3 -14 6 -6 3 7 2 16 -1 19 -3 4 -6 -2 -5 -13z"/>
<path d="M1380 955 c0 -8 5 -15 10 -15 6 0 10 7 10 15 0 8 -4 15 -10 15 -5 0
-10 -7 -10 -15z"/>
<path d="M1410 955 c0 -8 7 -15 15 -15 8 0 15 7 15 15 0 8 -7 15 -15 15 -8 0
-15 -7 -15 -15z"/>
<path d="M2126 955 c-3 -8 -1 -15 4 -15 6 0 10 7 10 15 0 8 -2 15 -4 15 -2 0
-6 -7 -10 -15z"/>
<path d="M2210 935 c0 -19 4 -35 8 -35 4 0 8 16 9 35 1 19 -3 35 -8 35 -5 0
-9 -16 -9 -35z"/>
<path d="M2751 954 c0 -11 3 -14 6 -6 3 7 2 16 -1 19 -3 4 -6 -2 -5 -13z"/>
<path d="M2781 954 c0 -11 3 -14 6 -6 3 7 2 16 -1 19 -3 4 -6 -2 -5 -13z"/>
<path d="M2811 954 c0 -11 3 -14 6 -6 3 7 2 16 -1 19 -3 4 -6 -2 -5 -13z"/>
<path d="M2831 954 c0 -11 3 -14 6 -6 3 7 2 16 -1 19 -3 4 -6 -2 -5 -13z"/>
<path d="M2861 954 c0 -11 3 -14 6 -6 3 7 2 16 -1 19 -3 4 -6 -2 -5 -13z"/>
<path d="M2881 954 c0 -11 3 -14 6 -6 3 7 2 16 -1 19 -3 4 -6 -2 -5 -13z"/>
<path d="M4110 960 c0 -5 5 -10 10 -10 6 0 10 5 10 10 0 6 -4 10 -10 10 -5 0
-10 -4 -10 -10z"/>
<path d="M2159 948 c-6 -21 -5 -39 2 -44 5 -3 9 6 9 20 0 21 -7 36 -11 24z"/>
<path d="M3770 920 c0 -11 5 -20 10 -20 6 0 10 9 10 20 0 11 -4 20 -10 20 -5
0 -10 -9 -10 -20z"/>
<path d="M1385 920 c-3 -5 -1 -10 4 -10 6 0 11 5 11 10 0 6 -2 10 -4 10 -3 0
-8 -4 -11 -10z"/>
<path d="M1410 918 c0 -4 7 -8 15 -8 8 0 15 4 15 8 0 5 -7 9 -15 9 -8 0 -15
-4 -15 -9z"/>
<path d="M1451 914 c0 -11 3 -14 6 -6 3 7 2 16 -1 19 -3 4 -6 -2 -5 -13z"/>
<path d="M1480 915 c0 -8 5 -15 10 -15 6 0 10 7 10 15 0 8 -4 15 -10 15 -5 0
-10 -7 -10 -15z"/>
<path d="M1521 914 c0 -11 3 -14 6 -6 3 7 2 16 -1 19 -3 4 -6 -2 -5 -13z"/>
<path d="M1830 919 c0 -5 5 -7 10 -4 6 3 10 8 10 11 0 2 -4 4 -10 4 -5 0 -10
-5 -10 -11z"/>
<path d="M2120 915 c0 -8 5 -15 10 -15 6 0 10 7 10 15 0 8 -4 15 -10 15 -5 0
-10 -7 -10 -15z"/>
<path d="M3655 920 c3 -5 8 -10 11 -10 2 0 4 5 4 10 0 6 -5 10 -11 10 -5 0 -7
-4 -4 -10z"/>
<path d="M2751 904 c0 -11 3 -14 6 -6 3 7 2 16 -1 19 -3 4 -6 -2 -5 -13z"/>
<path d="M1380 880 c0 -5 5 -10 10 -10 6 0 10 5 10 10 0 6 -4 10 -10 10 -5 0
-10 -4 -10 -10z"/>
<path d="M1410 880 c0 -5 7 -10 15 -10 8 0 15 5 15 10 0 6 -7 10 -15 10 -8 0
-15 -4 -15 -10z"/>
<path d="M1480 879 c0 -5 5 -7 10 -4 6 3 10 8 10 11 0 2 -4 4 -10 4 -5 0 -10
-5 -10 -11z"/>
<path d="M2200 790 c0 -93 1 -100 20 -100 17 0 20 7 20 45 0 39 3 45 25 51 22
6 25 11 25 55 l0 49 -45 0 -45 0 0 -100z"/>
<path d="M3600 880 c0 -5 5 -10 11 -10 5 0 7 5 4 10 -3 6 -8 10 -11 10 -2 0
-4 -4 -4 -10z"/>
<path d="M3655 881 c-3 -5 -1 -12 5 -16 5 -3 10 1 10 9 0 18 -6 21 -15 7z"/>
<path d="M3770 871 c0 -6 5 -13 10 -16 6 -3 10 1 10 9 0 9 -4 16 -10 16 -5 0
-10 -4 -10 -9z"/>
<path d="M1385 851 c-3 -5 -1 -12 5 -16 5 -3 10 1 10 9 0 18 -6 21 -15 7z"/>
<path d="M1410 851 c0 -5 7 -11 15 -15 9 -3 15 0 15 9 0 8 -7 15 -15 15 -8 0
-15 -4 -15 -9z"/>
<path d="M1480 850 c0 -5 5 -10 10 -10 6 0 10 5 10 10 0 6 -4 10 -10 10 -5 0
-10 -4 -10 -10z"/>
<path d="M1521 844 c0 -11 3 -14 6 -6 3 7 2 16 -1 19 -3 4 -6 -2 -5 -13z"/>
<path d="M2080 840 c0 -5 5 -10 10 -10 6 0 10 5 10 10 0 6 -4 10 -10 10 -5 0
-10 -4 -10 -10z"/>
<path d="M2150 840 c0 -5 5 -10 10 -10 6 0 10 5 10 10 0 6 -4 10 -10 10 -5 0
-10 -4 -10 -10z"/>
<path d="M3602 835 c2 -28 38 -28 38 0 0 17 -2 17 -10 5 -9 -13 -11 -13 -20 0
-7 12 -9 11 -8 -5z"/>
<path d="M2780 832 c0 -4 9 -8 20 -9 11 -1 20 2 20 5 0 4 -9 8 -20 9 -11 1
-20 -2 -20 -5z"/>
<path d="M3201 824 c0 -11 3 -14 6 -6 3 7 2 16 -1 19 -3 4 -6 -2 -5 -13z"/>
<path d="M3661 824 c0 -11 3 -14 6 -6 3 7 2 16 -1 19 -3 4 -6 -2 -5 -13z"/>
<path d="M3280 819 c0 -5 9 -9 20 -9 11 0 20 4 20 8 0 4 -9 8 -20 9 -11 1 -20
-2 -20 -8z"/>
<path d="M3770 815 c0 -8 7 -15 15 -15 8 0 15 7 15 15 0 8 -7 15 -15 15 -8 0
-15 -7 -15 -15z"/>
<path d="M1380 799 c0 -11 5 -17 10 -14 6 3 10 13 10 21 0 8 -4 14 -10 14 -5
0 -10 -9 -10 -21z"/>
<path d="M1412 808 c6 -18 28 -21 28 -4 0 9 -7 16 -16 16 -9 0 -14 -5 -12 -12z"/>
<path d="M1451 804 c0 -11 3 -14 6 -6 3 7 2 16 -1 19 -3 4 -6 -2 -5 -13z"/>
<path d="M1480 800 c0 -11 5 -20 10 -20 6 0 10 9 10 20 0 11 -4 20 -10 20 -5
0 -10 -9 -10 -20z"/>
<path d="M3238 813 c7 -3 16 -2 19 1 4 3 -2 6 -13 5 -11 0 -14 -3 -6 -6z"/>
<path d="M1510 803 c0 -5 5 -15 10 -23 7 -12 9 -10 7 8 -1 19 -17 33 -17 15z"/>
<path d="M2080 800 c0 -5 5 -10 10 -10 6 0 10 5 10 10 0 6 -4 10 -10 10 -5 0
-10 -4 -10 -10z"/>
<path d="M2120 800 c0 -5 5 -10 11 -10 5 0 7 5 4 10 -3 6 -8 10 -11 10 -2 0
-4 -4 -4 -10z"/>
<path d="M2160 796 c0 -7 7 -13 15 -13 8 0 15 4 15 8 0 4 -7 9 -15 13 -9 3
-15 0 -15 -8z"/>
<path d="M2830 801 c0 -5 5 -13 10 -16 6 -3 10 -2 10 4 0 5 -4 13 -10 16 -5 3
-10 2 -10 -4z"/>
<path d="M2300 796 c0 -2 9 -6 20 -9 11 -3 20 -1 20 4 0 5 -9 9 -20 9 -11 0
-20 -2 -20 -4z"/>
<path d="M2800 790 c0 -5 5 -10 10 -10 6 0 10 5 10 10 0 6 -4 10 -10 10 -5 0
-10 -4 -10 -10z"/>
<path d="M3100 780 c0 -5 7 -7 15 -4 8 4 15 8 15 10 0 2 -7 4 -15 4 -8 0 -15
-4 -15 -10z"/>
<path d="M3288 783 c7 -3 16 -2 19 1 4 3 -2 6 -13 5 -11 0 -14 -3 -6 -6z"/>
<path d="M3770 760 c0 -11 7 -20 15 -20 17 0 18 2 9 24 -9 23 -24 20 -24 -4z"/>
<path d="M2120 755 c0 -8 5 -15 10 -15 6 0 10 7 10 15 0 8 -4 15 -10 15 -5 0
-10 -7 -10 -15z"/>
<path d="M2160 755 c0 -8 7 -15 15 -15 8 0 15 4 15 9 0 5 -7 11 -15 15 -9 3
-15 0 -15 -9z"/>
<path d="M2861 754 c0 -11 3 -14 6 -6 3 7 2 16 -1 19 -3 4 -6 -2 -5 -13z"/>
<path d="M3600 756 c0 -9 5 -16 10 -16 6 0 10 4 10 9 0 6 -4 13 -10 16 -5 3
-10 -1 -10 -9z"/>
<path d="M3656 755 c4 -8 8 -15 10 -15 2 0 4 7 4 15 0 8 -4 15 -10 15 -5 0 -7
-7 -4 -15z"/>
<path d="M2810 745 c0 -8 -9 -15 -20 -15 -18 0 -20 -7 -20 -75 0 -64 2 -74 16
-68 9 3 14 13 11 23 -2 10 -1 24 4 31 6 10 9 11 9 2 0 -8 13 -13 30 -13 29 0
30 1 30 50 0 28 -4 50 -10 50 -5 0 -10 7 -10 15 0 8 -9 15 -20 15 -11 0 -20
-7 -20 -15z"/>
<path d="M3170 744 c0 -8 5 -12 10 -9 6 3 10 10 10 16 0 5 -4 9 -10 9 -5 0
-10 -7 -10 -16z"/>
<path d="M3240 735 c0 -33 15 -33 16 0 1 14 -2 25 -7 25 -5 0 -9 -11 -9 -25z"/>
<path d="M3280 750 c0 -5 9 -10 20 -10 11 0 20 5 20 10 0 6 -9 10 -20 10 -11
0 -20 -4 -20 -10z"/>
<path d="M3560 745 c0 -8 4 -15 10 -15 5 0 7 7 4 15 -4 8 -8 15 -10 15 -2 0
-4 -7 -4 -15z"/>
<path d="M1386 726 c3 -9 11 -16 16 -16 13 0 5 23 -10 28 -7 2 -10 -2 -6 -12z"/>
<path d="M1510 730 c0 -5 5 -10 10 -10 6 0 10 5 10 10 0 6 -4 10 -10 10 -5 0
-10 -4 -10 -10z"/>
<path d="M1100 716 c0 -9 7 -16 16 -16 9 0 14 5 12 12 -6 18 -28 21 -28 4z"/>
<path d="M1150 715 c0 -8 5 -15 10 -15 6 0 10 7 10 15 0 8 -4 15 -10 15 -5 0
-10 -7 -10 -15z"/>
<path d="M1200 715 c0 -8 5 -15 10 -15 6 0 10 7 10 15 0 8 -4 15 -10 15 -5 0
-10 -7 -10 -15z"/>
<path d="M1420 716 c0 -6 9 -12 20 -12 11 0 20 3 20 7 0 4 -9 9 -20 12 -12 3
-20 0 -20 -7z"/>
<path d="M1240 709 c0 -5 5 -7 10 -4 6 3 10 8 10 11 0 2 -4 4 -10 4 -5 0 -10
-5 -10 -11z"/>
<path d="M2120 704 c0 -8 5 -12 10 -9 6 3 10 10 10 16 0 5 -4 9 -10 9 -5 0
-10 -7 -10 -16z"/>
<path d="M2157 706 c-3 -8 0 -17 7 -19 10 -4 12 1 9 14 -6 23 -9 24 -16 5z"/>
<path d="M3288 713 c7 -3 16 -2 19 1 4 3 -2 6 -13 5 -11 0 -14 -3 -6 -6z"/>
<path d="M3650 711 c0 -6 5 -13 10 -16 6 -3 10 1 10 9 0 9 -4 16 -10 16 -5 0
-10 -4 -10 -9z"/>
<path d="M3770 700 c0 -13 5 -18 15 -14 8 4 15 12 15 20 0 8 -7 14 -15 14 -8
0 -15 -9 -15 -20z"/>
<path d="M2340 690 c20 -13 47 -13 55 0 4 6 -9 10 -32 10 -28 0 -34 -3 -23
-10z"/>
<path d="M2990 687 c0 -7 9 -13 20 -14 11 -1 20 4 20 13 0 8 -9 14 -20 14 -11
0 -20 -6 -20 -13z"/>
<path d="M3050 685 c0 -8 7 -15 15 -15 8 0 15 7 15 15 0 8 -7 15 -15 15 -8 0
-15 -7 -15 -15z"/>
<path d="M3280 690 c0 -5 9 -10 20 -10 11 0 20 5 20 10 0 6 -9 10 -20 10 -11
0 -20 -4 -20 -10z"/>
<path d="M1069 675 c0 -11 -3 -14 -6 -7 -6 15 -25 15 -58 0 -17 -7 -22 -14
-14 -19 19 -11 2 -42 -18 -35 -10 4 -14 4 -10 0 12 -12 -14 -36 -27 -25 -8 7
-16 4 -24 -9 -11 -18 -9 -20 13 -18 14 1 25 6 25 10 0 4 4 8 8 8 5 0 9 -15 9
-32 0 -18 -2 -25 -4 -15 -6 25 -23 21 -24 -5 0 -16 -2 -18 -6 -8 -17 43 -72
34 -58 -9 5 -17 10 -19 20 -11 9 8 14 6 19 -5 3 -9 2 -13 -4 -10 -6 3 -10 -5
-10 -19 0 -14 5 -26 10 -26 6 0 10 5 10 11 0 5 5 7 10 4 6 -4 17 -1 25 5 13
11 15 6 15 -28 0 -45 8 -72 21 -72 5 0 6 23 3 50 -5 41 -3 50 9 50 8 0 17 6
20 13 2 7 8 8 13 3 5 -5 4 -11 -3 -13 -19 -7 -16 -20 5 -25 16 -5 18 -12 12
-57 -6 -47 -5 -51 14 -51 16 0 17 3 8 9 -10 6 -7 10 12 15 14 3 26 11 26 16 0
6 4 10 10 10 5 0 7 -7 4 -15 -4 -8 -1 -15 5 -15 7 0 12 23 12 58 1 31 3 46 6
32 14 -95 11 -90 51 -90 20 0 44 5 52 11 13 9 12 10 -3 5 -21 -7 -40 33 -38
79 5 81 7 94 14 101 13 13 7 24 -13 24 -13 0 -18 -5 -14 -15 4 -10 0 -15 -16
-15 -16 0 -20 -4 -15 -19 3 -10 -1 -23 -9 -30 -17 -14 -25 -4 -19 24 3 11 6
30 7 42 1 16 4 19 14 11 9 -8 12 -5 12 12 0 17 -4 21 -20 17 -10 -3 -21 0 -22
5 -3 7 -12 6 -25 -3 -18 -11 -24 -11 -38 1 -9 7 -15 9 -14 4 4 -21 -2 -32 -19
-36 -13 -4 -18 1 -20 18 -2 30 34 56 67 47 16 -4 19 -8 10 -14 -8 -4 -10 -11
-6 -15 9 -9 17 -2 21 22 3 11 7 27 11 37 6 13 3 16 -10 11 -10 -4 -21 -1 -26
7 -7 11 -9 10 -10 -6z m-74 -85 c-3 -5 -10 -10 -16 -10 -5 0 -9 5 -9 10 0 6 7
10 16 10 8 0 12 -4 9 -10z m90 -20 c3 -6 -1 -7 -9 -4 -18 7 -21 14 -7 14 6 0
13 -4 16 -10z m-95 -69 c0 -5 -13 -11 -30 -13 -16 -3 -30 -1 -30 3 0 7 10 10
53 18 4 0 7 -3 7 -8z"/>
<path d="M1203 683 c-18 -7 -16 -23 2 -23 8 0 15 7 15 15 0 8 -1 15 -2 14 -2
0 -9 -3 -15 -6z"/>
<path d="M1330 670 c0 -11 5 -20 10 -20 6 0 10 9 10 20 0 11 -4 20 -10 20 -5
0 -10 -9 -10 -20z"/>
<path d="M1150 670 c0 -5 5 -10 10 -10 6 0 10 5 10 10 0 6 -4 10 -10 10 -5 0
-10 -4 -10 -10z"/>
<path d="M2250 666 c0 -9 5 -16 10 -16 6 0 10 4 10 9 0 6 -4 13 -10 16 -5 3
-10 -1 -10 -9z"/>
<path d="M3655 670 c3 -5 8 -10 11 -10 2 0 4 5 4 10 0 6 -5 10 -11 10 -5 0 -7
-4 -4 -10z"/>
<path d="M2120 659 c0 -5 5 -7 10 -4 6 3 10 8 10 11 0 2 -4 4 -10 4 -5 0 -10
-5 -10 -11z"/>
<path d="M2155 660 c3 -5 8 -10 11 -10 2 0 4 5 4 10 0 6 -5 10 -11 10 -5 0 -7
-4 -4 -10z"/>
<path d="M2350 656 c0 -24 17 -28 23 -6 3 13 0 20 -9 20 -8 0 -14 -6 -14 -14z"/>
<path d="M3770 645 c0 -14 4 -25 9 -25 5 0 9 11 9 25 0 14 -4 25 -9 25 -5 0
-9 -11 -9 -25z"/>
<path d="M2625 650 c-3 -5 -1 -10 4 -10 6 0 11 5 11 10 0 6 -2 10 -4 10 -3 0
-8 -4 -11 -10z"/>
<path d="M3288 653 c7 -3 16 -2 19 1 4 3 -2 6 -13 5 -11 0 -14 -3 -6 -6z"/>
<path d="M1150 624 c0 -8 5 -12 10 -9 6 3 10 10 10 16 0 5 -4 9 -10 9 -5 0
-10 -7 -10 -16z"/>
<path d="M1190 630 c0 -5 6 -9 13 -7 6 1 11 -6 9 -15 -2 -12 2 -16 12 -12 12
5 13 9 3 25 -12 20 -37 26 -37 9z"/>
<path d="M1292 613 c2 -9 10 -18 18 -20 13 -4 13 -3 0 6 -13 10 -13 12 0 21
13 8 12 10 -3 10 -12 0 -17 -6 -15 -17z"/>
<path d="M2150 620 c0 -5 7 -10 15 -10 8 0 15 5 15 10 0 6 -7 10 -15 10 -8 0
-15 -4 -15 -10z"/>
<path d="M2200 620 c0 -5 5 -10 10 -10 6 0 10 5 10 10 0 6 -4 10 -10 10 -5 0
-10 -4 -10 -10z"/>
<path d="M2250 620 c0 -5 5 -10 10 -10 6 0 10 5 10 10 0 6 -4 10 -10 10 -5 0
-10 -4 -10 -10z"/>
<path d="M2441 614 c0 -11 3 -14 6 -6 3 7 2 16 -1 19 -3 4 -6 -2 -5 -13z"/>
<path d="M2894 621 c3 -4 24 -8 46 -8 22 0 40 4 40 8 0 5 -21 9 -46 9 -25 0
-43 -4 -40 -9z"/>
<path d="M3000 620 c0 -5 7 -10 15 -10 8 0 15 5 15 10 0 6 -7 10 -15 10 -8 0
-15 -4 -15 -10z"/>
<path d="M3050 620 c0 -5 5 -10 10 -10 6 0 10 5 10 10 0 6 -4 10 -10 10 -5 0
-10 -4 -10 -10z"/>
<path d="M3080 620 c0 -5 5 -10 10 -10 6 0 10 5 10 10 0 6 -4 10 -10 10 -5 0
-10 -4 -10 -10z"/>
<path d="M1626 603 c-6 -14 -5 -15 5 -6 7 7 10 15 7 18 -3 3 -9 -2 -12 -12z"/>
<path d="M2354 550 c-1 -38 3 -70 7 -70 10 0 10 1 12 82 1 34 -2 58 -8 58 -6
0 -11 -30 -11 -70z"/>
<path d="M2470 610 c0 -5 5 -10 10 -10 6 0 10 5 10 10 0 6 -4 10 -10 10 -5 0
-10 -4 -10 -10z"/>
<path d="M2620 610 c0 -5 5 -10 10 -10 6 0 10 5 10 10 0 6 -4 10 -10 10 -5 0
-10 -4 -10 -10z"/>
<path d="M2650 610 c0 -5 5 -10 10 -10 6 0 10 5 10 10 0 6 -4 10 -10 10 -5 0
-10 -4 -10 -10z"/>
<path d="M2730 610 c0 -5 5 -10 11 -10 5 0 7 5 4 10 -3 6 -8 10 -11 10 -2 0
-4 -4 -4 -10z"/>
<path d="M3400 609 c0 -4 7 -9 15 -13 9 -3 15 0 15 8 0 7 -7 13 -15 13 -8 0
-15 -4 -15 -8z"/>
<path d="M3481 604 c0 -11 3 -14 6 -6 3 7 2 16 -1 19 -3 4 -6 -2 -5 -13z"/>
<path d="M1573 595 c0 -8 4 -12 9 -9 5 3 6 10 3 15 -9 13 -12 11 -12 -6z"/>
<path d="M3770 600 c0 -5 5 -10 10 -10 6 0 10 5 10 10 0 6 -4 10 -10 10 -5 0
-10 -4 -10 -10z"/>
<path d="M2900 590 c8 -5 20 -10 25 -10 6 0 3 5 -5 10 -8 5 -19 10 -25 10 -5
0 -3 -5 5 -10z"/>
<path d="M2958 583 c7 -3 16 -2 19 1 4 3 -2 6 -13 5 -11 0 -14 -3 -6 -6z"/>
<path d="M2200 570 c0 -5 5 -10 10 -10 6 0 10 5 10 10 0 6 -4 10 -10 10 -5 0
-10 -4 -10 -10z"/>
<path d="M2250 560 c0 -11 5 -20 10 -20 6 0 10 -4 10 -10 0 -5 -7 -10 -15 -10
-8 0 -15 -6 -15 -14 0 -9 7 -12 20 -9 16 4 19 13 17 44 -2 40 -27 57 -27 19z"/>
<path d="M2625 570 c3 -5 8 -10 11 -10 2 0 4 5 4 10 0 6 -5 10 -11 10 -5 0 -7
-4 -4 -10z"/>
<path d="M2661 564 c0 -11 3 -14 6 -6 3 7 2 16 -1 19 -3 4 -6 -2 -5 -13z"/>
<path d="M3400 567 c0 -8 7 -14 15 -14 8 0 15 6 15 14 0 7 -7 13 -15 13 -8 0
-15 -6 -15 -13z"/>
<path d="M3440 565 c0 -8 5 -15 10 -15 6 0 10 7 10 15 0 8 -4 15 -10 15 -5 0
-10 -7 -10 -15z"/>
<path d="M3777 573 c-2 -5 -4 -32 -5 -61 -2 -39 1 -53 10 -50 8 3 13 24 13 57
0 48 -8 73 -18 54z"/>
<path d="M2470 560 c0 -5 5 -10 10 -10 6 0 10 5 10 10 0 6 -4 10 -10 10 -5 0
-10 -4 -10 -10z"/>
<path d="M2900 550 c0 -5 7 -10 15 -10 8 0 15 5 15 10 0 6 -7 10 -15 10 -8 0
-15 -4 -15 -10z"/>
<path d="M2950 540 c0 -11 6 -20 14 -20 9 0 14 9 13 20 -1 11 -7 20 -14 20 -7
0 -13 -9 -13 -20z"/>
<path d="M3000 540 c0 -11 5 -20 10 -20 6 0 10 9 10 20 0 11 -4 20 -10 20 -5
0 -10 -9 -10 -20z"/>
<path d="M3043 540 c-1 -11 4 -20 12 -20 8 0 13 9 12 20 -1 11 -6 20 -12 20
-6 0 -11 -9 -12 -20z"/>
<path d="M3080 540 c0 -11 5 -20 10 -20 6 0 10 9 10 20 0 11 -4 20 -10 20 -5
0 -10 -9 -10 -20z"/>
<path d="M2690 525 c0 -8 5 -15 10 -15 6 0 10 7 10 15 0 8 -4 15 -10 15 -5 0
-10 -7 -10 -15z"/>
<path d="M3403 515 c0 -15 5 -25 13 -25 8 0 14 10 14 25 0 15 -6 25 -14 25 -8
0 -13 -10 -13 -25z"/>
<path d="M2200 505 c0 -8 7 -15 15 -15 8 0 15 7 15 15 0 8 -7 15 -15 15 -8 0
-15 -7 -15 -15z"/>
<path d="M2410 509 c0 -5 5 -7 10 -4 6 3 10 8 10 11 0 2 -4 4 -10 4 -5 0 -10
-5 -10 -11z"/>
<path d="M2441 504 c0 -11 3 -14 6 -6 3 7 2 16 -1 19 -3 4 -6 -2 -5 -13z"/>
<path d="M3440 510 c0 -5 5 -10 10 -10 6 0 10 5 10 10 0 6 -4 10 -10 10 -5 0
-10 -4 -10 -10z"/>
<path d="M3480 510 c0 -5 5 -10 11 -10 5 0 7 5 4 10 -3 6 -8 10 -11 10 -2 0
-4 -4 -4 -10z"/>
<path d="M2695 490 c3 -5 8 -10 11 -10 2 0 4 5 4 10 0 6 -5 10 -11 10 -5 0 -7
-4 -4 -10z"/>
<path d="M2946 485 c4 -8 12 -15 20 -15 8 0 14 7 14 15 0 8 -9 15 -20 15 -13
0 -18 -5 -14 -15z"/>
<path d="M3000 485 c0 -8 5 -15 10 -15 6 0 10 7 10 15 0 8 -4 15 -10 15 -5 0
-10 -7 -10 -15z"/>
<path d="M3046 491 c-4 -7 -5 -15 -2 -18 9 -9 19 4 14 18 -4 11 -6 11 -12 0z"/>
<path d="M3080 475 c0 -8 5 -15 10 -15 6 0 10 7 10 15 0 8 -4 15 -10 15 -5 0
-10 -7 -10 -15z"/>
<path d="M2460 462 c0 -5 7 -9 15 -9 8 0 15 4 15 9 0 4 -7 8 -15 8 -8 0 -15
-4 -15 -8z"/>
<path d="M2200 450 c0 -5 5 -10 10 -10 6 0 10 5 10 10 0 6 -4 10 -10 10 -5 0
-10 -4 -10 -10z"/>
<path d="M3000 440 c0 -11 4 -20 9 -20 11 0 22 26 14 34 -12 12 -23 5 -23 -14z"/>
<path d="M3710 445 c0 -16 16 -20 24 -6 3 5 -1 11 -9 15 -9 3 -15 0 -15 -9z"/>
<path d="M3046 436 c3 -8 -4 -16 -18 -20 -19 -5 -20 -8 -8 -15 9 -6 19 -6 27
1 15 12 17 48 3 48 -5 0 -7 -6 -4 -14z"/>
<path d="M2350 420 c0 -5 5 -10 10 -10 6 0 10 5 10 10 0 6 -4 10 -10 10 -5 0
-10 -4 -10 -10z"/>
<path d="M2330 350 c0 -24 25 -27 34 -4 9 23 8 24 -14 24 -13 0 -20 -7 -20
-20z"/>
<path d="M1420 350 c0 -5 5 -10 11 -10 5 0 7 5 4 10 -3 6 -8 10 -11 10 -2 0
-4 -4 -4 -10z"/>
<path d="M980 340 c0 -5 5 -10 10 -10 6 0 10 5 10 10 0 6 -4 10 -10 10 -5 0
-10 -4 -10 -10z"/>
<path d="M1315 340 c-3 -5 -1 -10 4 -10 6 0 11 5 11 10 0 6 -2 10 -4 10 -3 0
-8 -4 -11 -10z"/>
<path d="M1131 324 c0 -11 3 -14 6 -6 3 7 2 16 -1 19 -3 4 -6 -2 -5 -13z"/>
<path d="M1160 326 c0 -13 11 -16 50 -16 28 0 50 5 50 10 0 6 -15 10 -34 10
-19 0 -41 3 -50 6 -11 4 -16 1 -16 -10z"/>
<path d="M1337 316 c-3 -8 1 -17 9 -20 9 -4 14 1 14 14 0 23 -15 27 -23 6z"/>
<path d="M2620 320 c0 -6 7 -18 15 -26 9 -10 15 -11 15 -4 0 6 -7 18 -15 26
-9 10 -15 11 -15 4z"/>
<path d="M2338 273 c7 -3 16 -2 19 1 4 3 -2 6 -13 5 -11 0 -14 -3 -6 -6z"/>
</g>
</svg>
