<?xml version="1.0" encoding="utf-8"?>
<!-- Generator: Adobe Illustrator 27.7.0, SVG Export Plug-In . SVG Version: 6.00 Build 0)  -->
<svg version="1.1" id="Layer_1" xmlns="http://www.w3.org/2000/svg" xmlns:xlink="http://www.w3.org/1999/xlink" x="0px" y="0px"
	 viewBox="0 0 841.89 595.28" style="enable-background:new 0 0 841.89 595.28;" xml:space="preserve">
<style type="text/css">
	.st0{fill:#15B4D6;}
</style>
<g>
	<path class="st0" d="M397.98,542.58c-0.06-1.25-0.16-2.49-0.16-3.74c-0.01-43.4,0.02-86.8-0.04-130.2
		c-0.02-12.99-0.27-25.98-0.46-38.97c-0.09-6.15-0.13-6.15-5.85-8.36c-28.24-10.91-48.25-30.26-57.83-59.01
		c-10.35-31.09-4.26-59.73,16.44-85.02c13.46-16.45,30.38-27.98,51.44-32.51c30.12-6.48,56.61,1.36,79.7,21.23
		c15.04,12.94,24.86,29.26,29.54,48.51c2.32,9.53,2.56,19.33,1.58,29.05c-3.33,33.25-22.16,56.02-49.87,72.56
		c-4.58,2.73-9.66,4.52-14.72,6.22c-1.7,0.57-2.69,1.44-2.71,3.36c-0.01,1.74-0.33,3.48-0.36,5.22
		c-0.92,55.89-0.31,111.78-0.5,167.67c0,1.33-0.11,2.66-0.16,3.99c-5.17,0-10.34,0-15.51,0c-0.04-1.33-0.13-2.66-0.13-3.99
		c-0.01-55.7-0.01-111.41-0.01-167.11c0-0.83-0.06-1.67,0.01-2.5c0.16-1.79-0.71-2.33-2.38-2.28c-2.75,0.08-5.5,0.02-8.25,0.02
		c-4.12,0-4.12,0-4.12,4.01c0,55.95,0,111.91-0.01,167.86c0,1.33-0.08,2.66-0.12,3.99C408.32,542.58,403.15,542.58,397.98,542.58z
		 M412.83,315.74c0.04,0,0.08,0,0.12,0c0-10.24-0.04-20.48,0.03-30.72c0.01-2.05-0.66-2.75-2.74-2.72c-8.33,0.09-16.67,0.1-25-0.01
		c-1.98-0.03-2.37,0.61-2.2,2.45c1.26,13.57,3.78,26.84,8.9,39.54c3.79,9.4,9.59,17.28,17.85,23.27c0.71,0.52,1.52,1.27,2.48,0.72
		c0.87-0.5,0.54-1.51,0.54-2.3C412.84,335.89,412.83,325.81,412.83,315.74z M429.05,315.39c0.04,0,0.08,0,0.12,0
		c0,10.07-0.01,20.15,0.02,30.22c0,0.94-0.47,2.2,0.67,2.71c1.02,0.46,1.9-0.43,2.68-1c5.68-4.12,10.33-9.25,13.71-15.35
		c8.23-14.87,11.14-31.21,12.74-47.88c0.18-1.88-0.89-1.77-2.13-1.76c-8.25,0.01-16.5,0.09-24.75-0.04
		c-2.44-0.04-3.13,0.76-3.1,3.14C429.11,295.4,429.05,305.4,429.05,315.39z M412.95,234.43c-0.01,0-0.02,0-0.03,0
		c0-3.74,0.02-7.49,0-11.23c-0.03-6.32-0.05-12.65-0.16-18.97c-0.02-1.2,0.26-2.88-0.85-3.45c-1.17-0.6-2.25,0.73-3.2,1.47
		c-4.94,3.8-9.07,8.37-12.23,13.71c-8.8,14.91-11.82,31.45-13.4,48.38c-0.18,1.88,0.8,2.23,2.4,2.22c8.08-0.04,16.16-0.1,24.24,0.04
		c2.48,0.04,3.34-0.64,3.3-3.22C412.87,253.73,412.95,244.08,412.95,234.43z M442.93,266.54c0-0.03,0-0.06,0-0.09
		c3.91,0,7.83,0.13,11.74-0.04c4.23-0.18,4.7-0.85,4.07-5.02c-0.76-5.01-1.52-10.02-2.39-15.01c-2.4-13.82-7.35-26.57-16.07-37.71
		c-2.38-3.04-5.15-5.64-8.64-7.42c-1.68-0.86-2.5-0.96-2.5,1.37c0.01,20.46-0.03,40.93-0.12,61.39c-0.01,2,0.78,2.6,2.67,2.55
		C435.44,266.47,439.19,266.54,442.93,266.54z M458.4,341.11c1.1,0.23,1.7-0.45,2.33-0.9c2.58-1.82,5.16-3.67,7.67-5.58
		c16.64-12.66,25.09-29.96,28.52-50.13c0.27-1.59-0.06-2.23-1.84-2.2c-5.99,0.1-11.99,0.06-17.99,0.02
		c-1.52-0.01-2.26,0.52-2.45,2.11c-0.4,3.3-0.96,6.58-1.45,9.86c-2.07,13.71-5.24,27.09-11.5,39.6
		C460.52,336.23,459.17,338.51,458.4,341.11z M383.18,341.39c0.18-0.15,0.35-0.31,0.53-0.46c-0.86-1.78-1.7-3.58-2.59-5.35
		c-4.54-8.96-7.85-18.35-9.92-28.19c-1.6-7.58-2.71-15.23-3.84-22.89c-0.2-1.33-0.58-2.18-2.12-2.18c-6.09,0-12.17-0.08-18.25,0.4
		c-1.52,0.12-2.05,0.81-1.74,2.3c0.39,1.87,0.65,3.77,1.02,5.65c2.99,15.19,10.46,27.97,21.24,38.9
		C372.14,334.27,377.57,337.99,383.18,341.39z M458.38,207.92c0.23,1.46,1,2.66,1.62,3.91c3.41,6.86,6.59,13.81,8.71,21.21
		c2.93,10.18,4.39,20.64,5.86,31.09c0.28,1.97,1.08,2.48,2.89,2.45c5.16-0.08,10.33-0.03,15.49-0.06c3.97-0.03,4.07-0.16,3.45-4.11
		c-3.66-23.51-16.15-41.13-36.01-53.81C459.83,208.21,459.28,207.53,458.38,207.92z M384.01,207.68c-0.81-0.32-1.32,0.22-1.85,0.54
		c-21.24,12.77-32.94,31.85-37.01,55.96c-0.25,1.49,0.1,2.39,1.89,2.37c6-0.05,11.99-0.04,17.99,0c1.57,0.01,2.18-0.62,2.35-2.18
		c0.39-3.55,0.94-7.08,1.46-10.62c2.19-15.1,6.27-29.59,13.88-42.94C383.27,209.85,384.07,208.93,384.01,207.68z"/>
	<path class="st0" d="M175.82,267.16c1-7.17,2.05-14.34,4.4-21.22c12.98-38.03,39.42-60.94,78.49-69.62
		c1.54-0.34,3.12-0.61,4.69-0.68c2.59-0.11,3.99-1.42,4.45-3.88c1.1-5.89,2.02-11.81,3.29-17.66c4.71-21.57,14.85-40.4,29.44-56.83
		c20.2-22.76,45.27-37.16,75.23-42.92c10.05-1.94,20.17-1.89,30.37-1.4c13.89,0.66,27.24,3.45,40.13,8.56
		c24.39,9.67,44.77,24.5,59.66,46.38c0.52,0.76,1.11,1.47,1.59,2.24c1.56,2.5,3.77,3.44,6.72,3.46c12.78,0.07,25.13,2.64,36.39,8.62
		c18.06,9.61,30.24,24.26,35.49,44.27c1.12,4.26,2.15,8.57,2.86,12.91c0.45,2.75,1.84,3.87,4.41,4.13
		c7.98,0.79,15.44,3.34,22.62,6.81c22.48,10.84,36.59,28.86,44.65,52.03c2.69,7.73,4.45,15.68,5.14,23.86
		c0.04,0.49,0.21,0.97,0.32,1.45c0,4.83,0,9.66,0,14.5c-1.02,8.28-2.43,16.49-5.46,24.29c-14.48,37.2-41.28,59.66-80.73,66.61
		c-7.28,1.28-14.77,1.21-22.19,1.2c-11.42,0-22.85-0.04-34.27,0.07c-2.36,0.02-3.3-0.64-3.16-3.09c0.18-3.24,0.18-6.5,0-9.74
		c-0.14-2.5,0.87-3.09,3.19-3.06c8.34,0.11,16.68,0.05,25.01,0.04c10.83-0.01,21.67-0.05,32.44-1.42
		c14.9-1.89,27.98-8.06,39.4-17.61c17.9-14.96,27.65-34.29,29.67-57.45c1.72-19.75-1.85-38.42-13.09-55.02
		c-11.83-17.46-28.69-26.61-49.68-28.21c-3.32-0.25-6.65-0.45-9.98-0.54c-2.38-0.06-3.3-1.01-3.35-3.49
		c-0.17-8.57-0.54-17.14-2.65-25.52c-5.23-20.75-21.86-35.48-43.23-38.38c-8.11-1.1-16.27-1.37-24.43-1.48
		c-2.2-0.03-3.46-0.75-4.52-2.7c-13.17-24.06-32.74-40.87-58.2-50.92c-10.47-4.13-21.38-6.21-32.6-7.03
		c-15.54-1.15-30.82-0.15-45.67,4.82c-34.79,11.65-58.92,34.49-72.15,68.76c-4.77,12.36-6.6,25.22-6.99,38.37
		c-0.07,2.41-0.44,4.82-0.37,7.23c0.08,2.47-1.17,2.87-3.24,2.85c-6.33-0.08-12.64,0.08-18.94,1.05
		c-34.26,5.25-62.39,32.91-68.05,67.1c-4.11,24.81,0.6,47.61,16.15,67.63c13.49,17.36,31.4,27.53,53.14,30.85
		c6.93,1.06,13.97,0.89,20.96,1.03c11.67,0.24,23.35,0.07,35.02,0.08c3.39,0,3.4,0.01,3.4,3.5c0.01,3.33-0.04,6.66,0.01,10
		c0.02,1.52-0.43,2.33-2.12,2.31c-17.5-0.15-35.08,1-52.5-0.76c-34.61-3.5-60.53-21.01-78.18-50.76
		c-7.19-12.12-11.27-25.36-12.68-39.4c-0.04-0.41-0.21-0.8-0.31-1.2C175.82,277.16,175.82,272.16,175.82,267.16z"/>
	<path class="st0" d="M666.18,512.09c-1.17,0.02-2.33,0.07-3.5,0.07c-66.37,0-132.73,0-199.1,0c-0.83,0-1.67-0.03-2.5-0.01
		c-1.46,0.03-2.17-0.64-2.12-2.11c0.02-0.67-0.01-1.33-0.01-2c0-38.31,0-76.63,0-114.94c0-4.09,0.01-4.09,4.15-4.09
		c3.17,0,6.34,0.05,9.5-0.02c1.69-0.04,2.49,0.63,2.42,2.33c-0.03,0.83,0.01,1.67,0.01,2.5c0,32.73,0,65.47,0,98.2
		c0,4.07,0,4.07,4.17,4.07c2.5,0,5.01-0.1,7.5,0.03c2.2,0.12,2.9-0.77,2.89-2.92c-0.07-12.99-0.03-25.99-0.03-38.98
		c0-4.05,0.01-4.06,3.99-4.07c2.83-0.01,5.67-0.01,8.5,0c3.48,0.02,3.58,0.13,3.59,3.71c0.01,12.83,0,25.65,0,38.48
		c0,3.73,0.01,3.74,3.71,3.74c52.28,0,104.55,0.01,156.83,0.01C666.18,501.43,666.18,506.76,666.18,512.09z"/>
	<path class="st0" d="M175.82,496.09c51.78,0,103.55,0,155.33-0.01c0.83,0,1.67-0.07,2.5,0.01c2.07,0.2,2.76-0.7,2.74-2.75
		c-0.08-8.41-0.03-16.82-0.03-25.24c0-4.91,0.09-9.83-0.04-14.74c-0.06-2.34,0.69-3.35,3.13-3.25c3.33,0.13,6.67,0.12,10,0
		c2.29-0.08,3.04,0.86,3.02,3.09c-0.07,13.08-0.03,26.15-0.03,39.23c0,3.62,0.01,3.63,3.6,3.64c2.83,0.01,5.67-0.04,8.5,0.01
		c1.66,0.03,2.52-0.59,2.42-2.33c-0.05-0.83,0-1.67,0-2.5c0-32.48,0-64.97,0.01-97.45c0-4.81,0-4.81,4.93-4.81
		c2.92,0,5.84,0.05,8.75-0.01c1.69-0.04,2.5,0.64,2.39,2.35c-0.03,0.58,0,1.17,0,1.75c0,38.31,0,76.63,0,114.94
		c0,4.11,0,4.12-4.13,4.12c-66.7,0-133.4,0-200.1,0c-1,0-2-0.04-3-0.07C175.82,506.76,175.82,501.43,175.82,496.09z"/>
	<path class="st0" d="M566.43,297.11c1.92,0,3.83,0.04,5.75-0.01c1.66-0.04,2.46,0.67,2.44,2.36c-0.03,3.83-0.03,7.65-0.01,11.48
		c0.01,1.59-0.78,2.23-2.32,2.22c-3.83-0.02-7.66-0.02-11.49,0.01c-1.56,0.01-2.28-0.64-2.27-2.24c0.04-3.91,0.03-7.82,0.01-11.73
		c-0.01-1.47,0.7-2.12,2.14-2.1C562.6,297.13,564.51,297.11,566.43,297.11z"/>
	<path class="st0" d="M336.36,427.47c0-1.83,0.05-3.66-0.01-5.49c-0.05-1.66,0.61-2.45,2.34-2.43c3.83,0.05,7.66,0.04,11.49,0.01
		c1.6-0.01,2.25,0.77,2.25,2.29c-0.01,3.83-0.01,7.65,0,11.48c0.01,1.53-0.66,2.3-2.25,2.29c-3.91-0.03-7.83-0.02-11.74,0
		c-1.47,0-2.1-0.72-2.07-2.16C336.4,431.47,336.37,429.47,336.36,427.47z"/>
	<path class="st0" d="M505.63,427.77c0,1.91-0.03,3.83,0.01,5.74c0.03,1.47-0.67,2.12-2.12,2.12c-3.91-0.02-7.83-0.02-11.74,0
		c-1.61,0.01-2.22-0.82-2.21-2.33c0.02-3.83,0.02-7.65,0.01-11.48c0-1.55,0.72-2.26,2.29-2.25c3.83,0.03,7.66,0.04,11.49-0.01
		c1.76-0.02,2.34,0.84,2.29,2.47C505.59,423.94,505.63,425.85,505.63,427.77C505.63,427.77,505.63,427.77,505.63,427.77z"/>
	<path class="st0" d="M275.54,297.1c1.83,0,3.66,0.04,5.49-0.01c1.65-0.05,2.46,0.58,2.44,2.32c-0.05,3.82-0.04,7.65-0.01,11.47
		c0.01,1.57-0.72,2.28-2.27,2.27c-3.83-0.01-7.65-0.02-11.48,0.01c-1.53,0.01-2.33-0.63-2.32-2.22c0.02-3.91,0.01-7.81,0.01-11.72
		c0-1.44,0.71-2.13,2.15-2.12c2,0.02,3.99,0,5.99,0C275.54,297.11,275.54,297.11,275.54,297.1z"/>
	<path class="st0" d="M566.42,282.32c-2,0-3.99-0.02-5.99,0.01c-1.24,0.02-1.86-0.58-1.86-1.8c-0.01-4.07-0.01-8.14,0-12.21
		c0-1.25,0.73-1.76,1.92-1.76c4.07,0.01,8.15,0.01,12.22,0c1.42,0,1.88,0.82,1.88,2.07c0,3.9-0.01,7.81,0,11.71
		c0,1.48-0.74,2.05-2.19,2C570.42,282.28,568.42,282.33,566.42,282.32C566.42,282.33,566.42,282.32,566.42,282.32z"/>
	<path class="st0" d="M275.47,282.33c-1.91,0-3.83-0.07-5.74,0.02c-1.75,0.09-2.38-0.71-2.36-2.36c0.04-3.74,0.03-7.48,0.01-11.22
		c-0.01-1.55,0.64-2.26,2.25-2.24c3.91,0.05,7.82,0.04,11.73,0.01c1.49-0.01,2.11,0.69,2.1,2.12c-0.02,3.9-0.01,7.81-0.01,11.71
		c0,1.32-0.59,1.98-1.98,1.95C279.46,282.29,277.47,282.32,275.47,282.33C275.47,282.33,275.47,282.33,275.47,282.33z"/>
	<path class="st0" d="M566.57,236.02c1.91,0,3.83,0.05,5.74-0.02c1.58-0.06,2.31,0.58,2.3,2.17c-0.02,3.82-0.02,7.65,0,11.47
		c0.01,1.58-0.71,2.21-2.29,2.19c-3.83-0.06-7.65-0.07-11.48,0c-1.78,0.03-2.33-0.81-2.31-2.43c0.04-3.66,0.06-7.31-0.01-10.97
		c-0.03-1.84,0.76-2.53,2.56-2.43C562.91,236.09,564.74,236.02,566.57,236.02z"/>
	<path class="st0" d="M298.24,305.18c0-1.91,0.07-3.83-0.02-5.73c-0.08-1.74,0.7-2.38,2.36-2.36c3.74,0.04,7.49,0.03,11.23,0.01
		c1.56-0.01,2.26,0.65,2.24,2.25c-0.05,3.9-0.03,7.81-0.01,11.72c0.01,1.31-0.5,2.07-1.88,2.07c-3.99,0.01-7.98,0-11.98,0.01
		c-1.52,0-2-0.82-1.96-2.23C298.29,309.01,298.24,307.1,298.24,305.18z"/>
	<path class="st0" d="M543.76,305.09c0,1.91-0.07,3.83,0.02,5.73c0.09,1.76-0.73,2.36-2.38,2.35c-3.74-0.04-7.49-0.03-11.23-0.01
		c-1.56,0.01-2.25-0.66-2.23-2.26c0.05-3.82,0.05-7.65,0-11.47c-0.02-1.52,0.52-2.35,2.15-2.34c3.91,0.03,7.82,0.02,11.73,0.02
		c1.33,0,1.97,0.61,1.94,1.99C543.72,301.1,543.75,303.1,543.76,305.09z"/>
	<path class="st0" d="M344.62,358.48c1.75,0,3.5,0.08,5.24-0.02c1.78-0.1,2.62,0.55,2.59,2.4c-0.06,3.66-0.05,7.31,0,10.97
		c0.03,1.79-0.69,2.52-2.53,2.47c-3.66-0.09-7.32-0.08-10.98,0c-1.76,0.04-2.62-0.53-2.59-2.41c0.07-3.74,0.05-7.48,0.01-11.22
		c-0.01-1.58,0.67-2.25,2.27-2.2C340.62,358.53,342.62,358.48,344.62,358.48z"/>
	<path class="st0" d="M497.71,374.27c-2,0-3.99-0.04-5.99,0.01c-1.48,0.04-2.15-0.62-2.15-2.06c0-3.91,0-7.81,0-11.72
		c0-1.45,0.7-2.06,2.17-2.04c3.91,0.05,7.82,0.06,11.73,0c1.67-0.02,2.17,0.81,2.16,2.31c-0.03,3.74-0.04,7.48,0.01,11.22
		c0.02,1.74-0.78,2.36-2.44,2.3C501.38,374.22,499.54,374.27,497.71,374.27z"/>
	<path class="st0" d="M275.62,236.02c1.83,0,3.66,0.06,5.49-0.02c1.75-0.08,2.37,0.73,2.35,2.38c-0.04,3.74-0.04,7.48-0.01,11.22
		c0.01,1.56-0.65,2.24-2.26,2.22c-3.83-0.06-7.65-0.05-11.48,0c-1.54,0.02-2.35-0.53-2.34-2.14c0.02-3.82,0.02-7.65,0-11.47
		c-0.01-1.55,0.64-2.28,2.26-2.21C271.63,236.08,273.63,236.02,275.62,236.02z"/>
	<path class="st0" d="M344.19,404.79c-1.91,0-3.83-0.04-5.74,0.01c-1.5,0.04-2.1-0.67-2.09-2.1c0.02-3.9,0.01-7.81,0.01-11.71
		c0-1.33,0.63-1.98,1.98-1.97c3.99,0.01,7.98,0.02,11.98-0.01c1.32-0.01,2.07,0.51,2.07,1.88c0.01,3.99,0,7.97,0.01,11.96
		c0,1.51-0.81,2-2.23,1.96C348.19,404.75,346.19,404.79,344.19,404.79z"/>
	<path class="st0" d="M497.56,404.79c-1.91,0-3.83-0.05-5.74,0.02c-1.41,0.04-2.23-0.44-2.23-1.95c0.01-3.99,0-7.98,0.01-11.96
		c0-1.36,0.75-1.89,2.07-1.88c3.99,0.03,7.98,0.02,11.98,0.01c1.35-0.01,1.99,0.64,1.99,1.97c-0.01,3.99-0.01,7.98-0.01,11.96
		c0,1.4-0.76,1.88-2.07,1.85C501.55,404.76,499.55,404.79,497.56,404.79z"/>
	<path class="st0" d="M597.21,282.33c-1.74,0-3.5-0.1-5.23,0.03c-2,0.14-2.9-0.55-2.84-2.65c0.1-3.57,0.06-7.14,0.03-10.71
		c-0.01-1.78,0.74-2.52,2.56-2.48c3.65,0.08,7.31,0.07,10.97,0c1.78-0.04,2.58,0.61,2.55,2.45c-0.07,3.65-0.07,7.31,0,10.96
		c0.04,1.86-0.76,2.51-2.55,2.42C600.87,282.26,599.04,282.33,597.21,282.33z"/>
	<path class="st0" d="M244.84,282.33c-1.91,0-3.82-0.07-5.73,0.02c-1.74,0.08-2.37-0.7-2.34-2.37c0.05-3.73,0.04-7.47,0.01-11.2
		c-0.01-1.57,0.65-2.26,2.24-2.24c3.82,0.04,7.64,0.05,11.47,0c1.55-0.02,2.34,0.6,2.34,2.17c0,3.9,0,7.8-0.01,11.7
		c0,1.3-0.59,1.97-1.98,1.93C248.83,282.28,246.83,282.33,244.84,282.33z"/>
	<path class="st0" d="M314.03,274.42c0,1.91-0.02,3.83,0.01,5.74c0.02,1.39-0.45,2.19-2.01,2.17c-4-0.05-8-0.04-12-0.01
		c-1.28,0.01-1.79-0.58-1.78-1.82c0.02-4,0.02-7.99-0.01-11.99c-0.01-1.38,0.62-1.96,1.96-1.96c3.92,0.01,7.83,0.02,11.75-0.01
		c1.48-0.01,2.11,0.67,2.09,2.13C314.01,270.59,314.03,272.5,314.03,274.42z"/>
	<path class="st0" d="M535.77,282.33c-1.83,0-3.67-0.05-5.5,0.01c-1.53,0.05-2.34-0.46-2.32-2.12c0.05-3.83,0.04-7.66,0-11.49
		c-0.02-1.62,0.74-2.21,2.29-2.19c3.75,0.04,7.5,0.04,11.25,0c1.53-0.02,2.31,0.51,2.28,2.17c-0.06,3.83-0.06,7.66,0,11.49
		c0.03,1.65-0.69,2.21-2.25,2.15C539.61,282.28,537.69,282.33,535.77,282.33z"/>
	<path class="st0" d="M543.75,243.92c0,1.92-0.04,3.83,0.01,5.75c0.04,1.44-0.5,2.16-2.02,2.14c-3.92-0.04-7.84-0.04-11.76,0
		c-1.54,0.01-2.04-0.76-2.03-2.17c0.03-3.83,0.04-7.66,0-11.49c-0.02-1.65,0.78-2.16,2.32-2.14c3.75,0.05,7.5,0.05,11.26,0
		c1.57-0.02,2.31,0.54,2.24,2.17C543.7,240.09,543.76,242.01,543.75,243.92z"/>
	<path class="st0" d="M298.25,243.29c0.3-1.98-1.11-5.07,0.63-6.74c1.61-1.54,4.62-0.42,7.02-0.52c2-0.08,4,0.02,6-0.02
		c1.45-0.03,2.16,0.56,2.14,2.05c-0.03,3.91-0.03,7.83,0,11.74c0.01,1.53-0.78,2.02-2.19,2.01c-3.83-0.03-7.67-0.04-11.51,0
		c-1.46,0.01-2.15-0.55-2.1-2.06C298.29,247.75,298.25,245.75,298.25,243.29z"/>
</g>
</svg>
