<?xml version="1.0" encoding="utf-8"?>
<!-- Generator: Adobe Illustrator 27.7.0, SVG Export Plug-In . SVG Version: 6.00 Build 0)  -->
<svg version="1.1" id="Layer_1" xmlns="http://www.w3.org/2000/svg" xmlns:xlink="http://www.w3.org/1999/xlink" x="0px" y="0px"
	 viewBox="0 0 841.89 595.28" style="enable-background:new 0 0 841.89 595.28;" xml:space="preserve">
<style type="text/css">
	.st0{fill:#0CB4D7;}
</style>
<g>
	<path class="st0" d="M382.01,529.4c-4.33,0-8.66,0-13,0c0.97-0.5,0.44-1.14-0.04-1.41c-6.47-3.56-8.09-9.3-8.02-16.24
		c0.19-18.15-0.01-36.31,0.13-54.47c0.02-3-0.65-4.04-3.83-3.94c-7.32,0.25-14.66,0.29-21.98-0.01c-3.63-0.15-4.35,1.07-4.32,4.47
		c0.17,18.15,0.04,36.31,0.1,54.47c0.02,6.41-2.43,11.45-7.78,14.99c-0.85,0.56-2.19,0.62-1.23,2.13c-4.33,0-8.66,0-13,0
		c0.97-0.49,0.44-1.14-0.04-1.41c-6.46-3.56-8.09-9.29-8.02-16.23c0.19-17.98-0.02-35.96,0.14-53.93c0.03-3.36-0.63-4.64-4.29-4.49
		c-7.65,0.3-15.33-0.27-22.96,0.17c-15.86,0.9-28.52-5.29-38.31-17.26c-5.64-6.89-9.28-14.98-9.38-24.19
		c-0.1-9.65-0.25-19.31-0.02-28.96c0.08-3.61-0.68-4.79-4.57-4.74c-18.47,0.23-36.95,0.04-55.43,0.14
		c-6.06,0.03-10.92-1.87-14.12-7.24c-0.39-0.65-0.66-2.08-1.93-0.79c0-4.66,0-9.33,0-13.99c0.2,0.2,0.43,0.58,0.6,0.56
		c0.29-0.04,0.67-0.28,0.8-0.54c3.56-6.83,9.69-8.1,16.66-8.05c17.95,0.11,35.9-0.05,53.85,0.11c3.25,0.03,4.25-0.84,4.13-4.12
		c-0.25-7.14-0.32-14.3,0.02-21.43c0.18-3.84-1.05-4.63-4.69-4.6c-18.45,0.19-36.9,0.03-55.35,0.12c-6.05,0.03-10.9-1.88-14.1-7.24
		c-0.39-0.65-0.67-2.08-1.93-0.79c0-4.66,0-9.33,0-13.99c0.2,0.2,0.39,0.43,0.62,0.58c0.06,0.04,0.33-0.12,0.4-0.25
		c3.87-6.95,10.15-8.47,17.54-8.39c17.78,0.19,35.57-0.02,53.35,0.14c3.25,0.03,4.25-0.84,4.13-4.12
		c-0.25-7.14-0.32-14.3,0.02-21.43c0.18-3.84-1.05-4.63-4.69-4.6c-18.45,0.19-36.9,0.03-55.35,0.12c-6.05,0.03-10.9-1.88-14.1-7.24
		c-0.39-0.65-0.67-2.08-1.93-0.79c0-4.66,0-9.33,0-13.99c0.2,0.2,0.43,0.58,0.6,0.56c0.29-0.04,0.67-0.28,0.8-0.54
		c3.56-6.83,9.69-8.1,16.66-8.05c17.95,0.11,35.9-0.05,53.85,0.11c3.25,0.03,4.25-0.84,4.13-4.12c-0.25-7.14-0.32-14.3,0.02-21.43
		c0.18-3.84-1.05-4.63-4.69-4.6c-18.45,0.19-36.9,0.03-55.35,0.12c-6.05,0.03-10.9-1.88-14.1-7.24c-0.39-0.65-0.67-2.08-1.93-0.79
		c0-4.66,0-9.33,0-13.99c0.2,0.2,0.39,0.43,0.62,0.58c0.06,0.04,0.33-0.12,0.4-0.25c4.21-7.68,11.29-8.48,19.06-8.39
		c17.13,0.2,34.27-0.07,51.4,0.17c3.86,0.05,4.69-1.1,4.58-4.72c-0.27-8.48,0.13-16.97-0.16-25.45c-0.2-5.89,0.86-11.44,3.21-16.72
		c6.52-14.68,17.13-24.5,33.43-27.16c11.03-1.8,22.16-1,33.25-0.91c3.99,0.03,5.33-0.72,5.27-5.06
		c-0.27-18.63-0.09-37.26-0.13-55.89c-0.01-5.54,2.23-9.85,6.72-12.98c0.83-0.58,2.16-0.63,1.28-2.14c4.33,0,8.66,0,13,0
		c-0.2,0.2-0.59,0.43-0.56,0.6c0.04,0.29,0.27,0.67,0.53,0.81c7.55,4.06,9.2,10.78,9.09,18.72c-0.22,17.32,0,34.65-0.13,51.97
		c-0.02,2.96,0.59,4.07,3.81,3.96c7.32-0.26,14.66-0.29,21.98,0.01c3.59,0.15,4.38-1.01,4.35-4.44
		c-0.17-18.82-0.05-37.64-0.09-56.47c-0.01-5.55,2.21-9.87,6.72-13c0.83-0.58,2.17-0.62,1.29-2.14c4.33,0,8.66,0,13,0
		c-0.2,0.2-0.59,0.43-0.56,0.6c0.04,0.29,0.27,0.67,0.53,0.81c7.55,4.06,9.2,10.78,9.09,18.72c-0.22,17.32,0,34.65-0.13,51.97
		c-0.02,2.96,0.59,4.07,3.81,3.96c7.32-0.26,14.66-0.29,21.98,0.01c3.59,0.15,4.38-1.01,4.35-4.44
		c-0.17-18.82-0.05-37.64-0.09-56.47c-0.01-5.55,2.21-9.87,6.72-13c0.83-0.58,2.17-0.62,1.29-2.14c4.33,0,8.66,0,13,0
		c-0.2,0.2-0.59,0.43-0.56,0.6c0.04,0.29,0.27,0.67,0.53,0.81c7.55,4.06,9.2,10.78,9.09,18.72c-0.22,17.32,0,34.65-0.13,51.97
		c-0.02,2.96,0.59,4.07,3.81,3.96c7.32-0.26,14.66-0.29,21.98,0.01c3.59,0.15,4.38-1.01,4.35-4.44
		c-0.17-18.82-0.05-37.64-0.09-56.47c-0.01-5.55,2.21-9.87,6.72-13c0.83-0.58,2.17-0.62,1.29-2.14c4.33,0,8.66,0,13,0
		c-0.2,0.2-0.59,0.43-0.56,0.6c0.04,0.29,0.27,0.67,0.53,0.81c7.53,4.05,9.24,10.75,9.09,18.69c-0.25,13.64-0.1,27.28-0.05,40.93
		c0.02,4.79-1.63,11.23,0.8,13.95c2.81,3.14,9.37,0.87,14.3,0.96c10.03,0.19,20.12-0.52,29.81,2.94
		c16.05,5.74,25.71,17.27,28.94,33.71c2.1,10.73,1.23,21.79,1,32.7c-0.09,4.32,0.75,5.89,5.54,5.8c17.63-0.33,35.27-0.09,52.9-0.15
		c6.74-0.02,12.13,2.27,15.71,8.19c0.39,0.65,0.61,2.1,1.91,0.82c0,4,0,8,0,12c-0.2-0.2-0.44-0.58-0.61-0.55
		c-0.29,0.05-0.65,0.29-0.8,0.55c-4.05,7.18-10.31,9.27-18.3,9.11c-17.47-0.36-34.96-0.04-52.44-0.18c-3.06-0.03-4,0.74-3.9,3.87
		c0.24,7.32,0.29,14.66-0.01,21.97c-0.15,3.65,1.11,4.33,4.48,4.3c18.15-0.16,36.29-0.04,54.44-0.1c6.41-0.02,11.44,2.43,15.01,7.76
		c0.56,0.83,0.59,2.21,2.13,1.26c0,4,0,8,0,12c-0.2-0.2-0.39-0.42-0.62-0.57c-0.06-0.04-0.33,0.12-0.4,0.25
		c-4.73,8.39-12.33,9.67-21.17,9.44c-16.64-0.43-33.3-0.04-49.94-0.19c-3.05-0.03-4,0.74-3.9,3.86c0.24,7.32,0.29,14.66-0.01,21.97
		c-0.15,3.65,1.11,4.33,4.48,4.3c18.15-0.16,36.3-0.04,54.44-0.1c6.41-0.02,11.44,2.43,15,7.76c0.56,0.83,0.6,2.21,2.13,1.26
		c0,4,0,8,0,12c-0.2-0.2-0.44-0.58-0.61-0.55c-0.29,0.05-0.65,0.29-0.8,0.55c-3.86,6.67-9.58,9.24-17.3,9.1
		c-17.81-0.32-35.63-0.03-53.44-0.17c-3.05-0.02-4,0.74-3.9,3.86c0.24,7.32,0.29,14.66-0.01,21.97c-0.15,3.64,1.1,4.34,4.48,4.3
		c17.98-0.17,35.96-0.03,53.94-0.1c6.74-0.02,12.14,2.27,15.73,8.19c0.39,0.65,0.61,2.1,1.91,0.82c0,4,0,8,0,12
		c-0.2-0.2-0.44-0.58-0.61-0.55c-0.29,0.05-0.65,0.29-0.8,0.55c-4.05,7.18-10.32,9.28-18.32,9.11c-17.15-0.36-34.32,0.03-51.48-0.21
		c-4-0.06-4.95,1.1-4.86,4.95c0.25,11.59,1.25,23.39-1.18,34.73c-4.44,20.69-21.74,34.77-43.46,35.35
		c-8.66,0.23-17.33,0.23-25.99-0.05c-3.6-0.12-4.37,1.03-4.34,4.46c0.17,18.16,0.05,36.32,0.1,54.48
		c0.02,6.41-2.43,11.45-7.78,14.99c-0.85,0.56-2.19,0.62-1.23,2.13c-4.33,0-8.66,0-13,0c0.97-0.5,0.44-1.14-0.04-1.41
		c-6.47-3.56-8.09-9.3-8.02-16.24c0.19-18.15-0.01-36.31,0.13-54.47c0.02-3-0.65-4.04-3.83-3.94c-7.32,0.25-14.66,0.29-21.98-0.01
		c-3.63-0.15-4.35,1.07-4.32,4.47c0.17,18.15,0.04,36.31,0.1,54.47c0.02,6.41-2.43,11.45-7.78,14.99c-0.85,0.56-2.19,0.62-1.23,2.13
		c-4.33,0-8.66,0-13,0c0.97-0.5,0.44-1.14-0.04-1.41c-6.47-3.56-8.09-9.3-8.02-16.24c0.19-18.15-0.01-36.31,0.13-54.47
		c0.02-3-0.65-4.04-3.83-3.94c-7.32,0.25-14.66,0.29-21.98-0.01c-3.63-0.15-4.35,1.07-4.32,4.47c0.17,18.15,0.05,36.31,0.1,54.47
		c0.02,6.41-2.43,11.45-7.78,14.99C382.39,527.83,381.05,527.89,382.01,529.4z M256.06,273.51c0,44.48,0.25,88.95-0.21,133.42
		c-0.1,9.1,7.3,16.76,16.86,16.72c88.12-0.36,176.24-0.35,264.35-0.03c10.62,0.04,19.02-6.13,18.99-19.21
		c-0.2-87.29-0.11-174.57-0.11-261.86c0-13.17-5.79-19-18.87-19c-75.79,0-151.58,0-227.38,0c-12.33,0-24.65,0.12-36.98-0.04
		c-11.02-0.14-16.9,7.1-16.82,16.57C256.25,184.56,256.06,229.04,256.06,273.51z"/>
	<path class="st0" d="M395.17,199.81c8.04-2.59,17.01-0.93,25.73-0.12c16.26,1.53,31.87,6.15,46.45,13.83
		c12.4,6.53,23.83,14.37,33.6,24.5c5.49,5.7,5.89,15.01,0.95,20.05c-7.02,7.16-14.95,7.69-21.7,1.2
		c-14.98-14.41-32.52-24.37-52.85-28.33c-29.18-5.68-56.57-0.73-81.46,16.22c-5.87,4-10.61,9.24-16.24,13.49
		c-6.68,5.04-15.98,3.32-20.25-2.36c-5.11-6.8-4.28-15.93,1.85-21.42c12.01-10.76,24.86-20.27,39.71-26.79
		c11.08-4.86,22.53-8.41,34.64-9.58C388.51,200.2,391.34,198.97,395.17,199.81z"/>
	<path class="st0" d="M404.8,258.46c21.15,1.16,39.31,7.18,53.77,22.1c5.83,6.02,6.21,14.41,0.97,19.91
		c-7.64,8.02-15.33,7.39-21.35,1.53c-8.6-8.37-19.08-12.86-30.78-13.31c-11.5-0.44-22.26,2.6-31.07,10.91
		c-5.04,4.75-10.52,9.18-18.32,5.54c-11.71-5.47-13.05-18.84-2.87-27.21c10.85-8.92,22.68-15.91,36.88-17.94
		C396.57,259.34,401.15,258.89,404.8,258.46z"/>
	<path class="st0" d="M495.98,168.53c0-8.5,6.09-15.12,14.25-14.9c9.14,0.25,15.45,6.33,15.55,14.93c0.1,9.34-8.59,15.25-15.62,15
		C502.03,183.27,495.97,177.01,495.98,168.53z"/>
	<path class="st0" d="M300.35,183.52c-8.36-0.05-14.45-6.55-14.27-15.37c0.17-8.66,5.96-14.66,14.61-14.46
		c9.09,0.22,15,6.41,15.17,14.75C316.04,177.71,307.44,183.91,300.35,183.52z"/>
	<path class="st0" d="M391.02,333.53c-0.01-8.52,5.98-15.12,14.19-14.96c9.02,0.17,15.47,6.17,15.61,14.86
		c0.16,9.3-8.49,15.29-15.56,15.07C397.12,348.24,391.03,342,391.02,333.53z"/>
	<path class="st0" d="M286.06,378.46c0-8.5,6.06-15.11,14.24-14.91c9.11,0.23,15.46,6.3,15.56,14.92
		c0.11,9.34-8.58,15.26-15.62,15.01C292.11,393.2,286.06,386.95,286.06,378.46z"/>
	<path class="st0" d="M495.98,378.21c0.13-8.45,5.68-14.74,14.49-14.6c9.49,0.15,15.42,6.89,15.31,15.11
		c-0.13,9.46-8.83,14.91-15.37,14.78C502.06,393.32,495.91,386.97,495.98,378.21z"/>
</g>
</svg>
