<?xml version="1.0" encoding="utf-8"?>
<!-- Generator: Adobe Illustrator 27.7.0, SVG Export Plug-In . SVG Version: 6.00 Build 0)  -->
<svg version="1.1" xmlns="http://www.w3.org/2000/svg" xmlns:xlink="http://www.w3.org/1999/xlink" x="0px" y="0px"
	 viewBox="0 0 252 144" style="enable-background:new 0 0 252 144;" xml:space="preserve">
<style type="text/css">
	.st0{fill:#0DB4D7;}
	.st1{fill:none;stroke:#0DB4D7;stroke-width:0.5;stroke-miterlimit:10;}
	.st2{fill:#E8B620;}
	.st3{fill:none;stroke:#E8B620;stroke-width:0.5;stroke-miterlimit:10;}
</style>
<g id="Guides">
</g>
<g id="Crop_Marks">
	<g>
		<g>
			<circle class="st0" cx="62.33" cy="284.42" r="1.38"/>
			<circle class="st0" cx="70.68" cy="261.49" r="1.38"/>
			<circle class="st0" cx="70.68" cy="246.13" r="1.38"/>
			<circle class="st0" cx="40.44" cy="251.32" r="1.38"/>
			<circle class="st0" cx="59.57" cy="247.61" r="1.38"/>
			<circle class="st0" cx="69.3" cy="199.99" r="1.38"/>
			<circle class="st0" cx="65.09" cy="192.24" r="1.38"/>
			<circle class="st0" cx="41.82" cy="208.87" r="1.38"/>
			<circle class="st0" cx="39.06" cy="198.61" r="1.38"/>
			<circle class="st0" cx="54.39" cy="167.8" r="1.38"/>
			<circle class="st0" cx="43.2" cy="155.73" r="1.38"/>
			<circle class="st0" cx="46.37" cy="157.11" r="1.38"/>
			<circle class="st0" cx="28.78" cy="181.81" r="1.38"/>
			<circle class="st0" cx="39.06" cy="159.87" r="1.38"/>
			<circle class="st0" cx="21.99" cy="161.26" r="1.38"/>
			<circle class="st0" cx="9.96" cy="157.11" r="1.38"/>
			<circle class="st0" cx="32.95" cy="294.54" r="1.38"/>
		</g>
	</g>
	<g>
		<g>
			<path class="st1" d="M0,151.92l9.96,5.19l4-5.19c0,0,21.2,53.1,26.13,98.63c0,0-16.72-37.24-40.09-50.86"/>
			<path class="st1" d="M0,177.68l21.99-16.43l17.07-1.38c0,0,7.31-1.38,7.31-2.76c0,0-1.78-1.38-3.16-1.38l-5.53-3.81"/>
			<path class="st1" d="M52.68,295.92c1.56-4.91,3.63-11.86,5.72-20.09c2.1-8.35,4.2-18.02,5.79-28.25c0.53-3.4,1-6.87,1.4-10.37
				c0.25-2.24,0.47-4.5,0.65-6.76c1.01-12.48,0.91-25.17-1.15-36.83c0,0,3.22,3.82,4.03,5.7c0,0,0.01,0.01,0.01,0.02
				c0.11,0.26,0.17,0.48,0.17,0.65c0,0.11,0.03,0.44,0.07,0.95c0,0.01,0,0.02,0,0.03c0.55,5.75,3.65,34.65,1.31,60.52
				c-0.05,0.58-0.13,1.18-0.24,1.8c-0.53,3.21-1.73,6.84-3.29,10.58c-1.41,3.37-3.11,6.84-4.9,10.16
				c-2.36,4.39-4.85,8.54-6.97,11.89"/>
			<path class="st1" d="M0.03,267.61c1.02-0.19,25.29-4.76,43.31-0.17c3.58,0.91,6.91,2.18,9.77,3.92c2.03,1.24,3.82,2.71,5.29,4.47
				c1.88,2.25,3.23,4.95,3.85,8.2c0.03,0.13,0.06,0.26,0.08,0.39c0,0-1.28,3.03-3.31,6.83c-0.02,0.05-0.04,0.1-0.07,0.14
				c-0.78,1.45-1.67,3-2.63,4.53"/>
			<path class="st1" d="M47.75,151.92l-1.38,5.19c0,0,6.56,6.01,8.02,10.69c0,0,2.11,2.48,4.46,6.28c0.01,0,0.01,0.01,0.01,0.01
				c1.82,2.94,3.77,6.67,5,10.65c0.75,2.45,1.23,4.99,1.23,7.5c0,0-6.19-7.01-14.73-14.4c-8.4-7.28-19.08-14.91-28.37-16.59
				c0,0,6.03,13.97,6.79,20.56c0,0,7.64,9.77,9.97,15.9c0.12,0.31,0.22,0.61,0.31,0.9c0,0-6.7-7.35-13.7-16.13
				c-4.02-5.03-8.14-10.54-11.16-15.41c-2.02-3.26-3.56-6.23-4.24-8.58c0,0,2.14,2.84,5.64,7.54c2.12,2.84,4.73,6.36,7.66,10.35
				c4.6,6.26,9.99,13.65,15.49,21.33c1.67,2.34,3.36,4.71,5.04,7.08c7.82,11.07,15.44,22.2,20.89,30.95
				c0.31,0.5,0.62,0.99,0.91,1.47c2.12,3.45,3.86,6.47,5.09,8.92c0,0-3.16,1.02-6.49,1.45c-1.61,0.21-3.27,0.28-4.62,0.03
				l-13.48,2.61l-4.3,0.83l-0.08,0.01l-1.27,0.25l-40.41,16.3C0.01,267.62,0,267.62,0,267.62"/>
			<path class="st1" d="M33.67,295.92l-0.72-1.38c0,0,6.41-10.29,10.39-27.1c1.23-5.16,2.23-10.94,2.75-17.22
				c1-12.15,0.19-26.2-4.27-41.35c0,0,0.83-1.49,1.97-4.08c2.39-5.43,6.16-15.66,6.57-26.95c0.21-6.12-0.56-12.54-3.08-18.68
				c-0.28-0.69-0.58-1.37-0.91-2.05"/>
			<path class="st1" d="M54.39,167.8c0,0,0.53,1.97,2.28,3.77c0.66,0.68,1.4,1.51,2.18,2.51c0.01,0,0.01,0.01,0.01,0.01
				c3.42,4.35,7.68,11.81,9.98,23.69c0.1,0.5,0.19,1.02,0.28,1.54c0,0,0.01,0.01,0.01,0.02c0.07,0.44,0.15,0.89,0.22,1.35
				c0,0,0.01,0.09,0.02,0.25c0,0.01,0,0.02,0,0.03c0.11,2.03,0.65,14.95-3.13,29.48c-0.45,1.75-0.97,3.52-1.56,5.29
				c-1.32,3.98-2.99,8-5.11,11.87c0,0-1.56,9.89-6.46,23.75c-2.61,7.36-6.16,15.85-10.92,24.56"/>
			<path class="st1" d="M56.14,295.92c0.98-1.48,1.91-2.99,2.81-4.53c0.03-0.04,0.05-0.09,0.07-0.14c3.17-5.43,5.9-11.25,8.13-17.38
				c1.26-3.43,2.36-6.96,3.29-10.58c2.45-9.47,3.77-19.52,3.77-29.95c0-12.5-1.9-24.48-5.37-35.56c-1.41-4.5-3.08-8.86-4.98-13.04
				c-2.12-4.62-4.52-9.02-7.19-13.17c-2.84-4.44-5.98-8.59-9.39-12.41c-0.44-0.49-0.88-0.98-1.33-1.46
				c-0.55-0.59-1.1-1.18-1.67-1.75h-0.01c-1.35-1.39-2.75-2.74-4.18-4.03"/>
		</g>
	</g>
	<rect x="0" y="0" width="252" height="144"/>
	<g>
		<g>
			<circle class="st2" cx="62.33" cy="132.5" r="1.38"/>
			<circle class="st2" cx="70.68" cy="109.57" r="1.38"/>
			<circle class="st2" cx="70.68" cy="94.21" r="1.38"/>
			<circle class="st2" cx="40.44" cy="99.39" r="1.38"/>
			<circle class="st2" cx="59.57" cy="95.69" r="1.38"/>
			<circle class="st2" cx="69.3" cy="48.07" r="1.38"/>
			<circle class="st2" cx="65.09" cy="40.32" r="1.38"/>
			<circle class="st2" cx="41.82" cy="56.95" r="1.38"/>
			<circle class="st2" cx="39.06" cy="46.69" r="1.38"/>
			<circle class="st2" cx="54.39" cy="15.88" r="1.38"/>
			<circle class="st2" cx="43.2" cy="3.81" r="1.38"/>
			<circle class="st2" cx="46.37" cy="5.19" r="1.38"/>
			<circle class="st2" cx="28.78" cy="29.89" r="1.38"/>
			<circle class="st2" cx="39.06" cy="7.95" r="1.38"/>
			<circle class="st2" cx="21.99" cy="9.33" r="1.38"/>
			<circle class="st2" cx="9.96" cy="5.19" r="1.38"/>
			<circle class="st2" cx="32.95" cy="142.62" r="1.38"/>
		</g>
		<g>
			<path class="st3" d="M0,0l9.96,5.19l4-5.19c0,0,21.2,53.1,26.13,98.63c0,0-16.72-37.24-40.09-50.86"/>
			<path class="st3" d="M0,25.76L21.99,9.33l17.07-1.38c0,0,7.31-1.38,7.31-2.76c0,0-1.78-1.38-3.16-1.38L37.68,0"/>
			<path class="st3" d="M55.28,144c2.12-3.35,4.61-7.5,6.97-11.89c1.79-3.32,3.49-6.79,4.9-10.16c1.56-3.74,2.76-7.37,3.29-10.58
				c0.11-0.62,0.19-1.22,0.24-1.8c2.34-25.87-0.76-54.77-1.31-60.52c0-0.01,0-0.02,0-0.03c-0.04-0.51-0.07-0.84-0.07-0.95
				c0-0.17-0.06-0.39-0.17-0.65c0-0.01-0.01-0.02-0.01-0.02c-0.81-1.88-4.03-5.7-4.03-5.7c2.06,11.66,2.16,24.35,1.15,36.83
				c-0.18,2.26-0.4,4.52-0.65,6.76c-0.4,3.5-0.87,6.97-1.4,10.37c-1.59,10.23-3.69,19.9-5.79,28.25
				c-2.09,8.23-4.16,15.18-5.72,20.09"/>
			<path class="st3" d="M56.32,144c0.96-1.53,1.85-3.08,2.63-4.53c0.03-0.04,0.05-0.09,0.07-0.14c2.03-3.8,3.31-6.83,3.31-6.83
				c-0.02-0.13-0.05-0.26-0.08-0.39c-0.62-3.25-1.97-5.95-3.85-8.2c-1.47-1.76-3.26-3.23-5.29-4.47c-2.86-1.74-6.19-3.01-9.77-3.92
				c-18.02-4.59-42.29-0.02-43.31,0.17"/>
			<path class="st3" d="M0,115.7c0,0,0.01,0,0.03-0.01l40.41-16.3l1.27-0.25l0.08-0.01l4.3-0.83l13.48-2.61
				c1.35,0.25,3.01,0.18,4.62-0.03c3.33-0.43,6.49-1.45,6.49-1.45c-1.23-2.45-2.97-5.47-5.09-8.92c-0.29-0.48-0.6-0.97-0.91-1.47
				c-5.45-8.75-13.07-19.88-20.89-30.95c-1.68-2.37-3.37-4.74-5.04-7.08c-5.5-7.68-10.89-15.07-15.49-21.33
				c-2.93-3.99-5.54-7.51-7.66-10.35c-3.5-4.7-5.64-7.54-5.64-7.54c0.68,2.35,2.22,5.32,4.24,8.58c3.02,4.87,7.14,10.38,11.16,15.41
				c7,8.78,13.7,16.13,13.7,16.13c-0.09-0.29-0.19-0.59-0.31-0.9c-2.33-6.13-9.97-15.9-9.97-15.9c-0.76-6.59-6.79-20.56-6.79-20.56
				c9.29,1.68,19.97,9.31,28.37,16.59c8.54,7.39,14.73,14.4,14.73,14.4c0-2.51-0.48-5.05-1.23-7.5c-1.23-3.98-3.18-7.71-5-10.65
				c0,0,0-0.01-0.01-0.01c-2.35-3.8-4.46-6.28-4.46-6.28c-1.46-4.68-8.02-10.69-8.02-10.69L47.75,0"/>
			<path class="st3" d="M46.37,5.19C46.7,5.87,47,6.55,47.28,7.24c2.52,6.14,3.29,12.56,3.08,18.68
				c-0.41,11.29-4.18,21.52-6.57,26.95c-1.14,2.59-1.97,4.08-1.97,4.08c4.46,15.15,5.27,29.2,4.27,41.35
				c-0.52,6.28-1.52,12.06-2.75,17.22c-3.98,16.81-10.39,27.1-10.39,27.1l0.72,1.38"/>
			<path class="st3" d="M42.19,144c4.76-8.71,8.31-17.2,10.92-24.56c4.9-13.86,6.46-23.75,6.46-23.75
				c2.12-3.87,3.79-7.89,5.11-11.87c0.59-1.77,1.11-3.54,1.56-5.29c3.78-14.53,3.24-27.45,3.13-29.48c0-0.01,0-0.02,0-0.03
				c-0.01-0.16-0.02-0.25-0.02-0.25c-0.07-0.46-0.15-0.91-0.22-1.35c0-0.01-0.01-0.02-0.01-0.02c-0.09-0.52-0.18-1.04-0.28-1.54
				c-2.3-11.88-6.56-19.34-9.98-23.69c0,0,0-0.01-0.01-0.01c-0.78-1-1.52-1.83-2.18-2.51c-1.75-1.8-2.28-3.77-2.28-3.77"/>
			<path class="st3" d="M40.09,0c1.43,1.29,2.83,2.64,4.18,4.03h0.01c0.57,0.57,1.12,1.16,1.67,1.75c0.45,0.48,0.89,0.97,1.33,1.46
				c3.41,3.82,6.55,7.97,9.39,12.41c2.67,4.15,5.07,8.55,7.19,13.17c1.9,4.18,3.57,8.54,4.98,13.04
				c3.47,11.08,5.37,23.06,5.37,35.56c0,10.43-1.32,20.48-3.77,29.95c-0.93,3.62-2.03,7.15-3.29,10.58
				c-2.23,6.13-4.96,11.95-8.13,17.38c-0.02,0.05-0.04,0.1-0.07,0.14c-0.9,1.54-1.83,3.05-2.81,4.53"/>
		</g>
	</g>
</g>
</svg>
