<?xml version="1.0" encoding="utf-8"?>
<!-- Generator: Adobe Illustrator 27.7.0, SVG Export Plug-In . SVG Version: 6.00 Build 0)  -->
<svg version="1.1" xmlns="http://www.w3.org/2000/svg" xmlns:xlink="http://www.w3.org/1999/xlink" x="0px" y="0px"
	 viewBox="0 0 252 144" style="enable-background:new 0 0 252 144;" xml:space="preserve">
<style type="text/css">
	.st0{fill:#E8B620;}
	.st1{fill:none;stroke:#E8B620;stroke-width:0.5;stroke-miterlimit:10;}
</style>
<g id="Guides">
</g>
<g id="Crop_Marks">
	<rect x="0" y="0" width="252" height="144"/>
	<g>
		<circle class="st0" cx="189.67" cy="132.5" r="1.38"/>
		<circle class="st0" cx="181.32" cy="109.57" r="1.38"/>
		<circle class="st0" cx="181.32" cy="94.21" r="1.38"/>
		<circle class="st0" cx="211.56" cy="99.39" r="1.38"/>
		<circle class="st0" cx="192.43" cy="95.69" r="1.38"/>
		<circle class="st0" cx="182.7" cy="48.07" r="1.38"/>
		<circle class="st0" cx="186.91" cy="40.32" r="1.38"/>
		<circle class="st0" cx="210.18" cy="56.95" r="1.38"/>
		<circle class="st0" cx="212.94" cy="46.69" r="1.38"/>
		<circle class="st0" cx="197.61" cy="15.88" r="1.38"/>
		<circle class="st0" cx="208.8" cy="3.81" r="1.38"/>
		<circle class="st0" cx="205.63" cy="5.19" r="1.38"/>
		<circle class="st0" cx="223.22" cy="29.89" r="1.38"/>
		<circle class="st0" cx="212.94" cy="7.95" r="1.38"/>
		<circle class="st0" cx="230.01" cy="9.33" r="1.38"/>
		<circle class="st0" cx="242.04" cy="5.19" r="1.38"/>
		<circle class="st0" cx="219.05" cy="142.62" r="1.38"/>
	</g>
	<g>
		<path class="st1" d="M252,0l-9.96,5.19l-4-5.19c0,0-21.2,53.1-26.13,98.63c0,0,16.72-37.24,40.09-50.86"/>
		<path class="st1" d="M252,25.76L230.01,9.33l-17.07-1.38c0,0-7.31-1.38-7.31-2.76c0,0,1.78-1.38,3.16-1.38L214.32,0"/>
		<path class="st1" d="M196.72,144c-2.12-3.35-4.61-7.5-6.97-11.89c-1.79-3.32-3.49-6.79-4.9-10.16c-1.56-3.74-2.76-7.37-3.29-10.58
			c-0.11-0.62-0.19-1.22-0.24-1.8c-2.34-25.87,0.76-54.77,1.31-60.52c0-0.01,0-0.02,0-0.03c0.04-0.51,0.07-0.84,0.07-0.95
			c0-0.17,0.06-0.39,0.17-0.65c0-0.01,0.01-0.02,0.01-0.02c0.81-1.88,4.03-5.7,4.03-5.7c-2.06,11.66-2.16,24.35-1.15,36.83
			c0.18,2.26,0.4,4.52,0.65,6.76c0.4,3.5,0.87,6.97,1.4,10.37c1.59,10.23,3.69,19.9,5.79,28.25c2.09,8.23,4.16,15.18,5.72,20.09"/>
		<path class="st1" d="M195.68,144c-0.96-1.53-1.85-3.08-2.63-4.53c-0.03-0.04-0.05-0.09-0.07-0.14c-2.03-3.8-3.31-6.83-3.31-6.83
			c0.02-0.13,0.05-0.26,0.08-0.39c0.62-3.25,1.97-5.95,3.85-8.2c1.47-1.76,3.26-3.23,5.29-4.47c2.86-1.74,6.19-3.01,9.77-3.92
			c18.02-4.59,42.29-0.02,43.31,0.17"/>
		<path class="st1" d="M252,115.7c0,0-0.01,0-0.03-0.01l-40.41-16.3l-1.27-0.25l-0.08-0.01l-4.3-0.83l-13.48-2.61
			c-1.35,0.25-3.01,0.18-4.62-0.03c-3.33-0.43-6.49-1.45-6.49-1.45c1.23-2.45,2.97-5.47,5.09-8.92c0.29-0.48,0.6-0.97,0.91-1.47
			c5.45-8.75,13.07-19.88,20.89-30.95c1.68-2.37,3.37-4.74,5.04-7.08c5.5-7.68,10.89-15.07,15.49-21.33
			c2.93-3.99,5.54-7.51,7.66-10.35c3.5-4.7,5.64-7.54,5.64-7.54c-0.68,2.35-2.22,5.32-4.24,8.58c-3.02,4.87-7.14,10.38-11.16,15.41
			c-7,8.78-13.7,16.13-13.7,16.13c0.09-0.29,0.19-0.59,0.31-0.9c2.33-6.13,9.97-15.9,9.97-15.9c0.76-6.59,6.79-20.56,6.79-20.56
			c-9.29,1.68-19.97,9.31-28.37,16.59c-8.54,7.39-14.73,14.4-14.73,14.4c0-2.51,0.48-5.05,1.23-7.5c1.23-3.98,3.18-7.71,5-10.65
			c0,0,0-0.01,0.01-0.01c2.35-3.8,4.46-6.28,4.46-6.28c1.46-4.68,8.02-10.69,8.02-10.69L204.25,0"/>
		<path class="st1" d="M205.63,5.19c-0.33,0.68-0.63,1.36-0.91,2.05c-2.52,6.14-3.29,12.56-3.08,18.68
			c0.41,11.29,4.18,21.52,6.57,26.95c1.14,2.59,1.97,4.08,1.97,4.08c-4.46,15.15-5.27,29.2-4.27,41.35
			c0.52,6.28,1.52,12.06,2.75,17.22c3.98,16.81,10.39,27.1,10.39,27.1l-0.72,1.38"/>
		<path class="st1" d="M209.81,144c-4.76-8.71-8.31-17.2-10.92-24.56c-4.9-13.86-6.46-23.75-6.46-23.75
			c-2.12-3.87-3.79-7.89-5.11-11.87c-0.59-1.77-1.11-3.54-1.56-5.29c-3.78-14.53-3.24-27.45-3.13-29.48c0-0.01,0-0.02,0-0.03
			c0.01-0.16,0.02-0.25,0.02-0.25c0.07-0.46,0.15-0.91,0.22-1.35c0-0.01,0.01-0.02,0.01-0.02c0.09-0.52,0.18-1.04,0.28-1.54
			c2.3-11.88,6.56-19.34,9.98-23.69c0,0,0-0.01,0.01-0.01c0.78-1,1.52-1.83,2.18-2.51c1.75-1.8,2.28-3.77,2.28-3.77"/>
		<path class="st1" d="M211.91,0c-1.43,1.29-2.83,2.64-4.18,4.03h-0.01c-0.57,0.57-1.12,1.16-1.67,1.75
			c-0.45,0.48-0.89,0.97-1.33,1.46c-3.41,3.82-6.55,7.97-9.39,12.41c-2.67,4.15-5.07,8.55-7.19,13.17
			c-1.9,4.18-3.57,8.54-4.98,13.04c-3.47,11.08-5.37,23.06-5.37,35.56c0,10.43,1.32,20.48,3.77,29.95
			c0.93,3.62,2.03,7.15,3.29,10.58c2.23,6.13,4.96,11.95,8.13,17.38c0.02,0.05,0.04,0.1,0.07,0.14c0.9,1.54,1.83,3.05,2.81,4.53"/>
	</g>
</g>
</svg>
