<?xml version="1.0" encoding="utf-8"?>
<!-- Generator: Adobe Illustrator 27.7.0, SVG Export Plug-In . SVG Version: 6.00 Build 0)  -->
<svg version="1.1" xmlns="http://www.w3.org/2000/svg" xmlns:xlink="http://www.w3.org/1999/xlink" x="0px" y="0px"
	 viewBox="0 0 252 144" style="enable-background:new 0 0 252 144;" xml:space="preserve">
<style type="text/css">
	.st0{fill:#0DB4D7;}
	.st1{fill:none;stroke:#0DB4D7;stroke-width:0.5;stroke-miterlimit:10;}
</style>
<g id="Guides">
</g>
<g id="Crop_Marks">
	<rect x="0" y="0" width="252" height="144"/>
	<g>
		<g>
			<g>
				<circle class="st0" cx="62.33" cy="132.5" r="1.38"/>
				<circle class="st0" cx="70.68" cy="109.57" r="1.38"/>
				<circle class="st0" cx="70.68" cy="94.21" r="1.38"/>
				<circle class="st0" cx="40.44" cy="99.39" r="1.38"/>
				<circle class="st0" cx="59.57" cy="95.69" r="1.38"/>
				<circle class="st0" cx="69.3" cy="48.07" r="1.38"/>
				<circle class="st0" cx="65.09" cy="40.32" r="1.38"/>
				<circle class="st0" cx="41.82" cy="56.95" r="1.38"/>
				<circle class="st0" cx="39.06" cy="46.69" r="1.38"/>
				<circle class="st0" cx="54.39" cy="15.88" r="1.38"/>
				<circle class="st0" cx="43.2" cy="3.81" r="1.38"/>
				<circle class="st0" cx="46.37" cy="5.19" r="1.38"/>
				<circle class="st0" cx="28.78" cy="29.89" r="1.38"/>
				<circle class="st0" cx="39.06" cy="7.95" r="1.38"/>
				<circle class="st0" cx="21.99" cy="9.33" r="1.38"/>
				<circle class="st0" cx="9.96" cy="5.19" r="1.38"/>
				<circle class="st0" cx="32.95" cy="142.62" r="1.38"/>
			</g>
		</g>
		<g>
			<g>
				<path class="st1" d="M0,0l9.96,5.19l4-5.19c0,0,21.2,53.1,26.13,98.63c0,0-16.72-37.24-40.09-50.86"/>
				<path class="st1" d="M0,25.76L21.99,9.33l17.07-1.38c0,0,7.31-1.38,7.31-2.76c0,0-1.78-1.38-3.16-1.38L37.68,0"/>
				<path class="st1" d="M52.68,144c1.56-4.91,3.63-11.86,5.72-20.09c2.1-8.35,4.2-18.02,5.79-28.25c0.53-3.4,1-6.87,1.4-10.37
					c0.25-2.24,0.47-4.5,0.65-6.76c1.01-12.48,0.91-25.17-1.15-36.83c0,0,3.22,3.82,4.03,5.7c0,0,0.01,0.01,0.01,0.02
					c0.11,0.26,0.17,0.48,0.17,0.65c0,0.11,0.03,0.44,0.07,0.95c0,0.01,0,0.02,0,0.03c0.55,5.75,3.65,34.65,1.31,60.52
					c-0.05,0.58-0.13,1.18-0.24,1.8c-0.53,3.21-1.73,6.84-3.29,10.58c-1.41,3.37-3.11,6.84-4.9,10.16
					c-2.36,4.39-4.85,8.54-6.97,11.89"/>
				<path class="st1" d="M0.03,115.69c1.02-0.19,25.29-4.76,43.31-0.17c3.58,0.91,6.91,2.18,9.77,3.92
					c2.03,1.24,3.82,2.71,5.29,4.47c1.88,2.25,3.23,4.95,3.85,8.2c0.03,0.13,0.06,0.26,0.08,0.39c0,0-1.28,3.03-3.31,6.83
					c-0.02,0.05-0.04,0.1-0.07,0.14c-0.78,1.45-1.67,3-2.63,4.53"/>
				<path class="st1" d="M47.75,0l-1.38,5.19c0,0,6.56,6.01,8.02,10.69c0,0,2.11,2.48,4.46,6.28c0.01,0,0.01,0.01,0.01,0.01
					c1.82,2.94,3.77,6.67,5,10.65c0.75,2.45,1.23,4.99,1.23,7.5c0,0-6.19-7.01-14.73-14.4c-8.4-7.28-19.08-14.91-28.37-16.59
					c0,0,6.03,13.97,6.79,20.56c0,0,7.64,9.77,9.97,15.9c0.12,0.31,0.22,0.61,0.31,0.9c0,0-6.7-7.35-13.7-16.13
					c-4.02-5.03-8.14-10.54-11.16-15.41c-2.02-3.26-3.56-6.23-4.24-8.58c0,0,2.14,2.84,5.64,7.54c2.12,2.84,4.73,6.36,7.66,10.35
					c4.6,6.26,9.99,13.65,15.49,21.33c1.67,2.34,3.36,4.71,5.04,7.08c7.82,11.07,15.44,22.2,20.89,30.95
					c0.31,0.5,0.62,0.99,0.91,1.47c2.12,3.45,3.86,6.47,5.09,8.92c0,0-3.16,1.02-6.49,1.45c-1.61,0.21-3.27,0.28-4.62,0.03
					L46.09,98.3l-4.3,0.83l-0.08,0.01l-1.27,0.25l-40.41,16.3C0.01,115.7,0,115.7,0,115.7"/>
				<path class="st1" d="M33.67,144l-0.72-1.38c0,0,6.41-10.29,10.39-27.1c1.23-5.16,2.23-10.94,2.75-17.22
					c1-12.15,0.19-26.2-4.27-41.35c0,0,0.83-1.49,1.97-4.08c2.39-5.43,6.16-15.66,6.57-26.95c0.21-6.12-0.56-12.54-3.08-18.68
					C47,6.55,46.7,5.87,46.37,5.19"/>
				<path class="st1" d="M54.39,15.88c0,0,0.53,1.97,2.28,3.77c0.66,0.68,1.4,1.51,2.18,2.51c0.01,0,0.01,0.01,0.01,0.01
					c3.42,4.35,7.68,11.81,9.98,23.69c0.1,0.5,0.19,1.02,0.28,1.54c0,0,0.01,0.01,0.01,0.02c0.07,0.44,0.15,0.89,0.22,1.35
					c0,0,0.01,0.09,0.02,0.25c0,0.01,0,0.02,0,0.03c0.11,2.03,0.65,14.95-3.13,29.48c-0.45,1.75-0.97,3.52-1.56,5.29
					c-1.32,3.98-2.99,8-5.11,11.87c0,0-1.56,9.89-6.46,23.75c-2.61,7.36-6.16,15.85-10.92,24.56"/>
				<path class="st1" d="M56.14,144c0.98-1.48,1.91-2.99,2.81-4.53c0.03-0.04,0.05-0.09,0.07-0.14c3.17-5.43,5.9-11.25,8.13-17.38
					c1.26-3.43,2.36-6.96,3.29-10.58c2.45-9.47,3.77-19.52,3.77-29.95c0-12.5-1.9-24.48-5.37-35.56c-1.41-4.5-3.08-8.86-4.98-13.04
					c-2.12-4.62-4.52-9.02-7.19-13.17c-2.84-4.44-5.98-8.59-9.39-12.41c-0.44-0.49-0.88-0.98-1.33-1.46
					c-0.55-0.59-1.1-1.18-1.67-1.75h-0.01C42.92,2.64,41.52,1.29,40.09,0"/>
			</g>
		</g>
	</g>
</g>
</svg>
