<?xml version="1.0" encoding="utf-8"?>
<!-- Generator: Adobe Illustrator 27.7.0, SVG Export Plug-In . SVG Version: 6.00 Build 0)  -->
<svg version="1.1" xmlns="http://www.w3.org/2000/svg" xmlns:xlink="http://www.w3.org/1999/xlink" x="0px" y="0px"
	 viewBox="0 0 500 450" style="enable-background:new 0 0 500 450;" xml:space="preserve">
<style type="text/css">
	.st0{fill:#E8B620;}
</style>
<g id="Layer_2">
</g>
<g id="Layer_1">
	<g>
		<path class="st0" d="M250.14,346.25c-28.46-2.29-52.92-11.97-74.22-30.02c-12.39-10.5-20.75-23.79-28.93-37.39
			c-2.22-3.68-1.82-5.9,2.33-7.9c15.27-7.35,15.24-7.47,24.43,6.7c28.77,44.37,95.94,57.29,139.67,16.56
			c7.15-6.66,13.28-13.86,17.83-22.4c2.7-5.07,5.78-6.69,11.59-4.41c17.97,7.06,14.99,6.01,7.06,19.65
			c-14.81,25.48-36.43,42.34-63.85,52.17C274.2,343.47,261.61,344.13,250.14,346.25z"/>
		<path class="st0" d="M204.12,202.01c-11.39-0.07-22.93-11.39-23.07-22.64c-0.15-11.98,11.57-23.41,23.85-23.28
			c11.27,0.13,22.51,11.92,22.21,23.31C226.81,191.05,215.6,202.07,204.12,202.01z"/>
		<path class="st0" d="M319.49,178.72c0.21,11.5-10.65,22.84-22.3,23.29c-11.5,0.44-23.63-11.14-23.75-22.67
			c-0.12-11.72,10.96-22.82,23.16-23.22C307.77,155.75,319.28,167.12,319.49,178.72z"/>
	</g>
	<path class="st0" d="M251.61,41.2C148.68,40.79,65.89,123.49,65.99,224.22c0.1,103.54,80.8,182.95,182.77,185.07
		c107.39,2.24,187.56-84.83,185.61-181.45C438.1,130.24,355.62,41.61,251.61,41.2z M248.95,385.4
		c-88.72-1.85-158.94-70.94-159.03-161.04C89.83,136.7,161.87,64.75,251.43,65.1c90.51,0.36,162.27,77.47,159.03,162.41
		C412.16,311.58,342.4,387.35,248.95,385.4z"/>
</g>
</svg>
