<?xml version="1.0" encoding="utf-8"?>
<!-- Generator: Adobe Illustrator 27.7.0, SVG Export Plug-In . SVG Version: 6.00 Build 0)  -->
<svg version="1.1" xmlns="http://www.w3.org/2000/svg" xmlns:xlink="http://www.w3.org/1999/xlink" x="0px" y="0px"
	 viewBox="0 0 500 450" style="enable-background:new 0 0 500 450;" xml:space="preserve">
<style type="text/css">
	.st0{fill:#E8B620;}
	.st1{fill:none;stroke:#E8B620;stroke-width:5;stroke-miterlimit:10;}
</style>
<g id="Layer_2">
</g>
<g id="Layer_1">
	<g>
		<path class="st0" d="M53.43,379.1c0.66,1.06,1.33,2.13,2.39,3.83c1.87-5.28,3.35-10.27,5.39-15.02
			c7.92-18.42,22.41-30.65,38.95-40.9c5.35-3.32,11.2-5.72,14.63-11.83c2.53-4.5,6.38-3.59,8.11,1.5c0.81,2.37,1.29,5.01,1.2,7.5
			c-0.22,6.58,2.98,7.88,8.7,6.56c3.03-0.7,7.23-2.72,8.69,1.54c1.33,3.88-2.13,6.52-5.24,8.43c-2.6,1.59-5.39,2.91-8.15,4.22
			c-10.05,4.77-12.04,4.03-14.69-6.68c-1.18-4.8-3.21-5.2-6.95-2.99c-22.6,13.36-36.96,32.45-40.62,58.84
			c-1.73,12.45-2.91,14.01-12.41,14.15C53.43,398.53,53.43,388.81,53.43,379.1z"/>
		<path class="st0" d="M446.48,371.52c0,9.71,0.03,19.43-0.02,29.14c-0.02,3.43-0.31,7.21-4.6,7.66c-4.51,0.47-5.14-3.6-5.75-6.76
			c-0.62-3.23-0.64-6.59-0.73-9.9c-0.55-19.91,1.19-39.87-1.59-59.73c-2.21-15.78-9.45-28.96-20.1-40.5
			c-4.01-4.35-7.48-3.91-11.51,0.38c-8.46,9.01-18.54,15.93-29.4,21.86c-23.46,12.8-46.12,11.1-68.07-3.38
			c-8.52-5.62-17.05-11.38-23.92-19.08c-4.14-4.65-7.53-3.85-11.45,0.31c-6.55,6.97-12.18,14.43-15.19,23.66
			c-1.74,5.34-3.46,10.71-5.65,15.87c-1.33,3.13-3.89,5.96-7.77,4.6c-3.85-1.34-2.84-4.88-2.27-7.9
			c2.73-14.34,8.47-27.39,17.87-38.54c8.6-10.2,18.26-19.05,31.11-24.22c7.93-3.19,14.12-3.02,20,3.47c2.55,2.82,5.6,5.24,8.65,7.54
			c18.07,13.67,36.78,12.82,53.6-2.3c16.31-14.66,16.74-14.48,35.18-2.64c28.31,18.17,40.92,44.59,41.64,77.47
			c0.17,7.67,0.02,15.34,0.02,23.01C446.5,371.52,446.49,371.52,446.48,371.52z M339.47,311.13c14.42-0.72,26.91-4.25,37.3-13.63
			c4.53-4.09,9.54-7.66,14.09-11.75c2.25-2.02,6.91-3.85,4.35-7.63c-2.63-3.9-7.47-4.55-11.66-2.01c-3.46,2.09-6.46,4.96-9.57,7.59
			c-22.29,18.83-44.05,18.72-66.02-0.31c-3.27-2.83-6.54-5.74-10.14-8.11c-4.24-2.78-8.31-0.6-10.81,2.61
			c-2.8,3.6,1.5,5.25,3.63,7.01c6.29,5.19,12.66,10.31,19.21,15.15C318.88,306.72,329.09,310.39,339.47,311.13z"/>
		<path class="st0" d="M406.61,194.43c0.15,6.14-1.38,11.69-5.54,15.74c-6.54,6.36-9.09,14.5-12.26,22.63
			c-7.14,18.32-20.08,30.82-39.75,34.59c-21.74,4.16-46.11-10.65-54.07-32.44c-3.26-8.94-6.96-17.28-13.02-24.9
			c-8.96-11.25-8.04-20.22,1.58-31.44c3.1-3.61,4.47-8.01,6.27-12.21c9.3-21.7,30.94-36.51,52.59-35.86
			c21.63,0.64,42.85,16.06,51.06,37.14c2.06,5.3,4.8,10.18,8.64,14.37C405.42,185.67,406.87,189.86,406.61,194.43z M341.82,142.8
			c-24.36-0.1-43.44,18.17-44.65,42.81c-0.12,2.38-0.18,4.28-3.05,5.37c-8.12,3.09-9.3,6.26-3.15,11.81
			c7.72,6.97,10.76,15.7,13.27,25.2c4.07,15.4,19.17,27.83,34.82,29.31c14.03,1.33,31.88-9.52,37.9-24.03
			c4.64-11.16,6.34-23.57,16.47-32.12c2.61-2.2,4.01-7.86-1.42-9.25c-5.16-1.32-5.4-4.33-5.75-8.31
			C384.24,160.04,365.5,142.89,341.82,142.8z"/>
		<path class="st0" d="M247.34,176.54c10.46,0.12,10.44,0.11,7.13,10.4c-0.37,1.14-0.54,2.54-0.23,3.66
			c6.58,23.42,8.79,47.66,13.63,71.4c0.99,4.84-0.16,8.53-4.26,11.31c-2.11,1.43-4.07,3.13-6.26,4.43
			c-4.33,2.57-7.33,10.86-13.84,5.1c-7.46-6.6-19.49-10.11-15.99-24.83c5.31-22.34,6.7-45.45,12.14-67.82
			c0.29-1.19,0.23-2.54-0.01-3.76C237.67,176.42,237.65,176.43,247.34,176.54z"/>
		<path class="st0" d="M246.3,169.28c-20,1.95-40.78-18.46-45.55-33.05c-3.02-9.24-6.11-18.18-13.19-25.54
			c-5.11-5.32-6.45-12.73-5.25-20.15c1.23-7.62,7.05-11.27,13.81-9.18c3.29,1.02,5.21,3.09,5.74,6.45c0.52,3.32-1.77,4.51-4.31,5.35
			c-4.86,1.62-4.55,4.86-2.65,8.5c0.94,1.8,1.79,3.91,3.29,5.11c6.88,5.5,8.8,13.37,11.24,21.24c5.51,17.8,20.89,29.99,37.36,30.25
			c15.83,0.25,31.92-11.15,37.17-27.06c3.13-9.48,5.69-18.78,13.69-25.95c4.23-3.79,6.33-9.83-2.07-13.1
			c-2.73-1.06-3.34-3.75-2.75-6.49c0.56-2.57,2.54-3.62,4.92-4.22c7.03-1.79,12.31,1.06,13.92,8.23c1.75,7.8,0.97,15.79-4.61,21.64
			c-6.65,6.97-9.97,15.22-12.9,23.99C287.34,155.72,267.86,169.45,246.3,169.28z"/>
		<path class="st0" d="M193.07,311.56c-6.6,4.76-12.87,9.75-20.75,12.76c-24.45,9.36-53.08-10.57-60.47-32.75
			c-3.03-9.08-6.82-17.34-13.02-24.85c-5.58-6.75-7.32-15.09-3.83-23.83c1.49-3.75,4.28-5.71,8.12-6.07
			c4.16-0.39,7.54,1.5,9.92,4.76c3.01,4.13-0.04,6.25-3.33,7.41c-7.24,2.54-6.13,7.04-2.22,11.03c7.65,7.8,11.38,17.2,14.23,27.51
			c4.12,14.92,20.25,26.6,35.71,27.03c15.17,0.42,32.13-10.56,37.32-24.8c3.84-10.52,6.34-21.45,15.49-29.35
			c3.32-2.87,4.3-7.73-0.97-10.98c-2.73-1.68-7.95-1.92-5.08-7.24c2.53-4.7,10.05-6.55,14.11-3.75c3.61,2.48,5.29,6.14,5.61,10.44
			c0.54,7.25-1.64,13.7-6.37,19.13c-5.32,6.1-9.18,12.89-10.81,20.85c-1.9,9.22-8.79,15.4-13.72,22.78L193.07,311.56z"/>
		<path class="st1" d="M225.91,92.36c16.73,3.16,33.46-0.89,50.19-0.27c9.75,0.36,11.67,2.4,10.66,12.08
			c-0.92,8.86-6.89,14.96-16.34,16.72c-7.93,1.48-13.5-1.97-17.9-10.97c-1.29-2.63-1.67-6.45-5.71-6.24
			c-3.59,0.19-3.73,3.77-4.8,6.21c-4.61,10.46-11.59,13.67-22.09,9.99c-8.12-2.84-15.02-14.95-13.16-22.73
			c0.82-3.44,3.34-4.51,6.16-4.72C217.23,92.13,221.58,92.36,225.91,92.36z"/>
		<path class="st0" d="M193.01,311.62c2.8,0.15,6.27-0.32,7.79,2.28c5.56,9.49,15.92,12.46,24.16,18.18
			c24.45,16.95,36.66,40.37,38.51,69.66c0.17,2.74,0.69,6.26-2.98,6.9c-3.81,0.67-6.37-2-7.21-5.46c-1.08-4.44-1.35-9.07-2.22-13.57
			c-4.61-23.8-18.61-40.83-38.63-53.56c-5.47-3.47-8.13-1.93-9.64,4.17c-2.23,8.99-3.45,9.43-12.19,5.84
			c-4.71-1.93-9.6-3.63-13.14-7.58c-1.75-1.96-3.24-4.23-1.75-6.9c1.37-2.45,3.96-1.95,6.2-1.69c10.64,1.24,10.64,1.27,10.97-9.9
			c0.08-2.8,0.12-5.61,0.18-8.42C193.07,311.56,193.01,311.62,193.01,311.62z"/>
		<path class="st0" d="M159.63,185.77c12.17,0.02,24.44-1.35,35.95,4.69c10.66,5.59,17.34,13.94,20.12,25.52
			c0.86,3.59,1.49,7.59-2.84,9.16c-4.37,1.59-6.94-1.76-7.88-5.28c-5.2-19.56-20.12-23.1-37.29-23.13
			c-9.43-0.02-18.86,0.11-28.3,0.03c-3.74-0.03-7.56-0.7-7.49-5.6c0.07-4.39,3.7-5.21,7.09-5.32
			C145.86,185.62,152.75,185.77,159.63,185.77z"/>
		<path class="st0" d="M155.33,199.95c9.15-0.28,18.34-1.33,27.31,1.85c13.02,4.61,21.81,16.49,21.7,30.25
			c-0.02,2.78,0.23,6.18-3.27,6.96c-3.77,0.85-5.25-2.31-6.6-5.13c-0.22-0.46-0.33-0.97-0.5-1.45
			c-7.25-19.87-8.32-20.49-29.78-20.65c-9.68-0.07-19.42,0.89-29.04-0.84c-3.52-0.63-7.73-1.36-7.39-6.09
			c0.31-4.27,4.52-4.64,7.69-4.81C142.05,199.7,148.69,199.95,155.33,199.95z"/>
		<path class="st0" d="M251.39,52.58c-6.11,0-12.24-0.29-18.34,0.06c-12,0.68-17.93,5.75-21.33,17.23
			c-1.44,4.88-1.82,12.74-8.83,10.85c-7.14-1.92-3.25-9.1-2.12-13.87c3.74-15.86,15.73-25.35,31.92-25.57
			c12.74-0.17,25.48-0.07,38.21,0c3.62,0.02,7.71,0.08,7.86,5.08c0.15,4.91-4.07,5.59-7.52,5.79c-6.6,0.39-13.24,0.11-19.86,0.11
			C251.39,52.38,251.39,52.48,251.39,52.58z"/>
		<path class="st0" d="M399.91,376.66c0.46-8.16-0.74-16.38,0.86-24.47c0.58-2.96,1.29-6.57,5.33-6.36c3.9,0.2,4.79,3.65,4.84,6.76
			c0.24,16.58,2.65,33.15,0.18,49.73c-0.41,2.73-0.33,6.21-4.1,6.32c-3.64,0.11-5.24-2.85-5.98-6
			C399.05,394.07,400.44,385.32,399.91,376.66z"/>
		<path class="st0" d="M282.2,379.06c0,7.39,0.1,14.78-0.05,22.16c-0.07,3.31-0.26,7.22-4.65,7.56c-4.46,0.35-6.49-2.96-6.5-6.87
			c-0.07-16.55,0.04-33.11,0.33-49.66c0.05-3.07,1.41-6.48,5.19-6.48c3.86,0,5,3.58,5.11,6.56c0.31,8.9,0.11,17.81,0.11,26.72
			C281.89,379.05,282.04,379.06,282.2,379.06z"/>
		<path class="st0" d="M170.33,266.6c0,2.81,0.06,5.62-0.01,8.42c-0.29,10.65-7.82,15.67-17.79,11.9c-4.31-1.63-5.24-6.84-0.91-8.69
			c7.68-3.29,7.79-9.07,7.41-15.65c-0.15-2.54,0-5.11,0.11-7.65c0.15-3.4,1.52-6.28,5.2-6.44c4.21-0.18,5.62,3.03,5.82,6.63
			c0.21,3.82,0.05,7.65,0.05,11.48C170.25,266.6,170.29,266.6,170.33,266.6z"/>
		<path class="st0" d="M200.99,151.49c2.48,0.15,4.66,0.05,5.59,2.42c0.72,1.82,0.29,3.56-1.02,4.97c-1.04,1.11-2.11,2.35-3.43,3.01
			c-10.07,5.09-19.34,11.31-27.8,18.79c-2.2,1.95-4.99,2.99-7.49,0.29c-2-2.15-2.16-5-0.32-7.02
			C176.15,163.43,187.74,155.82,200.99,151.49z"/>
		<path class="st0" d="M174.35,386.98c0.08,4.11-2.18,5.15-5.43,3.67c-6.97-3.18-13.9-6.48-20.62-10.14
			c-3.22-1.76-4.58-11.31-2.2-13.98c3.28-3.68,6.73-0.98,9.67,0.64c7.36,4.08,16.91,5.98,17.95,16.86
			C173.81,385.03,174.13,386.02,174.35,386.98z"/>
		<path class="st0" d="M158.29,332.86c11.83-0.02,12.01,0.11,6.6,11.01c-1.28,2.57-0.23,3.67,1.13,5.25
			c2.5,2.91,4.17,6.53,1.77,9.77c-2.71,3.65-6.09,0.52-8.93-0.74c-5.57-2.47-12.21-4.48-8.21-13.09c0.26-0.55-0.24-1.47-0.42-2.2
			C147.85,332.88,147.84,332.88,158.29,332.86z"/>
		<path class="st0" d="M175,405.47c-10.95,0-19.8,0.04-28.65-0.03c-2.56-0.02-5.48-0.15-5.93-3.44c-0.48-3.55-0.14-7.25,2.19-10.15
			c1.87-2.33,4.22-0.71,6.22,0.24C157,395.98,166.1,398,175,405.47z"/>
		<path class="st0" d="M299.13,71.97c-0.18,3.07,0.29,6.29-3.44,7.1c-3.3,0.72-5.51-1.33-6.63-4.04
			c-2.33-5.66-4.31-11.46-6.38-17.22c-0.74-2.08-0.64-4.1,1.36-5.48c1.98-1.37,3.92-0.8,5.66,0.55
			C296,57.8,298.47,64.59,299.13,71.97z"/>
		<path class="st0" d="M124.08,214.5c-1.22,5.18-2.53,10.9-6.78,15.31c-1.9,1.96-4.38,2.91-6.9,1.39c-2.37-1.43-2.05-3.95-1.36-6.18
			c1.59-5.11,3.6-10.07,6.77-14.43c1.37-1.87,3.25-3.62,5.8-2.55C124.08,209.09,124.14,211.59,124.08,214.5z"/>
		<path class="st1" d="M340.74,190.43c9.7,0,19.41-0.19,29.1,0.05c9.52,0.23,12.77,4.76,10.52,13.98
			c-3.73,15.29-19.5,20.9-31.5,10.73c-5.24-4.44-8.94-5.44-14.21-0.12c-5.66,5.71-16.61,6.37-23.56,2.53c-5.11-2.83-10-13.4-9.31-20
			c0.58-5.53,4.24-7.16,9.09-7.18c9.96-0.05,19.91-0.01,29.87-0.01C340.74,190.41,340.74,190.42,340.74,190.43z"/>
	</g>
</g>
</svg>
