<?xml version="1.0" encoding="utf-8"?>
<!-- Generator: Adobe Illustrator 27.7.0, SVG Export Plug-In . SVG Version: 6.00 Build 0)  -->
<svg version="1.1" xmlns="http://www.w3.org/2000/svg" xmlns:xlink="http://www.w3.org/1999/xlink" x="0px" y="0px"
	 viewBox="0 0 500 450" style="enable-background:new 0 0 500 450;" xml:space="preserve">
<style type="text/css">
	.st0{fill:#E8B620;}
</style>
<g id="Layer_2">
</g>
<g id="Layer_1">
	<g>
		<path class="st0" d="M54.8,77.65c1.33-3.99,3.77-7.41,8.08-9.45c9.7-4.58,23.07-3.49,33.52-3.49
			c70.76,0.03,141.52,0.06,212.27,0.1c10.47,0,22.46,0.71,28.91,8.96c4.71,6.03,4.93,14.31,4.94,21.95
			c0.05,42.37,0.11,84.74,0.16,127.11c0.01,9.22-0.37,19.48-6.84,26.05c-6.65,6.76-17.24,7.13-26.72,7.07
			c-20.02-0.13-40.03-0.27-60.05-0.4c-2.4-0.02-5.71,0.93-5.36,3.31c0.24,1.66,2.22,2.37,3.89,2.56c4.25,0.5,8.67-0.15,12.76,1.12
			c4.09,1.26,7.81,5.56,6.29,9.57c-1.55,4.1-6.97,4.78-11.36,4.79c-38.12,0.05-76.23,0.1-114.35,0.15
			c-5.3,0.01-12.16-1.22-13.04-6.45c-0.68-4.1,3.31-7.64,7.36-8.56c4.05-0.93,8.29-0.16,12.42-0.57c2.12-0.21,4.78-1.52,4.34-3.61
			c-0.39-1.86-2.84-2.27-4.74-2.26c-18.61,0.08-37.23,0.15-55.84,0.23c-10.71,0.04-22.2-0.15-30.94-6.33
			c-2.66-1.88-5.02-4.36-6.13-7.43c-0.92-2.55-0.94-5.32-0.94-8.03c-0.03-48.57-0.06-97.14-0.08-145.71
			C53.36,84.7,53.7,80.98,54.8,77.65z M197.42,241.42c39.85,0,79.71,0.03,119.56-0.02c8.93-0.01,10.42-1.39,10.43-10.01
			c0.05-47.73-0.06-95.45,0.02-143.18c0.01-6.03-2.57-8.95-8.51-9.2c-7.35-0.31-14.69-1-22.04-1.01c-49.2-0.1-98.4-0.15-147.6-0.06
			c-23.83,0.04-47.66,0.42-71.49,0.66c-7.65,0.08-10.58,4.15-10.78,11.6c-1.24,46.17-1.88,92.34,0.17,138.51
			c0.51,11.49,1.66,12.7,12.95,12.71C119.23,241.46,158.32,241.44,197.42,241.42z M197.08,261.38c7.59,0,15.18,0.05,22.77-0.04
			c1.95-0.02,4.76,0.17,5-2.26c0.25-2.52-2.61-2.99-4.48-3.02c-15.18-0.24-30.35-0.31-45.53-0.36c-1.75,0-3.92,0.37-4.07,2.56
			c-0.19,2.84,2.33,3.03,4.29,3.06C182.4,261.44,189.74,261.37,197.08,261.38z"/>
		<path class="st0" d="M443.85,169.32c0,25.13,0.01,50.26-0.01,75.38c0,2.79,0.07,5.6-0.24,8.37c-1.73,15.53-8.95,22.86-24.6,23.55
			c-13.68,0.6-27.43,0.61-41.1,0c-16.02-0.71-23.94-9.15-24.58-25.12c-2.2-55.04,0.84-110.09,0.1-165.13
			c-0.18-13.07,7.4-20.76,20.92-21.32c15.96-0.66,31.99-0.6,47.95,0.02c13.76,0.54,21.37,9.22,21.47,23.55
			c0.18,26.9,0.05,53.81,0.05,80.71C443.82,169.32,443.84,169.32,443.85,169.32z M367.44,113.39c0.58,0,1.16,0,1.74,0
			c0-7.3-0.08-14.6,0.02-21.89c0.09-6.54,3.75-9.7,10.1-9.72c12.43-0.05,24.86-0.06,37.29,0.1c7.18,0.09,10.46,3.99,10.31,11.18
			c-0.18,8.62-0.11,17.25-0.1,25.88c0.04,21.82,0.18,43.64,0.11,65.46c-0.01,4.2,0.34,9.63-5.55,10.14
			c-14.38,1.25-28.81,2.58-43.26,0.72c-6.33-0.81-9.31-4.58-9.3-10.87c0.01-4.6,0-9.2,0-13.8c-3.57,10.33-1.38,20.68-1.44,30.99
			c-0.1,17-0.05,34-0.21,51c-0.05,5.95,1.74,10.42,8.49,9.79c15.21-1.42,30.43-0.56,45.64-0.67c6.16-0.05,8.64-2.68,8.53-8.78
			c-0.23-12.43-0.14-24.86-0.14-37.3c-0.01-41.61-0.08-83.22,0.09-124.83c0.03-6.57-1.76-11.27-8.86-11.53
			c-14.91-0.54-29.8-3.06-44.77-0.44c-5.24,0.92-8.48,3.65-8.64,8.95C367.26,96.29,367.44,104.84,367.44,113.39z M398.25,124.27
			c4.05,0,8.11-0.18,12.14,0.05c5.26,0.3,7.33-2.06,7.15-7.2c-0.21-6.07-0.15-12.15-0.07-18.22c0.06-4.45-1.97-6.46-6.44-6.39
			c-7.34,0.11-14.71,0.45-22.01-0.05c-7.4-0.51-10.34,2.35-9.32,9.59c0.17,1.24-0.01,2.53,0,3.79
			C379.85,126.87,376.63,123.97,398.25,124.27z M398.8,155c-4.55,0-9.1-0.03-13.64,0.01c-3.22,0.03-5.37,1.32-5.32,4.92
			c0.05,3.4,1.88,5.19,5.18,5.22c9.09,0.07,18.19,0.08,27.28-0.05c3.31-0.05,5.01-1.96,4.94-5.39c-0.08-3.7-2.43-4.67-5.54-4.69
			C407.39,154.98,403.09,155.01,398.8,155z M398.58,184.74c0,0.07,0,0.13,0,0.2c4.57,0,9.14,0.13,13.7-0.05
			c2.94-0.11,5.82-1.08,5.93-4.61c0.09-3.18-2.75-4.22-5.22-4.61c-9.58-1.5-19.23-0.89-28.86-0.51c-2.83,0.11-4.8,2.08-5.02,4.89
			c-0.26,3.29,2.49,4.42,5.02,4.59C388.93,184.97,393.77,184.74,398.58,184.74z M398.69,143.95c0,0.03,0,0.05,0,0.08
			c4.04,0,8.07,0.02,12.11-0.01c3.15-0.02,6.4-0.14,6.49-4.44c0.09-4.42-3.05-5.54-6.61-5.45c-8.56,0.21-17.12,0.64-25.68,1.04
			c-2.7,0.13-5.17,0.84-5.02,4.27c0.14,3.12,2.3,4.39,5.09,4.47C389.6,144.04,394.15,143.95,398.69,143.95z"/>
		<path class="st0" d="M197.03,382.28c-32.22,0-64.44,0.02-96.66-0.01c-9.96-0.01-12-1.89-12.07-12.05
			c-0.15-24.61-0.15-49.22-0.05-73.83c0.04-9.47,2.75-12.08,12.48-12.1c64.95-0.11,129.9-0.15,194.85-0.15
			c8.36,0,11.03,2.43,11.09,10.9c0.18,25.62,0.14,51.25-0.04,76.87c-0.06,8.34-2.45,10.33-11.41,10.34
			C262.49,382.3,229.76,382.27,197.03,382.28z M197.27,367.91c0,0.04,0,0.07,0,0.11c28.68,0,57.37-0.15,86.05,0.11
			c6.76,0.06,9.5-1.75,9.24-9.05c-0.61-16.73-0.52-33.49-0.47-50.23c0.03-9.52-0.51-10.54-10.04-10.54
			c-57.11-0.01-114.22,0.15-171.33,0.03c-6.43-0.01-8.36,2.51-8.27,8.6c0.25,17.51,0.35,35.03-0.06,52.54
			c-0.16,6.83,2.28,8.63,8.84,8.56C139.9,367.74,168.59,367.91,197.27,367.91z"/>
		<path class="st0" d="M367.4,332.12c0.4,5.6,0.14,11.15-1.5,16.56c-3.44,11.41-15.48,20.37-26.15,19.41
			c-13.27-1.19-24.72-11.3-25.85-23.87c-0.7-7.78-0.66-15.77,0.25-23.52c1.72-14.6,12.88-24.46,26.43-24.4
			c13.79,0.07,24.93,10.43,26.75,25.18C367.77,324.98,367.4,328.57,367.4,332.12z M353.48,337.76c0.18-8.99-0.92-10.15-9.76-10.33
			c-14.7-0.3-15.78,0.22-15.95,7.72c-0.25,10.96,4.72,18.41,12.49,18.72C348.09,354.17,353.28,347.86,353.48,337.76z"/>
		<path class="st0" d="M197.7,235.97c-37.05,0-74.09,0-111.14,0c-12.61,0-15-2.18-15.08-15.17c-0.17-26.36-0.09-52.72-0.13-79.07
			c-0.02-14.42-1.1-28.82-0.55-43.27c0.41-11,3.29-14.53,14.11-15.57c20.51-1.98,41.07-0.9,61.6-0.99
			c43.9-0.19,87.8-0.14,131.69,0.04c11.4,0.05,22.79,0.95,34.19,1.43c6.38,0.27,9.63,3.06,9.61,9.93
			c-0.14,44.66-0.16,89.32,0.01,133.98c0.03,7.52-3.92,8.72-10.13,8.7c-38.06-0.12-76.12-0.06-114.18-0.06
			C197.7,235.92,197.7,235.94,197.7,235.97z M197.78,226.36c0,0.02,0,0.03,0,0.05c34.26,0,68.51,0.01,102.77-0.01
			c11.92-0.01,11.92-0.04,11.99-11.64c0.24-36.76,0.46-73.51,0.72-110.27c0.06-8.66-1.35-10.26-9.95-10.26
			c-69.28-0.02-138.55-0.01-207.83,0.03c-11.44,0.01-12.76,1.32-12.78,12.64c-0.06,36.54-0.07,73.08-0.06,109.62
			c0,9.21,0.63,9.81,10.09,9.82C127.74,226.37,162.76,226.36,197.78,226.36z"/>
		<rect x="107.76" y="302.94" class="st0" width="15.34" height="9.49"/>
		<rect x="126.1" y="302.94" class="st0" width="15.34" height="9.49"/>
		<rect x="144.44" y="302.94" class="st0" width="15.34" height="9.49"/>
		<rect x="162.78" y="302.94" class="st0" width="15.34" height="9.49"/>
		<rect x="181.12" y="302.94" class="st0" width="15.34" height="9.49"/>
		<rect x="199.45" y="302.94" class="st0" width="15.34" height="9.49"/>
		<rect x="217.79" y="302.94" class="st0" width="15.34" height="9.49"/>
		<rect x="236.13" y="302.94" class="st0" width="15.34" height="9.49"/>
		<rect x="254.47" y="302.94" class="st0" width="15.34" height="9.49"/>
		<rect x="272.8" y="302.94" class="st0" width="15.34" height="9.49"/>
		<rect x="107.76" y="315.43" class="st0" width="15.34" height="9.49"/>
		<rect x="126.1" y="315.43" class="st0" width="15.34" height="9.49"/>
		<rect x="144.44" y="315.43" class="st0" width="15.34" height="9.49"/>
		<rect x="162.78" y="315.43" class="st0" width="15.34" height="9.49"/>
		<rect x="181.12" y="315.43" class="st0" width="15.34" height="9.49"/>
		<rect x="199.45" y="315.43" class="st0" width="15.34" height="9.49"/>
		<rect x="217.79" y="315.43" class="st0" width="15.34" height="9.49"/>
		<rect x="236.13" y="315.43" class="st0" width="15.34" height="9.49"/>
		<rect x="254.47" y="315.43" class="st0" width="15.34" height="9.49"/>
		<rect x="272.8" y="315.43" class="st0" width="15.34" height="9.49"/>
		<rect x="107.76" y="327.93" class="st0" width="15.34" height="9.49"/>
		<rect x="126.1" y="327.93" class="st0" width="15.34" height="9.49"/>
		<rect x="144.44" y="327.93" class="st0" width="15.34" height="9.49"/>
		<rect x="162.78" y="327.93" class="st0" width="15.34" height="9.49"/>
		<rect x="181.12" y="327.93" class="st0" width="15.34" height="9.49"/>
		<rect x="199.45" y="327.93" class="st0" width="15.34" height="9.49"/>
		<rect x="217.79" y="327.93" class="st0" width="15.34" height="9.49"/>
		<rect x="236.13" y="327.93" class="st0" width="15.34" height="9.49"/>
		<rect x="254.47" y="327.93" class="st0" width="15.34" height="9.49"/>
		<rect x="272.8" y="327.93" class="st0" width="15.34" height="9.49"/>
		<rect x="107.76" y="340.42" class="st0" width="15.34" height="9.49"/>
		<rect x="126.1" y="340.42" class="st0" width="15.34" height="9.49"/>
		<rect x="144.44" y="340.42" class="st0" width="15.34" height="9.49"/>
		<rect x="162.78" y="340.42" class="st0" width="15.34" height="9.49"/>
		<rect x="181.12" y="340.42" class="st0" width="15.34" height="9.49"/>
		<rect x="199.45" y="340.42" class="st0" width="15.34" height="9.49"/>
		<rect x="217.79" y="340.42" class="st0" width="15.34" height="9.49"/>
		<rect x="236.13" y="340.42" class="st0" width="15.34" height="9.49"/>
		<rect x="254.47" y="340.42" class="st0" width="15.34" height="9.49"/>
		<rect x="272.8" y="340.42" class="st0" width="15.34" height="9.49"/>
		<rect x="107.76" y="352.92" class="st0" width="15.34" height="9.49"/>
		<rect x="126.1" y="352.92" class="st0" width="15.34" height="9.49"/>
		<rect x="144.44" y="352.92" class="st0" width="15.34" height="9.49"/>
		<rect x="162.78" y="352.92" class="st0" width="15.34" height="9.49"/>
		<rect x="181.12" y="352.92" class="st0" width="15.34" height="9.49"/>
		<rect x="199.45" y="352.92" class="st0" width="15.34" height="9.49"/>
		<rect x="217.79" y="352.92" class="st0" width="15.34" height="9.49"/>
		<rect x="236.13" y="352.92" class="st0" width="15.34" height="9.49"/>
		<rect x="254.47" y="352.92" class="st0" width="15.34" height="9.49"/>
		<rect x="272.8" y="352.92" class="st0" width="15.34" height="9.49"/>
	</g>
</g>
</svg>
