<?xml version="1.0" encoding="utf-8"?>
<!-- Generator: Adobe Illustrator 27.7.0, SVG Export Plug-In . SVG Version: 6.00 Build 0)  -->
<svg version="1.1" xmlns="http://www.w3.org/2000/svg" xmlns:xlink="http://www.w3.org/1999/xlink" x="0px" y="0px"
	 viewBox="0 0 500 450" style="enable-background:new 0 0 500 450;" xml:space="preserve">
<style type="text/css">
	.st0{fill:#E8B620;}
</style>
<g id="Layer_2">
</g>
<g id="Layer_1">
	<g>
		<path class="st0" d="M90.95,353.44c2.44-3.77,11.64-2.68,16.21-2.43c5.76,0.32,7.54-2.01,7.51-7.7
			c-0.21-33.19-0.1-66.38-0.11-99.57c0-4.81,0.28-9.56,1.07-14.33c2.9-17.5,14.7-28.2,32.56-28.51c18.57-0.32,37.16-0.03,55.73-0.17
			c7.08-0.06,14.16-0.71,21.25-0.85c4.3-0.08,5.87-2.08,5.83-6.23c-0.09-11.27,0.03-22.54,0.02-33.82
			c-0.01-7.62,1.8-14.1,9.96-16.94c3-1.05,3.87-3.45,3.84-6.46c-0.04-3.12,0.04-6.27,0.34-9.37c0.24-2.55,1.86-4.26,4.4-4.63
			c2.78-0.4,4.94,1.57,4.88,3.8c-0.26,9.58,2.81,16.7,11.63,21.69c3.19,1.8,3.07,7.03,3.14,11.07c0.19,11.04,1.51,22.07,0.01,33.12
			c-0.75,5.54,1.49,7.73,7.27,8.01c20.65,1.01,41.28,0.88,61.93,0.05c24.7-0.99,42.59,9.8,42.93,39.53
			c0.39,34.21,1.29,68.46-0.61,102.66c-0.31,5.61,1.33,8.08,7.25,7.92c5.19-0.14,10.41,0.56,15.59,1.08
			c2.72,0.28,5.67,0.88,6.46,4.02c0.89,3.58-2,4.51-4.58,5.56c-2.74,1.12-3.92,3.43-4.79,6.17c-3.96,12.46-10.6,17.53-23.87,18.08
			c-7.09,0.29-14.19,0.23-21.29,0.23c-74.31,0.02-148.63,0.02-222.94,0.01c-3.96,0-7.93-0.08-11.88-0.32
			c-10.93-0.66-17.63-6.71-20.8-16.87c-1.55-4.97-8.44-6.77-9.4-11.25C90.18,355.48,90.38,354.33,90.95,353.44z M247.71,351.11
			c0,0.01,0,0.02,0,0.04c11.89,0,23.78,0.09,35.67-0.02c26.9-0.25,53.81,0.6,80.71-0.49c3.76-0.15,6.01-0.78,6-5.06
			c-0.05-26.7,0.02-53.4-0.09-80.1c-0.02-5.27-1.72-6.07-6.06-3.33c-2.47,1.56-4.84,3.27-7.2,4.99
			c-16.66,12.2-30.11,12.29-46.92,0.27c-14.55-10.4-24.45-10.4-38.76,0.15c-4.22,3.11-8.47,5.98-13.67,7.34
			c-11.51,3.01-21.83,0.74-31.23-6.41c-6.19-4.71-12.47-8.91-20.94-8.47c-7.11,0.37-12.52,3.92-18.22,7.47
			c-6.12,3.8-8.73,8.63-8.28,16.01c0.47,7.65,0.92,15.46-1.16,23.03c-1.29,4.7-3.02,9-7.99,11.29
			c-10.62,4.88-21.23-2.37-22.27-15.67c-0.45-5.81-0.64-11.72-0.1-17.5c0.77-8.21-1.98-14.18-9.17-18.2
			c-1.81-1.01-3.37-2.47-5.16-3.52c-1.91-1.12-3.8-3.28-6.2-1.99c-2.47,1.33-1.5,4.12-1.51,6.29c-0.06,25.03-0.05,50.06-0.04,75.1
			c0,8.67,0.09,8.8,8.68,8.81C171.78,351.12,209.74,351.11,247.71,351.11z M247.63,211.45c-18.78,0-37.57-0.04-56.35,0.01
			c-13.77,0.04-27.59-0.5-41.3,0.49c-16.66,1.2-22.11,7.1-24.52,23.62c-1.55,10.65-0.91,11.86,8.72,16.36
			c0.38,0.18,0.78,0.32,1.13,0.53c24.34,14.68,23.9,12.62,23.04,38.75c-0.14,4.16-1.08,8.3,0.01,12.44
			c0.68,2.59,1.11,5.87,4.82,5.35c3.29-0.46,3.93-3.38,3.97-6.25c0.07-4.8-0.01-9.6,0.07-14.4c0.41-22.48-3.72-18.1,17.49-32.49
			c14.56-9.88,28.54-9.38,42.96,0.96c16.76,12.01,23.13,12.09,40,0.5c16.92-11.63,29.67-11.48,46.57,0.51
			c1.87,1.33,3.79,2.6,5.75,3.78c9.31,5.58,18.42,5.67,27.57-0.66c6.15-4.26,12-9.11,19.45-11.17c1.49-0.41,2.36-1.49,2.85-3.04
			c4.77-15.12-5.25-31.62-20.85-34.42c-3.94-0.71-7.86-0.9-11.83-0.89C307.33,211.44,277.48,211.44,247.63,211.45z M250.02,361.69
			c-41.72,0-83.43,0-125.15,0c-3.13,0-6.26-0.11-9.38,0.06c-5.4,0.28-6.86,3.25-3.89,7.82c3.13,4.83,8.03,5.44,13.21,5.44
			c83.64-0.02,167.28-0.01,250.93-0.06c2.47,0,5.13-0.05,7.37-0.93c4.04-1.6,7.74-4.4,6.77-9.28c-0.92-4.63-5.39-2.99-8.43-3
			C337.62,361.64,293.82,361.67,250.02,361.69z M242.6,176.82c-0.02,0-0.04,0-0.06,0c0,6.25-0.01,12.49,0,18.74
			c0.01,4.11,2.44,5.85,6.08,5.01c3.7-0.85,10.22,1.55,9.73-5.52c-0.84-12.07-0.55-24.13-0.7-36.2c-0.07-5.69-3.96-5.34-7.79-5.46
			c-4.22-0.14-7.47,0.55-7.3,5.95C242.74,165.15,242.6,170.99,242.6,176.82z"/>
		<path class="st0" d="M250.91,64.57c2.75,0,4.75,1.36,9.76,5.01c8.39,6.11,13.71,12.32,18.2,21.46
			c5.96,12.13,4.56,23.81-2.87,34.92c-1.73,2.58-3.83,4.93-7.15,3.21c-3.61-1.88-2.74-5.1-1.56-8.2
			c6.77-17.72,3.55-29.04-11.3-40.93c-3.82-3.06-7.3-3.22-11.41-0.73c-13.04,7.89-18.69,25.84-12.36,39.75
			c0.43,0.95,0.9,1.89,1.21,2.88c0.88,2.77,1.06,5.59-1.9,7.12c-2.74,1.41-4.9-0.41-6.43-2.45c-7.57-10.06-9.76-20.94-4.83-32.9
			c4.37-10.61,11.83-18.48,21.23-24.76C242.97,67.98,247.15,64.57,250.91,64.57z"/>
	</g>
</g>
</svg>
